<?xml version="1.0" encoding="utf-8"?>
<!-- Generator: Adobe Illustrator 17.1.0, SVG Export Plug-In . SVG Version: 6.00 Build 0)  -->
<!DOCTYPE svg PUBLIC "-//W3C//DTD SVG 1.1//EN" "http://www.w3.org/Graphics/SVG/1.1/DTD/svg11.dtd">
<svg version="1.1" id="Layer_1" xmlns="http://www.w3.org/2000/svg" xmlns:xlink="http://www.w3.org/1999/xlink" x="0px" y="0px"
	 viewBox="167.333 10.667 145.333 78.667" enable-background="new 167.333 10.667 145.333 78.667" xml:space="preserve">
<path fill="#0088FF" d="M218.481,14.579c3.347-0.002,59.302-0.001,62.649-0.001c3.256,0-4.67-0.016-1.414,0.01
	c0.972,0.008,1.794-0.275,2.416-1.002c0.846-0.987,1.888-1.309,3.17-1.288c3.406,0.054,17.998,0.016,21.406,0.02
	c1.233,0.001,2.228,0.772,2.48,1.901c0.13,0.582-0.069,0.854-0.67,0.907c-0.18,0.016-0.361,0.015-0.542,0.015
	c-2.955,0.001-17.094-0.001-20.049,0.004c-0.254,0.001-0.533-0.003-0.753,0.099c-0.165,0.077-0.339,0.316-0.346,0.49
	c-0.006,0.147,0.194,0.387,0.351,0.437c0.294,0.094,0.623,0.105,0.937,0.106c2.94,0.007,17.063,0.004,20.004,0.005
	c0.196,0,0.395-0.003,0.586,0.03c0.335,0.059,0.529,0.248,0.523,0.62c-0.011,0.678-0.011,1.357,0,2.035
	c0.006,0.366-0.168,0.57-0.509,0.632c-0.206,0.037-0.419,0.047-0.628,0.048c-3,0.003-17.184,0-20.184,0.006
	c-0.253,0.001-0.528,0.005-0.752,0.102c-0.154,0.067-0.33,0.297-0.329,0.454c0.001,0.159,0.178,0.402,0.33,0.455
	c0.275,0.096,0.591,0.104,0.889,0.104c2.94,0.006,17.063,0.001,20.004,0.008c0.397,0.001,0.949-0.104,1.079,0.338
	c0.107,0.361-0.021,0.874-0.214,1.226c-0.448,0.816-1.168,1.255-2.144,1.252c-3.588-0.012-18.36-0.018-21.948,0.004
	c-0.934,0.006-1.711-0.272-2.356-0.937c-0.147-0.151-0.298-0.299-0.448-0.447c-0.582-0.58-1.265-0.866-2.106-0.865
	c-6.604,0.013-54.825,0.008-61.428,0.007"/>
<path fill="#FFFFFF" d="M218.481,35.503c4.252,0.003,49.458,0.001,53.71,0.001c0.18,0,0.359,0,0.563,0
	c0.057,0.218,0.097,0.422,0.163,0.617c0.332,0.971,1.251,1.645,2.317,1.64c4.311-0.019,20.27-0.015,24.579-0.108
	c1.467-0.032,2.935-0.284,4.391-0.509c1.946-0.301,3.265-1.435,4.043-3.229c0.69-1.589,0.939-3.261,0.974-4.976
	c0.001-0.056-0.015-0.113-0.028-0.211c-0.177,0-0.339,0-0.5,0c-24.101,0-89.405-0.016-90.212-0.018"/>
<path fill="#0088FF" d="M218.481,43.377c3.347-0.002,59.302-0.001,62.649-0.001c3.256,0-4.67-0.016-1.414,0.01
	c0.972,0.008,1.794-0.275,2.416-1.002c0.846-0.987,1.888-1.309,3.17-1.288c3.406,0.054,17.998,0.016,21.406,0.02
	c1.233,0.001,2.228,0.772,2.48,1.901c0.13,0.582-0.069,0.854-0.67,0.907c-0.18,0.016-0.361,0.015-0.542,0.015
	c-2.955,0.001-17.094-0.001-20.049,0.004c-0.254,0.001-0.533-0.003-0.753,0.099c-0.165,0.077-0.339,0.316-0.346,0.49
	c-0.006,0.147,0.194,0.387,0.351,0.437c0.294,0.094,0.623,0.105,0.937,0.106c2.94,0.007,17.063,0.004,20.004,0.005
	c0.196,0,0.395-0.003,0.586,0.03c0.335,0.059,0.529,0.248,0.523,0.62c-0.011,0.678-0.011,1.357,0,2.035
	c0.006,0.366-0.168,0.57-0.509,0.632c-0.206,0.037-0.419,0.047-0.628,0.048c-3,0.003-17.184,0-20.184,0.006
	c-0.253,0.001-0.528,0.005-0.752,0.102c-0.154,0.067-0.33,0.297-0.329,0.454c0.001,0.159,0.178,0.401,0.33,0.455
	c0.275,0.096,0.591,0.104,0.889,0.104c2.94,0.006,17.063,0.001,20.004,0.008c0.397,0.001,0.949-0.104,1.079,0.338
	c0.107,0.361-0.021,0.874-0.214,1.226c-0.448,0.816-1.168,1.255-2.144,1.252c-3.588-0.012-18.36-0.018-21.948,0.004
	c-0.934,0.006-1.711-0.272-2.356-0.937c-0.147-0.151-0.298-0.299-0.448-0.447c-0.582-0.58-1.265-0.866-2.106-0.865
	c-6.604,0.013-54.825,0.008-61.428,0.007"/>
<path fill="#0088FF" d="M170.696,73.44c3.347-0.002,107.087-0.001,110.434-0.001c3.256,0-4.67-0.016-1.414,0.01
	c0.972,0.008,1.794-0.275,2.416-1.002c0.846-0.987,1.888-1.309,3.17-1.288c3.406,0.054,17.998,0.016,21.406,0.02
	c1.233,0.001,2.228,0.772,2.48,1.901c0.13,0.582-0.069,0.854-0.67,0.907c-0.18,0.016-0.361,0.015-0.542,0.015
	c-2.955,0.001-17.094-0.001-20.049,0.004c-0.254,0.001-0.533-0.003-0.753,0.099c-0.165,0.077-0.339,0.316-0.346,0.49
	c-0.006,0.147,0.194,0.387,0.351,0.437c0.294,0.094,0.623,0.105,0.937,0.106c2.94,0.007,17.063,0.004,20.004,0.005
	c0.196,0,0.395-0.003,0.586,0.03c0.335,0.059,0.529,0.248,0.523,0.62c-0.011,0.678-0.011,1.357,0,2.035
	c0.006,0.366-0.168,0.57-0.509,0.632c-0.206,0.037-0.419,0.047-0.628,0.048c-3,0.003-17.184,0-20.184,0.006
	c-0.253,0.001-0.528,0.005-0.752,0.102c-0.154,0.067-0.33,0.297-0.329,0.454c0.001,0.159,0.178,0.401,0.33,0.455
	c0.275,0.096,0.591,0.104,0.889,0.104c2.94,0.006,17.063,0.001,20.004,0.008c0.397,0.001,0.949-0.104,1.079,0.338
	c0.107,0.361-0.021,0.874-0.214,1.226c-0.448,0.816-1.168,1.255-2.144,1.252c-3.588-0.012-18.36-0.018-21.948,0.004
	c-0.934,0.006-1.711-0.272-2.356-0.937c-0.147-0.151-0.298-0.299-0.448-0.447c-0.582-0.58-1.265-0.866-2.106-0.865
	c-6.604,0.013-102.609,0.008-109.213,0.007"/>
<path fill="#FFFFFF" d="M170.696,64.934c4.252,0.003,97.243,0.001,101.495,0.001c0.18,0,0.359,0,0.563,0
	c0.057,0.218,0.097,0.422,0.163,0.617c0.332,0.971,1.251,1.645,2.317,1.64c4.311-0.019,20.27-0.015,24.579-0.108
	c1.467-0.032,2.935-0.284,4.391-0.509c1.946-0.301,3.265-1.435,4.043-3.229c0.69-1.589,0.939-3.261,0.974-4.976
	c0.001-0.056-0.015-0.113-0.028-0.211c-0.177,0-0.339,0-0.5,0c-24.101,0-137.19-0.016-137.997-0.018"/>
<rect x="171.646" y="14.557" fill="#0088FF" width="39.75" height="35.759"/>
</svg>
