<?xml version="1.0" encoding="utf-8"?>
<!-- Generator: Adobe Illustrator 17.1.0, SVG Export Plug-In . SVG Version: 6.00 Build 0)  -->
<!DOCTYPE svg PUBLIC "-//W3C//DTD SVG 1.1//EN" "http://www.w3.org/Graphics/SVG/1.1/DTD/svg11.dtd">
<svg version="1.1" id="Layer_1" xmlns="http://www.w3.org/2000/svg" xmlns:xlink="http://www.w3.org/1999/xlink" x="0px" y="0px"
	 viewBox="0 0 480 100" enable-background="new 0 0 480 100" xml:space="preserve">
<circle fill="#FFFFFF" cx="57.667" cy="77.333" r="3.667"/>
<path fill="#FFFFFF" d="M106.019,74.647c2.989,3.925-1.447,8.361-5.372,5.372C97.658,76.095,102.095,71.658,106.019,74.647z"/>
<rect x="374" y="35.5" fill="#FFFFFF" width="12.767" height="10.75"/>
<rect x="389.194" y="35.5" fill="#FFFFFF" width="12.767" height="10.75"/>
<rect x="404.388" y="35.5" fill="#FFFFFF" width="12.767" height="10.75"/>
<g id="Layer_1_1_">
	<g>
		<rect x="79.61" y="74.402" fill="none" width="1.827" height="6.071"/>
		<path fill="none" d="M112.812,5.754H48.235c-3.347,0-6.07,2.723-6.07,6.07v1.684h76.718v-1.684
			C118.883,8.478,116.159,5.754,112.812,5.754z M75.043,11.385c-0.968,0-1.753-0.785-1.753-1.753s0.785-1.753,1.753-1.753
			c0.968,0,1.753,0.785,1.753,1.753S76.011,11.385,75.043,11.385z M81.013,11.385c-0.968,0-1.753-0.785-1.753-1.753
			s0.785-1.753,1.753-1.753c0.968,0,1.753,0.785,1.753,1.753S81.981,11.385,81.013,11.385z M86.983,11.385
			c-0.968,0-1.753-0.785-1.753-1.753s0.785-1.753,1.753-1.753c0.968,0,1.753,0.785,1.753,1.753S87.951,11.385,86.983,11.385z"/>
		<path fill="none" d="M103.365,80.474c1.749,0,3.172-1.424,3.172-3.175s-1.422-3.174-3.172-3.174c-1.751,0-3.175,1.423-3.175,3.174
			C100.19,79.05,101.614,80.474,103.365,80.474z"/>
		<rect x="99.919" y="87.637" fill="none" width="7.406" height="10.135"/>
		<path fill="none" d="M278.601,52.41c-2.266,0-4.109,1.843-4.109,4.109s1.843,4.109,4.109,4.109c2.266,0,4.109-1.843,4.109-4.109
			S280.867,52.41,278.601,52.41z"/>
		<path fill="none" d="M42.165,15.549v37.145c0,3.347,2.723,6.07,6.07,6.07h2.266v-23.4v-0.977v-6.792h60.046v6.792v0.977v23.399
			h2.266c3.347,0,6.07-2.723,6.07-6.07V15.549H42.165z"/>
		<path fill="none" d="M177.903,55.134c3.383,2.611,7.248-1.252,4.645-4.639C179.168,47.903,175.312,51.751,177.903,55.134z"/>
		<rect x="52.456" y="29.55" fill="none" width="56.136" height="4.837"/>
		<path fill="none" d="M201.715,52.41c-2.266,0-4.109,1.843-4.109,4.109s1.843,4.109,4.109,4.109c2.266,0,4.109-1.843,4.109-4.109
			S203.981,52.41,201.715,52.41z"/>
		<rect x="90.96" y="74.402" fill="none" width="1.315" height="6.071"/>
		<rect x="72.043" y="74.402" fill="none" width="1.829" height="6.071"/>
		<path fill="none" d="M52.456,36.342v29.263h20.343l-9.301-2.921c-0.515-0.162-0.801-0.71-0.64-1.225
			c0.162-0.515,0.709-0.801,1.225-0.639l14.869,4.671c0.086,0.027,0.163,0.068,0.236,0.115H90.67l-9.302-2.921
			c-0.515-0.162-0.801-0.71-0.64-1.225c0.162-0.515,0.712-0.801,1.225-0.64l14.872,4.671c0.086,0.027,0.163,0.068,0.236,0.115
			h11.531V36.342H52.456z"/>
		<rect x="68.773" y="74.402" fill="none" width="1.315" height="6.071"/>
		<rect x="75.827" y="74.402" fill="none" width="1.828" height="6.071"/>
		<rect x="87.177" y="74.402" fill="none" width="1.828" height="6.071"/>
		<rect x="83.392" y="74.402" fill="none" width="1.83" height="6.071"/>
		<path fill="none" d="M49.345,85.682h62.357V67.56H49.345V85.682z M103.365,72.17c2.827,0,5.127,2.3,5.127,5.129
			c0,2.829-2.3,5.13-5.127,5.13c-2.828,0-5.13-2.3-5.13-5.13C98.235,74.471,100.536,72.17,103.365,72.17z M66.818,73.426
			c0-0.54,0.438-0.977,0.977-0.977h25.457c0.54,0,0.977,0.438,0.977,0.977v8.026c0,0.54-0.438,0.977-0.977,0.977H67.796
			c-0.54,0-0.977-0.438-0.977-0.977L66.818,73.426L66.818,73.426z M57.684,72.17c2.828,0,5.13,2.3,5.13,5.129
			c0,2.829-2.301,5.13-5.13,5.13c-2.828,0-5.13-2.3-5.13-5.13C52.554,74.471,54.855,72.17,57.684,72.17z"/>
		<circle fill="none" cx="57.684" cy="77.3" r="3.174"/>
		<rect x="53.724" y="87.637" fill="none" width="7.405" height="10.135"/>
		<rect x="396.345" y="36.828" fill="none" width="11.427" height="8.672"/>
		<rect x="374.92" y="36.828" fill="none" width="6.121" height="8.672"/>
		<rect x="409.812" y="36.828" fill="none" width="6.223" height="8.672"/>
		<rect x="375.065" y="25.126" fill="none" width="41.175" height="3.907"/>
		<path fill="none" d="M416.618,95.152c6.039-15.873,10.95-23.762,13.047-27.131l0.167-0.269c1.167-1.878,2.411-3.015,3.333-3.672
			c-1.894-1.27-4.483-1.512-7.855-1.828c-2.166-0.203-4.62-0.432-7.406-0.977c-6.71-1.313-17.444-5.564-21.297-7.14v42.487
			c2.083-0.281,3.221-1.328,4.506-2.516c1.566-1.449,3.342-3.091,6.897-3.091c3.724,0,5.458,1.76,6.988,3.313
			c0.544,0.552,1.041,1.054,1.592,1.453C416.534,95.581,416.538,95.362,416.618,95.152z"/>
		<path fill="none" d="M374.838,23.086h41.894c0.009,0,0.018,0.003,0.027,0.003l2.116-2.72H372.03l2.24,2.89
			C374.432,23.15,374.627,23.086,374.838,23.086z"/>
		<path fill="none" d="M394.634,51.899c0.145-0.387,0.515-0.664,0.953-0.664s0.808,0.277,0.953,0.664
			c2.716,1.122,14.737,5.999,21.756,7.372c0.889,0.174,1.743,0.313,2.57,0.431V31.074h-50.558v28.629
			c0.827-0.118,1.681-0.257,2.57-0.431C379.898,57.898,391.918,53.021,394.634,51.899z M372.879,34.788h45.197v12.753h-45.197
			V34.788z"/>
		<path fill="none" d="M394.566,54.135c-3.853,1.575-14.587,5.827-21.297,7.14c-2.786,0.545-5.241,0.775-7.406,0.977
			c-3.373,0.316-5.962,0.558-7.856,1.828c0.922,0.658,2.166,1.795,3.333,3.672l0.167,0.269c2.097,3.369,7.009,11.258,13.047,27.131
			c0.12,0.314,0.071,0.649-0.098,0.912c1.002-0.482,1.772-1.191,2.602-1.959c1.566-1.449,3.342-3.091,6.897-3.091
			c3.724,0,5.458,1.76,6.988,3.313c1.112,1.129,2.028,2.053,3.622,2.301L394.566,54.135L394.566,54.135z"/>
		<rect x="383.082" y="36.828" fill="none" width="11.222" height="8.672"/>
		<path fill="none" d="M229.906,36.629c0.035-0.034,0.071-0.067,0.106-0.1c0.145-0.136,0.292-0.269,0.441-0.4
			c0.032-0.028,0.064-0.057,0.097-0.085c0.173-0.148,0.349-0.292,0.527-0.432c0.04-0.031,0.08-0.061,0.119-0.092
			c0.158-0.121,0.319-0.24,0.481-0.355c0.032-0.023,0.063-0.046,0.096-0.068c0.186-0.13,0.376-0.255,0.568-0.376
			c0.044-0.027,0.087-0.054,0.131-0.081c0.171-0.106,0.344-0.209,0.52-0.308c0.031-0.017,0.061-0.035,0.092-0.053
			c0.199-0.111,0.4-0.216,0.604-0.318c0.047-0.024,0.095-0.046,0.142-0.069c0.184-0.09,0.37-0.176,0.558-0.258
			c0.028-0.012,0.055-0.025,0.083-0.037c0.209-0.09,0.421-0.175,0.635-0.256c0.051-0.019,0.101-0.038,0.152-0.056
			c0.196-0.072,0.394-0.141,0.594-0.205c0.024-0.008,0.048-0.016,0.072-0.024c0.219-0.069,0.44-0.132,0.662-0.192
			c0.053-0.014,0.107-0.028,0.161-0.042c0.209-0.054,0.42-0.104,0.632-0.149c0.018-0.004,0.036-0.008,0.054-0.012
			c0.227-0.047,0.455-0.088,0.684-0.125c0.056-0.009,0.112-0.018,0.168-0.026c0.222-0.033,0.445-0.063,0.669-0.087
			c0.011-0.001,0.021-0.003,0.032-0.004c0.233-0.024,0.467-0.041,0.702-0.055c0.058-0.003,0.116-0.006,0.174-0.009
			c0.237-0.011,0.474-0.018,0.712-0.018s0.476,0.008,0.712,0.018c0.058,0.003,0.116,0.006,0.174,0.009
			c0.235,0.013,0.469,0.03,0.702,0.055c0.011,0.001,0.022,0.003,0.032,0.004c0.224,0.024,0.447,0.053,0.669,0.087
			c0.056,0.008,0.113,0.017,0.169,0.026c0.229,0.037,0.457,0.077,0.683,0.125c0.019,0.004,0.038,0.009,0.056,0.013
			c0.211,0.045,0.421,0.095,0.629,0.148c0.054,0.014,0.108,0.028,0.162,0.042c0.222,0.059,0.442,0.122,0.661,0.192
			c0.025,0.008,0.049,0.017,0.073,0.024c0.199,0.064,0.396,0.133,0.592,0.205c0.051,0.019,0.103,0.038,0.154,0.057
			c0.213,0.081,0.425,0.165,0.633,0.256c0.029,0.012,0.057,0.026,0.086,0.039c0.187,0.082,0.371,0.168,0.554,0.257
			c0.048,0.023,0.096,0.046,0.144,0.07c0.203,0.101,0.404,0.207,0.602,0.317c0.032,0.018,0.063,0.036,0.094,0.054
			c0.174,0.098,0.346,0.201,0.516,0.306c0.044,0.028,0.089,0.055,0.133,0.083c0.191,0.121,0.38,0.246,0.566,0.375
			c0.033,0.023,0.066,0.047,0.099,0.071c0.161,0.114,0.32,0.231,0.477,0.352c0.041,0.031,0.082,0.062,0.122,0.094
			c0.178,0.139,0.353,0.283,0.525,0.43c0.034,0.029,0.067,0.059,0.1,0.088c0.148,0.129,0.293,0.261,0.436,0.395
			c0.037,0.034,0.073,0.068,0.11,0.103c0.163,0.157,0.324,0.318,0.481,0.482c0.011,0.012,0.023,0.022,0.034,0.034
			c-1.419-4.835-5.895-8.375-11.183-8.375s-9.764,3.541-11.183,8.375c0.011-0.011,0.022-0.021,0.032-0.033
			C229.581,36.948,229.742,36.787,229.906,36.629z"/>
		<path fill="none" d="M225.85,43.213c-5.873-0.516-59.929-5.273-66.673-6.152c-1.175-0.153-1.641-0.028-1.788,0.033
			c0.077,1.052,3.67,4.548,6.221,5.398c2.853,0.951,44.311,5.975,61.815,8.041c-0.166-0.905-0.257-1.836-0.257-2.788
			C225.168,46.206,225.402,44.676,225.85,43.213z"/>
		<path fill="none" d="M297.783,50.495c-2.603,3.387,1.262,7.251,4.645,4.639C305.018,51.751,301.163,47.903,297.783,50.495z"/>
		<path fill="none" d="M252.336,41.394c-1.536-2.839-4.006-4.973-6.91-6.104c-0.138-0.054-0.278-0.105-0.418-0.155
			c-0.28-0.099-0.565-0.188-0.852-0.268c-0.431-0.12-0.87-0.218-1.315-0.295c-0.296-0.051-0.596-0.092-0.897-0.123
			c-0.452-0.046-0.909-0.07-1.37-0.07c-4.914,0-9.421,2.688-11.762,7.015c-1.048,1.938-1.603,4.133-1.603,6.351
			c0,7.37,5.996,13.365,13.365,13.365c7.37,0,13.365-5.996,13.365-13.365C253.939,45.528,253.385,43.332,252.336,41.394z
			 M240.676,52.234c-2.367,0-4.285-1.918-4.285-4.285s1.918-4.285,4.285-4.285s4.285,1.918,4.285,4.285
			C244.961,50.315,243.042,52.234,240.676,52.234z"/>
		<path fill="none" d="M322.121,37.061c-6.804,0.888-61.777,5.722-66.82,6.165c0.446,1.458,0.678,2.984,0.678,4.519
			c0,0.959-0.092,1.895-0.261,2.806c17.413-2.055,59.107-7.105,61.969-8.059c1.113-0.371,2.779-1.459,4.147-2.708
			c1.507-1.376,2.023-2.347,2.071-2.691C323.755,37.031,323.288,36.909,322.121,37.061z"/>
		<path fill="#0088FF" d="M176.471,49.076c-4.187,5.466,2.046,11.688,7.505,7.495C188.184,51.1,181.936,44.858,176.471,49.076z
			 M177.903,55.134c-2.591-3.384,1.265-7.231,4.645-4.639C185.151,53.882,181.286,57.746,177.903,55.134z"/>
		<path fill="#0088FF" d="M296.355,56.571c5.459,4.192,11.692-2.029,7.505-7.495C298.395,44.858,292.147,51.1,296.355,56.571z
			 M302.428,55.134c-3.383,2.611-7.248-1.252-4.645-4.639C301.163,47.903,305.018,51.751,302.428,55.134z"/>
		<path fill="#0088FF" d="M67.796,82.428h25.457c0.54,0,0.977-0.437,0.977-0.977v-8.026c0-0.54-0.438-0.977-0.977-0.977H67.796
			c-0.54,0-0.977,0.438-0.977,0.977v8.025C66.818,81.99,67.256,82.428,67.796,82.428z M85.222,80.473h-1.83v-6.071h1.83V80.473z
			 M87.177,74.402h1.828v6.071h-1.828V74.402z M81.437,80.473H79.61v-6.071h1.827C81.437,74.402,81.437,80.473,81.437,80.473z
			 M77.655,80.473h-1.828v-6.071h1.828V80.473z M73.872,80.473h-1.829v-6.071h1.829V80.473z M92.275,80.473H90.96v-6.071h1.315
			V80.473z M68.773,74.402h1.315v6.071h-1.315V74.402z"/>
		<path fill="#0088FF" d="M112.812,3.714H48.235c-4.472,0-8.111,3.638-8.111,8.111v40.869c0,4.472,3.638,8.111,8.111,8.111h2.266
			v4.801h-2.133c-0.54,0-0.977,0.438-0.977,0.977V86.66c0,0.54,0.438,0.977,0.977,0.977h3.401v11.112
			c0,0.54,0.438,0.977,0.977,0.977h9.36c0.54,0,0.977-0.437,0.977-0.977V87.637h34.88v11.112c0,0.54,0.438,0.977,0.977,0.977h9.361
			c0.54,0,0.977-0.437,0.977-0.977V87.637h3.401c0.54,0,0.977-0.437,0.977-0.977V66.582c0-0.54-0.438-0.977-0.977-0.977h-2.133
			v-4.801h2.266c4.472,0,8.111-3.638,8.111-8.111V11.825C120.923,7.352,117.285,3.714,112.812,3.714z M108.592,34.387H52.456V29.55
			h56.136V34.387z M61.129,97.771h-7.405V87.637h7.405V97.771z M107.324,97.771h-7.406V87.637h7.406V97.771z M111.702,85.682H49.345
			V67.56h62.357C111.702,67.56,111.702,85.682,111.702,85.682z M97.061,65.605c-0.072-0.047-0.149-0.088-0.236-0.115l-14.872-4.671
			c-0.513-0.162-1.063,0.124-1.225,0.64c-0.162,0.515,0.124,1.063,0.64,1.225l9.302,2.921H79.189
			c-0.072-0.047-0.149-0.088-0.236-0.115l-14.869-4.671c-0.516-0.162-1.063,0.124-1.225,0.639s0.124,1.063,0.64,1.225l9.301,2.921
			H52.456V36.342h56.136v29.263C108.592,65.605,97.061,65.605,97.061,65.605z M112.812,58.764h-2.266v-23.4v-0.977v-6.792H50.501
			v6.792v0.977v23.399h-2.266c-3.347,0-6.07-2.723-6.07-6.07V15.549h76.718v37.145C118.883,56.04,116.159,58.764,112.812,58.764z
			 M118.883,13.508H42.165v-1.684c0-3.347,2.723-6.07,6.07-6.07h64.577c3.347,0,6.07,2.723,6.07,6.07L118.883,13.508L118.883,13.508
			z"/>
		<circle fill="#0088FF" cx="81.013" cy="9.631" r="1.753"/>
		<circle fill="#0088FF" cx="75.043" cy="9.631" r="1.753"/>
		<circle fill="#0088FF" cx="86.983" cy="9.631" r="1.753"/>
		<circle fill="#0088FF" cx="240.676" cy="47.949" r="4.285"/>
		<path fill="#0088FF" d="M321.857,35.038c-6.938,0.905-66.426,6.129-67.026,6.181c-0.095,0.008-0.184,0.034-0.269,0.066
			c-0.096-0.207-0.197-0.411-0.302-0.614c0.002-0.083,0.006-0.165,0.006-0.248c0-2.96-0.947-5.702-2.551-7.944l18.356-2.085
			c0.56-0.064,0.962-0.569,0.899-1.129c-0.063-0.56-0.569-0.961-1.129-0.899l-19.735,2.241c-2.215-2.152-5.153-3.562-8.411-3.828
			V9.631c0-0.563-0.457-1.02-1.02-1.02s-1.02,0.457-1.02,1.02v17.133c-3.34,0.222-6.354,1.646-8.616,3.844l-19.741-2.242
			c-0.558-0.062-1.065,0.339-1.129,0.899s0.339,1.065,0.899,1.129l18.363,2.085c-1.603,2.242-2.55,4.983-2.55,7.943
			c0,0.082,0.004,0.166,0.006,0.248c-0.098,0.19-0.193,0.381-0.283,0.574c-0.045-0.01-0.09-0.022-0.137-0.026
			c-0.6-0.053-60.088-5.276-67.026-6.181c-2.377-0.31-3.736,0.206-4.041,1.533c-0.6,2.611,4.773,6.926,7.565,7.857
			c3.572,1.191,56.401,7.445,63.008,8.224c2.054,6.095,7.821,10.498,14.6,10.498c6.772,0,12.534-4.394,14.593-10.48
			c5.872-0.692,59.564-7.042,63.166-8.243c2.792-0.931,8.165-5.246,7.565-7.857C325.593,35.244,324.234,34.727,321.857,35.038z
			 M240.574,28.771c5.288,0,9.764,3.541,11.183,8.375c-0.011-0.012-0.023-0.022-0.034-0.034c-0.157-0.164-0.317-0.325-0.481-0.482
			c-0.036-0.035-0.073-0.069-0.11-0.103c-0.143-0.135-0.288-0.267-0.436-0.395c-0.034-0.029-0.067-0.059-0.1-0.088
			c-0.172-0.147-0.347-0.291-0.525-0.43c-0.04-0.032-0.082-0.063-0.122-0.094c-0.157-0.12-0.316-0.238-0.477-0.352
			c-0.033-0.023-0.066-0.048-0.099-0.071c-0.186-0.129-0.375-0.254-0.566-0.375c-0.044-0.028-0.089-0.055-0.133-0.083
			c-0.17-0.105-0.342-0.207-0.516-0.306c-0.032-0.018-0.063-0.036-0.094-0.054c-0.198-0.11-0.399-0.215-0.602-0.317
			c-0.048-0.024-0.096-0.047-0.144-0.07c-0.183-0.089-0.368-0.175-0.554-0.257c-0.029-0.013-0.057-0.026-0.086-0.039
			c-0.209-0.09-0.42-0.175-0.633-0.256c-0.051-0.019-0.102-0.038-0.154-0.057c-0.196-0.072-0.393-0.141-0.592-0.205
			c-0.025-0.008-0.049-0.017-0.073-0.024c-0.218-0.069-0.439-0.132-0.661-0.192c-0.054-0.014-0.108-0.028-0.162-0.042
			c-0.208-0.053-0.418-0.103-0.629-0.148c-0.019-0.004-0.038-0.009-0.056-0.013c-0.226-0.047-0.454-0.088-0.683-0.125
			c-0.056-0.009-0.112-0.018-0.169-0.026c-0.222-0.033-0.445-0.063-0.669-0.087c-0.011-0.001-0.021-0.003-0.032-0.004
			c-0.233-0.024-0.467-0.041-0.702-0.055c-0.058-0.003-0.116-0.006-0.174-0.009c-0.237-0.011-0.474-0.018-0.712-0.018
			s-0.476,0.008-0.712,0.018c-0.058,0.003-0.116,0.006-0.174,0.009c-0.235,0.013-0.469,0.03-0.702,0.055
			c-0.011,0.001-0.021,0.003-0.032,0.004c-0.224,0.024-0.447,0.053-0.669,0.087c-0.056,0.008-0.112,0.017-0.168,0.026
			c-0.229,0.037-0.458,0.078-0.684,0.125c-0.018,0.004-0.036,0.008-0.054,0.012c-0.212,0.045-0.422,0.095-0.632,0.149
			c-0.054,0.014-0.107,0.027-0.161,0.042c-0.222,0.059-0.443,0.123-0.662,0.192c-0.024,0.008-0.048,0.016-0.072,0.024
			c-0.2,0.064-0.397,0.133-0.594,0.205c-0.051,0.019-0.102,0.037-0.152,0.056c-0.214,0.081-0.425,0.166-0.635,0.256
			c-0.028,0.012-0.055,0.025-0.083,0.037c-0.188,0.082-0.373,0.169-0.558,0.258c-0.047,0.023-0.095,0.046-0.142,0.069
			c-0.203,0.102-0.405,0.207-0.604,0.318c-0.031,0.017-0.061,0.035-0.092,0.053c-0.175,0.099-0.348,0.202-0.52,0.308
			c-0.044,0.027-0.088,0.054-0.131,0.081c-0.192,0.121-0.381,0.246-0.568,0.376c-0.032,0.022-0.064,0.046-0.096,0.068
			c-0.163,0.115-0.323,0.233-0.481,0.355c-0.04,0.031-0.08,0.061-0.119,0.092c-0.179,0.14-0.355,0.284-0.527,0.432
			c-0.033,0.028-0.065,0.057-0.097,0.085c-0.149,0.13-0.296,0.263-0.441,0.4c-0.035,0.033-0.071,0.066-0.106,0.1
			c-0.164,0.158-0.325,0.319-0.483,0.484c-0.011,0.011-0.022,0.021-0.032,0.033C230.81,32.311,235.286,28.771,240.574,28.771z
			 M163.611,42.492c-2.551-0.85-6.144-4.345-6.221-5.398c0.147-0.061,0.612-0.186,1.788-0.033c6.744,0.88,60.8,5.636,66.673,6.152
			c-0.449,1.462-0.682,2.992-0.682,4.531c0,0.952,0.091,1.883,0.257,2.788C207.922,48.467,166.464,43.443,163.611,42.492z
			 M240.574,61.11c-7.37,0-13.365-5.996-13.365-13.365c0-2.217,0.554-4.413,1.603-6.351c2.341-4.327,6.848-7.015,11.762-7.015
			c0.461,0,0.918,0.024,1.37,0.07c0.301,0.031,0.601,0.072,0.897,0.123c0.445,0.076,0.883,0.175,1.315,0.295
			c0.288,0.08,0.572,0.169,0.852,0.268c0.14,0.049,0.28,0.101,0.418,0.155c2.905,1.131,5.374,3.265,6.91,6.104
			c1.049,1.938,1.603,4.133,1.603,6.351C253.939,55.114,247.943,61.11,240.574,61.11z M321.834,39.783
			c-1.367,1.249-3.034,2.337-4.147,2.708c-2.862,0.954-44.556,6.004-61.969,8.059c0.168-0.911,0.261-1.847,0.261-2.806
			c0-1.534-0.232-3.06-0.678-4.519c5.043-0.443,60.016-5.278,66.82-6.165c1.167-0.152,1.634-0.03,1.784,0.031
			C323.857,37.436,323.341,38.407,321.834,39.783z"/>
		<path fill="#0088FF" d="M201.715,50.369c-3.391,0-6.149,2.759-6.149,6.149c0,3.391,2.759,6.149,6.149,6.149
			c3.391,0,6.149-2.759,6.149-6.149C207.864,53.128,205.106,50.369,201.715,50.369z M201.715,60.628
			c-2.266,0-4.109-1.843-4.109-4.109s1.843-4.109,4.109-4.109c2.266,0,4.109,1.843,4.109,4.109S203.981,60.628,201.715,60.628z"/>
		<path fill="#0088FF" d="M278.601,50.369c-3.391,0-6.149,2.759-6.149,6.149c0,3.391,2.759,6.149,6.149,6.149
			c3.391,0,6.149-2.759,6.149-6.149C284.751,53.128,281.992,50.369,278.601,50.369z M278.601,60.628
			c-2.266,0-4.109-1.843-4.109-4.109s1.843-4.109,4.109-4.109c2.266,0,4.109,1.843,4.109,4.109S280.867,60.628,278.601,60.628z"/>
		<path fill="#0088FF" d="M443.56,96.698c-2.175,0-3.206-1.046-4.51-2.369c-1.53-1.553-3.264-3.313-6.988-3.313
			c-3.555,0-5.33,1.642-6.897,3.091c-1.504,1.391-2.803,2.592-5.658,2.592c-0.607,0-1.122-0.084-1.582-0.23
			c0.266-0.099,0.491-0.304,0.599-0.59c5.969-15.688,10.807-23.46,12.873-26.779l0.168-0.27c1.784-2.87,3.698-3.628,3.708-3.632
			l1.473-0.53l-1.08-1.133c-2.47-2.594-5.866-2.912-10.166-3.314c-0.822-0.077-1.687-0.158-2.594-0.259V29.033h-4.626v-4.577
			l4.767-6.128h-26.242V1.507c0-0.563-0.457-1.02-1.02-1.02c-0.564,0-1.02,0.457-1.02,1.02v16.821h-5.823V9.305
			c0-0.563-0.457-1.02-1.02-1.02c-0.564,0-1.02,0.457-1.02,1.02v9.024h-19.035l5.158,6.656v4.049h-4.758v30.928
			c-0.907,0.101-1.772,0.182-2.594,0.259c-4.3,0.402-7.696,0.72-10.166,3.314l-1.089,1.13l1.473,0.53
			c0.019,0.007,1.933,0.765,3.717,3.635l0.168,0.27c2.066,3.319,6.904,11.09,12.872,26.778c0.114,0.301,0.356,0.515,0.64,0.607
			c-0.549,0.136-1.169,0.212-1.887,0.212c-2.175,0-3.205-1.046-4.51-2.369c-1.53-1.553-3.264-3.313-6.988-3.313
			c-3.555,0-5.33,1.642-6.897,3.091c-1.504,1.391-2.803,2.592-5.658,2.592c-0.564,0-1.02,0.457-1.02,1.02s0.457,1.02,1.02,1.02
			c3.654,0,5.455-1.665,7.044-3.135c1.479-1.367,2.755-2.548,5.511-2.548c2.87,0,4.104,1.253,5.535,2.705
			c1.375,1.396,2.934,2.978,5.963,2.978c3.654,0,5.455-1.665,7.044-3.135c1.479-1.367,2.755-2.548,5.511-2.548
			c2.87,0,4.104,1.253,5.534,2.705c1.375,1.396,2.934,2.978,5.963,2.978c3.654,0,5.455-1.665,7.044-3.135
			c1.479-1.367,2.755-2.548,5.511-2.548c2.87,0,4.104,1.253,5.534,2.705c1.375,1.396,2.934,2.978,5.963,2.978
			c3.654,0,5.455-1.665,7.043-3.135c1.478-1.367,2.755-2.548,5.511-2.548c2.87,0,4.104,1.253,5.535,2.705
			c1.375,1.396,2.934,2.978,5.963,2.978c0.564,0,1.02-0.457,1.02-1.02S444.123,96.698,443.56,96.698z M372.03,20.369h46.845
			l-2.116,2.72c-0.009,0-0.018-0.003-0.027-0.003h-41.894c-0.21,0-0.406,0.064-0.568,0.173L372.03,20.369z M375.065,25.126h41.175
			v3.907h-41.175V25.126z M370.307,31.074h50.558v28.629c-0.826-0.118-1.681-0.257-2.57-0.431
			c-7.019-1.373-19.041-6.25-21.756-7.372c-0.145-0.387-0.515-0.664-0.953-0.664s-0.808,0.277-0.953,0.664
			c-2.715,1.122-14.736,5.999-21.756,7.372c-0.889,0.174-1.744,0.313-2.57,0.431L370.307,31.074L370.307,31.074z M390.945,94.328
			c-1.53-1.553-3.264-3.313-6.988-3.313c-3.555,0-5.33,1.642-6.897,3.091c-0.831,0.768-1.6,1.477-2.602,1.959
			c0.168-0.263,0.217-0.598,0.098-0.912c-6.038-15.873-10.95-23.762-13.047-27.131l-0.167-0.269
			c-1.167-1.878-2.411-3.015-3.333-3.672c1.894-1.27,4.483-1.512,7.856-1.828c2.166-0.203,4.62-0.432,7.406-0.977
			c6.71-1.313,17.444-5.564,21.297-7.14V96.63C392.972,96.381,392.057,95.457,390.945,94.328z M414.997,94.328
			c-1.53-1.553-3.264-3.313-6.988-3.313c-3.555,0-5.33,1.642-6.897,3.091c-1.285,1.188-2.423,2.235-4.506,2.516V54.135
			c3.853,1.575,14.587,5.827,21.297,7.14c2.786,0.545,5.241,0.775,7.406,0.977c3.373,0.316,5.962,0.558,7.855,1.828
			c-0.922,0.658-2.166,1.795-3.333,3.672l-0.167,0.269c-2.097,3.369-7.009,11.258-13.047,27.131c-0.08,0.21-0.083,0.428-0.029,0.629
			C416.038,95.382,415.541,94.88,414.997,94.328z"/>
	</g>
</g>
</svg>
