<?xml version="1.0" encoding="utf-8"?>
<!-- Generator: Adobe Illustrator 17.1.0, SVG Export Plug-In . SVG Version: 6.00 Build 0)  -->
<!DOCTYPE svg PUBLIC "-//W3C//DTD SVG 1.1//EN" "http://www.w3.org/Graphics/SVG/1.1/DTD/svg11.dtd">
<svg version="1.1" id="Layer_1" xmlns="http://www.w3.org/2000/svg" xmlns:xlink="http://www.w3.org/1999/xlink" x="0px" y="0px"
	 viewBox="0 0 480 100" enable-background="new 0 0 480 100" xml:space="preserve">
<g>
	<rect x="79.61" y="-78.653" fill="none" width="1.827" height="6.071"/>
	<path fill="none" d="M112.812-147.301H48.235c-3.347,0-6.07,2.723-6.07,6.07v1.684h76.718v-1.684
		C118.883-144.578,116.159-147.301,112.812-147.301z M75.043-141.671c-0.968,0-1.753-0.785-1.753-1.753s0.785-1.753,1.753-1.753
		c0.968,0,1.753,0.785,1.753,1.753S76.011-141.671,75.043-141.671z M81.013-141.671c-0.968,0-1.753-0.785-1.753-1.753
		s0.785-1.753,1.753-1.753c0.968,0,1.753,0.785,1.753,1.753S81.981-141.671,81.013-141.671z M86.983-141.671
		c-0.968,0-1.753-0.785-1.753-1.753s0.785-1.753,1.753-1.753c0.968,0,1.753,0.785,1.753,1.753S87.951-141.671,86.983-141.671z"/>
	<path fill="none" d="M103.365-72.581c1.749,0,3.172-1.424,3.172-3.175c0-1.751-1.422-3.174-3.172-3.174
		c-1.751,0-3.175,1.423-3.175,3.174C100.19-74.005,101.614-72.581,103.365-72.581z"/>
	<rect x="99.919" y="-65.419" fill="none" width="7.406" height="10.135"/>
	<path fill="none" d="M278.601-100.645c-2.266,0-4.109,1.843-4.109,4.109c0,2.266,1.843,4.109,4.109,4.109
		c2.266,0,4.109-1.843,4.109-4.109C282.71-98.802,280.867-100.645,278.601-100.645z"/>
	<path fill="none" d="M42.165-137.507v37.145c0,3.347,2.723,6.07,6.07,6.07h2.266v-23.399v-0.977v-6.792h60.046v6.792v0.977v23.399
		h2.266c3.347,0,6.07-2.723,6.07-6.07v-37.145H42.165z"/>
	<path fill="none" d="M177.903-97.921c3.383,2.611,7.248-1.252,4.645-4.639C179.168-105.152,175.312-101.304,177.903-97.921z"/>
	<rect x="52.456" y="-123.506" fill="none" width="56.136" height="4.837"/>
	<path fill="none" d="M201.715-100.645c-2.266,0-4.109,1.843-4.109,4.109c0,2.266,1.843,4.109,4.109,4.109
		c2.266,0,4.109-1.843,4.109-4.109C205.824-98.802,203.981-100.645,201.715-100.645z"/>
	<rect x="90.96" y="-78.653" fill="none" width="1.315" height="6.071"/>
	<rect x="72.043" y="-78.653" fill="none" width="1.829" height="6.071"/>
	<path fill="none" d="M52.456-116.714v29.263h20.343l-9.301-2.921c-0.515-0.162-0.801-0.71-0.64-1.225
		c0.162-0.515,0.709-0.801,1.225-0.639l14.869,4.671c0.086,0.027,0.163,0.068,0.236,0.115H90.67l-9.302-2.921
		c-0.515-0.162-0.801-0.71-0.64-1.225c0.162-0.515,0.712-0.801,1.225-0.64l14.872,4.671c0.086,0.027,0.163,0.068,0.236,0.115h11.531
		v-29.263H52.456z"/>
	<rect x="68.773" y="-78.653" fill="none" width="1.315" height="6.071"/>
	<rect x="75.827" y="-78.653" fill="none" width="1.828" height="6.071"/>
	<rect x="87.177" y="-78.653" fill="none" width="1.828" height="6.071"/>
	<rect x="83.392" y="-78.653" fill="none" width="1.83" height="6.071"/>
	<path fill="none" d="M49.345-67.374h62.357v-18.122H49.345V-67.374z M103.365-80.885c2.827,0,5.127,2.3,5.127,5.129
		c0,2.829-2.3,5.13-5.127,5.13c-2.828,0-5.13-2.3-5.13-5.13C98.235-78.584,100.536-80.885,103.365-80.885z M66.818-79.63
		c0-0.54,0.438-0.977,0.977-0.977h25.457c0.54,0,0.977,0.438,0.977,0.977v8.026c0,0.54-0.438,0.977-0.977,0.977H67.796
		c-0.54,0-0.977-0.438-0.977-0.977V-79.63z M57.684-80.885c2.828,0,5.13,2.3,5.13,5.129c0,2.829-2.301,5.13-5.13,5.13
		c-2.828,0-5.13-2.3-5.13-5.13C52.554-78.584,54.855-80.885,57.684-80.885z"/>
	<circle fill="none" cx="57.684" cy="-75.756" r="3.174"/>
	<rect x="53.724" y="-65.419" fill="none" width="7.405" height="10.135"/>
	<rect x="396.345" y="-116.227" fill="none" width="11.427" height="8.672"/>
	<rect x="374.92" y="-116.227" fill="none" width="6.121" height="8.672"/>
	<rect x="409.812" y="-116.227" fill="none" width="6.223" height="8.672"/>
	<rect x="375.065" y="-127.929" fill="none" width="41.175" height="3.907"/>
	<path fill="none" d="M416.618-57.903c6.039-15.873,10.95-23.762,13.047-27.131l0.167-0.269c1.167-1.878,2.411-3.015,3.333-3.672
		c-1.894-1.27-4.483-1.512-7.855-1.828c-2.166-0.203-4.62-0.432-7.406-0.977c-6.71-1.313-17.444-5.564-21.297-7.14v42.487
		c2.083-0.281,3.221-1.328,4.506-2.516c1.566-1.449,3.342-3.091,6.897-3.091c3.724,0,5.458,1.76,6.988,3.313
		c0.544,0.552,1.041,1.054,1.592,1.453C416.534-57.475,416.538-57.693,416.618-57.903z"/>
	<path fill="none" d="M374.838-129.969h41.894c0.009,0,0.018,0.003,0.027,0.003l2.116-2.72H372.03l2.24,2.89
		C374.432-129.906,374.627-129.969,374.838-129.969z"/>
	<path fill="none" d="M394.634-101.156c0.145-0.387,0.515-0.664,0.953-0.664c0.438,0,0.808,0.277,0.953,0.664
		c2.716,1.122,14.737,5.999,21.756,7.372c0.889,0.174,1.743,0.313,2.57,0.431v-28.629h-50.558v28.629
		c0.827-0.118,1.681-0.257,2.57-0.431C379.898-95.157,391.918-100.034,394.634-101.156z M372.879-118.268h45.197v12.753h-45.197
		V-118.268z"/>
	<path fill="none" d="M394.566-98.921c-3.853,1.575-14.587,5.827-21.297,7.14c-2.786,0.545-5.241,0.775-7.406,0.977
		c-3.373,0.316-5.962,0.558-7.856,1.828c0.922,0.658,2.166,1.795,3.333,3.672l0.167,0.269c2.097,3.369,7.009,11.258,13.047,27.131
		c0.12,0.314,0.071,0.649-0.098,0.912c1.002-0.482,1.772-1.191,2.602-1.959c1.566-1.449,3.342-3.091,6.897-3.091
		c3.724,0,5.458,1.76,6.988,3.313c1.112,1.129,2.028,2.053,3.622,2.301V-98.921z"/>
	<rect x="383.082" y="-116.227" fill="none" width="11.222" height="8.672"/>
	<path fill="none" d="M229.906-116.426c0.035-0.034,0.071-0.067,0.106-0.1c0.145-0.136,0.292-0.269,0.441-0.4
		c0.032-0.028,0.064-0.057,0.097-0.085c0.173-0.148,0.349-0.292,0.527-0.432c0.04-0.031,0.08-0.061,0.119-0.092
		c0.158-0.121,0.319-0.24,0.481-0.355c0.032-0.023,0.063-0.046,0.096-0.068c0.186-0.13,0.376-0.255,0.568-0.376
		c0.044-0.027,0.087-0.054,0.131-0.081c0.171-0.106,0.344-0.209,0.52-0.308c0.031-0.017,0.061-0.035,0.092-0.053
		c0.199-0.11,0.4-0.216,0.604-0.318c0.047-0.024,0.095-0.046,0.142-0.069c0.184-0.09,0.37-0.176,0.558-0.258
		c0.028-0.012,0.055-0.025,0.083-0.037c0.209-0.09,0.421-0.175,0.635-0.256c0.051-0.019,0.101-0.038,0.152-0.056
		c0.196-0.072,0.394-0.141,0.594-0.205c0.024-0.008,0.048-0.016,0.072-0.024c0.219-0.069,0.44-0.132,0.662-0.192
		c0.053-0.014,0.107-0.028,0.161-0.042c0.209-0.054,0.42-0.104,0.632-0.149c0.018-0.004,0.036-0.008,0.054-0.012
		c0.227-0.047,0.455-0.088,0.684-0.125c0.056-0.009,0.112-0.018,0.168-0.026c0.222-0.033,0.445-0.063,0.669-0.087
		c0.011-0.001,0.021-0.003,0.032-0.004c0.233-0.024,0.467-0.041,0.702-0.055c0.058-0.003,0.116-0.006,0.174-0.009
		c0.237-0.011,0.474-0.018,0.712-0.018c0.238,0,0.476,0.008,0.712,0.018c0.058,0.003,0.116,0.006,0.174,0.009
		c0.235,0.013,0.469,0.03,0.702,0.055c0.011,0.001,0.022,0.003,0.032,0.004c0.224,0.024,0.447,0.053,0.669,0.087
		c0.056,0.008,0.113,0.017,0.169,0.026c0.229,0.037,0.457,0.077,0.683,0.124c0.019,0.004,0.038,0.009,0.056,0.013
		c0.211,0.045,0.421,0.095,0.629,0.148c0.054,0.014,0.108,0.028,0.162,0.042c0.222,0.059,0.442,0.122,0.661,0.192
		c0.025,0.008,0.049,0.017,0.073,0.024c0.199,0.064,0.396,0.133,0.592,0.205c0.051,0.019,0.103,0.038,0.154,0.057
		c0.213,0.081,0.425,0.165,0.633,0.256c0.029,0.012,0.057,0.026,0.086,0.039c0.187,0.082,0.371,0.168,0.554,0.257
		c0.048,0.023,0.096,0.046,0.144,0.07c0.203,0.101,0.404,0.207,0.602,0.317c0.032,0.018,0.063,0.036,0.094,0.054
		c0.174,0.098,0.346,0.201,0.516,0.306c0.044,0.028,0.089,0.055,0.133,0.083c0.191,0.121,0.38,0.246,0.566,0.375
		c0.033,0.023,0.066,0.047,0.099,0.071c0.161,0.114,0.32,0.231,0.477,0.352c0.041,0.031,0.082,0.062,0.122,0.094
		c0.178,0.139,0.353,0.283,0.525,0.43c0.034,0.029,0.067,0.059,0.1,0.088c0.148,0.129,0.293,0.261,0.436,0.395
		c0.037,0.034,0.073,0.068,0.11,0.103c0.163,0.157,0.324,0.318,0.481,0.482c0.011,0.012,0.023,0.022,0.034,0.034
		c-1.419-4.835-5.895-8.375-11.183-8.375c-5.288,0-9.764,3.541-11.183,8.375c0.011-0.011,0.022-0.021,0.032-0.033
		C229.581-116.107,229.742-116.268,229.906-116.426z"/>
	<path fill="none" d="M225.85-109.842c-5.873-0.516-59.929-5.273-66.673-6.152c-1.175-0.153-1.641-0.028-1.788,0.033
		c0.077,1.052,3.67,4.548,6.221,5.398c2.853,0.951,44.311,5.975,61.815,8.041c-0.166-0.905-0.257-1.836-0.257-2.788
		C225.168-106.85,225.402-108.38,225.85-109.842z"/>
	<path fill="none" d="M297.783-102.56c-2.603,3.387,1.262,7.251,4.645,4.639C305.018-101.304,301.163-105.152,297.783-102.56z"/>
	<path fill="none" d="M252.336-111.661c-1.536-2.839-4.006-4.973-6.91-6.104c-0.138-0.054-0.278-0.105-0.418-0.155
		c-0.28-0.099-0.565-0.188-0.852-0.268c-0.431-0.12-0.87-0.218-1.315-0.295c-0.296-0.051-0.596-0.092-0.897-0.123
		c-0.452-0.046-0.909-0.07-1.37-0.07c-4.914,0-9.421,2.688-11.762,7.015c-1.048,1.938-1.603,4.133-1.603,6.351
		c0,7.37,5.996,13.365,13.365,13.365c7.37,0,13.365-5.996,13.365-13.365C253.939-107.528,253.385-109.723,252.336-111.661z
		 M240.676-100.821c-2.367,0-4.285-1.918-4.285-4.285c0-2.367,1.918-4.285,4.285-4.285c2.367,0,4.285,1.918,4.285,4.285
		C244.961-102.74,243.042-100.821,240.676-100.821z"/>
	<path fill="none" d="M322.121-115.994c-6.804,0.888-61.777,5.722-66.82,6.165c0.446,1.458,0.678,2.984,0.678,4.519
		c0,0.959-0.092,1.895-0.261,2.806c17.413-2.055,59.107-7.105,61.969-8.059c1.113-0.371,2.779-1.459,4.147-2.708
		c1.507-1.377,2.023-2.347,2.071-2.691C323.755-116.025,323.288-116.146,322.121-115.994z"/>
	<path fill="#0088FF" d="M57.684-70.627c2.828,0,5.13-2.3,5.13-5.13c0-2.828-2.301-5.129-5.13-5.129c-2.828,0-5.13,2.301-5.13,5.129
		C52.554-72.928,54.855-70.627,57.684-70.627z M57.684-78.93c1.75,0,3.175,1.423,3.175,3.174c0,1.751-1.424,3.175-3.175,3.175
		c-1.751,0-3.175-1.424-3.175-3.175C54.509-77.507,55.933-78.93,57.684-78.93z"/>
	<path fill="#0088FF" d="M103.365-70.627c2.827,0,5.127-2.3,5.127-5.13c0-2.828-2.3-5.129-5.127-5.129
		c-2.829,0-5.13,2.301-5.13,5.129C98.235-72.928,100.537-70.627,103.365-70.627z M103.365-78.93c1.75,0,3.172,1.423,3.172,3.174
		c0,1.751-1.423,3.175-3.172,3.175c-1.752,0-3.175-1.424-3.175-3.175C100.19-77.507,101.615-78.93,103.365-78.93z"/>
	<path fill="#0088FF" d="M176.471-103.979c-4.187,5.466,2.046,11.688,7.505,7.495C188.184-101.955,181.936-108.197,176.471-103.979z
		 M177.903-97.921c-2.591-3.384,1.265-7.231,4.645-4.639C185.151-99.173,181.286-95.31,177.903-97.921z"/>
	<path fill="#0088FF" d="M296.355-96.484c5.459,4.192,11.692-2.029,7.505-7.495C298.395-108.197,292.147-101.955,296.355-96.484z
		 M302.428-97.921c-3.383,2.611-7.248-1.252-4.645-4.639C301.163-105.152,305.018-101.304,302.428-97.921z"/>
	<path fill="#0088FF" d="M67.796-70.627h25.457c0.54,0,0.977-0.437,0.977-0.977v-8.026c0-0.54-0.438-0.977-0.977-0.977H67.796
		c-0.54,0-0.977,0.438-0.977,0.977v8.025C66.818-71.065,67.256-70.627,67.796-70.627z M85.222-72.582h-1.83v-6.071h1.83V-72.582z
		 M87.177-78.653h1.828v6.071h-1.828V-78.653z M81.437-72.582H79.61v-6.071h1.827V-72.582z M77.655-72.582h-1.828v-6.071h1.828
		V-72.582z M73.872-72.582h-1.829v-6.071h1.829V-72.582z M92.275-72.582H90.96v-6.071h1.315V-72.582z M68.773-78.653h1.315v6.071
		h-1.315V-78.653z"/>
	<path fill="#0088FF" d="M112.812-149.341H48.235c-4.472,0-8.111,3.638-8.111,8.111v40.869c0,4.472,3.638,8.111,8.111,8.111h2.266
		v4.801h-2.133c-0.54,0-0.977,0.438-0.977,0.977v20.077c0,0.54,0.438,0.977,0.977,0.977h3.401v11.112
		c0,0.54,0.438,0.977,0.977,0.977h9.36c0.54,0,0.977-0.437,0.977-0.977v-11.112h34.88v11.112c0,0.54,0.438,0.977,0.977,0.977h9.361
		c0.54,0,0.977-0.437,0.977-0.977v-11.112h3.401c0.54,0,0.977-0.437,0.977-0.977v-20.078c0-0.54-0.438-0.977-0.977-0.977h-2.133
		v-4.801h2.266c4.472,0,8.111-3.638,8.111-8.111v-40.869C120.923-145.703,117.285-149.341,112.812-149.341z M108.592-118.669H52.456
		v-4.837h56.136V-118.669z M61.129-55.284h-7.405v-10.135h7.405V-55.284z M107.324-55.284h-7.406v-10.135h7.406V-55.284z
		 M111.702-67.374H49.345v-18.122h62.357V-67.374z M97.061-87.451c-0.072-0.047-0.149-0.088-0.236-0.115l-14.872-4.671
		c-0.513-0.162-1.063,0.124-1.225,0.64c-0.162,0.515,0.124,1.063,0.64,1.225l9.302,2.921H79.189
		c-0.072-0.047-0.149-0.088-0.236-0.115l-14.869-4.671c-0.516-0.162-1.063,0.124-1.225,0.639c-0.162,0.515,0.124,1.063,0.64,1.225
		l9.301,2.921H52.456v-29.263h56.136v29.263H97.061z M112.812-94.292h-2.266v-23.399v-0.977v-6.792H50.501v6.792v0.977v23.399
		h-2.266c-3.347,0-6.07-2.723-6.07-6.07v-37.145h76.718v37.145C118.883-97.015,116.159-94.292,112.812-94.292z M118.883-139.547
		H42.165v-1.684c0-3.347,2.723-6.07,6.07-6.07h64.577c3.347,0,6.07,2.723,6.07,6.07V-139.547z"/>
	<circle fill="#0088FF" cx="81.013" cy="-143.424" r="1.753"/>
	<circle fill="#0088FF" cx="75.043" cy="-143.424" r="1.753"/>
	<circle fill="#0088FF" cx="86.983" cy="-143.424" r="1.753"/>
	<circle fill="#0088FF" cx="240.676" cy="-105.106" r="4.285"/>
	<path fill="#0088FF" d="M321.857-118.018c-6.938,0.905-66.426,6.129-67.026,6.181c-0.095,0.008-0.184,0.034-0.269,0.066
		c-0.096-0.207-0.197-0.411-0.302-0.614c0.002-0.083,0.006-0.165,0.006-0.248c0-2.96-0.947-5.702-2.551-7.944l18.356-2.085
		c0.56-0.064,0.962-0.569,0.899-1.129c-0.063-0.56-0.569-0.961-1.129-0.899l-19.735,2.241c-2.215-2.152-5.153-3.562-8.411-3.828
		v-17.149c0-0.563-0.457-1.02-1.02-1.02c-0.563,0-1.02,0.457-1.02,1.02v17.133c-3.34,0.222-6.354,1.646-8.616,3.844l-19.741-2.242
		c-0.558-0.062-1.065,0.339-1.129,0.899c-0.064,0.56,0.339,1.065,0.899,1.129l18.363,2.085c-1.603,2.242-2.55,4.983-2.55,7.943
		c0,0.082,0.004,0.166,0.006,0.248c-0.098,0.19-0.193,0.381-0.283,0.574c-0.045-0.01-0.09-0.022-0.137-0.026
		c-0.6-0.053-60.088-5.276-67.026-6.181c-2.377-0.31-3.736,0.206-4.041,1.533c-0.6,2.611,4.773,6.926,7.565,7.857
		c3.572,1.191,56.401,7.445,63.008,8.224c2.054,6.095,7.821,10.498,14.6,10.498c6.772,0,12.534-4.394,14.593-10.48
		c5.872-0.692,59.564-7.042,63.166-8.243c2.792-0.931,8.165-5.246,7.565-7.857C325.593-117.812,324.234-118.328,321.857-118.018z
		 M240.574-124.284c5.288,0,9.764,3.541,11.183,8.375c-0.011-0.012-0.023-0.022-0.034-0.034c-0.157-0.164-0.317-0.325-0.481-0.482
		c-0.036-0.035-0.073-0.069-0.11-0.103c-0.143-0.135-0.288-0.267-0.436-0.395c-0.034-0.029-0.067-0.059-0.1-0.088
		c-0.172-0.147-0.347-0.291-0.525-0.43c-0.04-0.032-0.082-0.063-0.122-0.094c-0.157-0.12-0.316-0.238-0.477-0.352
		c-0.033-0.023-0.066-0.048-0.099-0.071c-0.186-0.129-0.375-0.254-0.566-0.375c-0.044-0.028-0.089-0.055-0.133-0.083
		c-0.17-0.105-0.342-0.207-0.516-0.306c-0.032-0.018-0.063-0.036-0.094-0.054c-0.198-0.11-0.399-0.215-0.602-0.317
		c-0.048-0.024-0.096-0.047-0.144-0.07c-0.183-0.089-0.368-0.175-0.554-0.257c-0.029-0.013-0.057-0.026-0.086-0.039
		c-0.209-0.09-0.42-0.175-0.633-0.256c-0.051-0.019-0.102-0.038-0.154-0.057c-0.196-0.072-0.393-0.141-0.592-0.205
		c-0.025-0.008-0.049-0.017-0.073-0.024c-0.218-0.069-0.439-0.132-0.661-0.192c-0.054-0.014-0.108-0.028-0.162-0.042
		c-0.208-0.053-0.418-0.103-0.629-0.148c-0.019-0.004-0.038-0.009-0.056-0.013c-0.226-0.047-0.454-0.088-0.683-0.124
		c-0.056-0.009-0.112-0.018-0.169-0.026c-0.222-0.033-0.445-0.063-0.669-0.087c-0.011-0.001-0.021-0.003-0.032-0.004
		c-0.233-0.024-0.467-0.041-0.702-0.055c-0.058-0.003-0.116-0.006-0.174-0.009c-0.237-0.011-0.474-0.018-0.712-0.018
		c-0.238,0-0.476,0.008-0.712,0.018c-0.058,0.003-0.116,0.006-0.174,0.009c-0.235,0.013-0.469,0.03-0.702,0.055
		c-0.011,0.001-0.021,0.003-0.032,0.004c-0.224,0.024-0.447,0.053-0.669,0.087c-0.056,0.008-0.112,0.017-0.168,0.026
		c-0.229,0.037-0.458,0.078-0.684,0.125c-0.018,0.004-0.036,0.008-0.054,0.012c-0.212,0.045-0.422,0.095-0.632,0.149
		c-0.054,0.014-0.107,0.027-0.161,0.042c-0.222,0.059-0.443,0.123-0.662,0.192c-0.024,0.008-0.048,0.016-0.072,0.024
		c-0.2,0.064-0.397,0.133-0.594,0.205c-0.051,0.019-0.102,0.037-0.152,0.056c-0.214,0.081-0.425,0.166-0.635,0.256
		c-0.028,0.012-0.055,0.025-0.083,0.037c-0.188,0.082-0.373,0.169-0.558,0.258c-0.047,0.023-0.095,0.046-0.142,0.069
		c-0.203,0.102-0.405,0.207-0.604,0.318c-0.031,0.017-0.061,0.035-0.092,0.053c-0.175,0.099-0.348,0.202-0.52,0.308
		c-0.044,0.027-0.088,0.054-0.131,0.081c-0.192,0.121-0.381,0.246-0.568,0.376c-0.032,0.022-0.064,0.046-0.096,0.068
		c-0.163,0.115-0.323,0.233-0.481,0.355c-0.04,0.031-0.08,0.061-0.119,0.092c-0.179,0.14-0.355,0.284-0.527,0.432
		c-0.033,0.028-0.065,0.057-0.097,0.085c-0.149,0.13-0.296,0.263-0.441,0.4c-0.035,0.033-0.071,0.066-0.106,0.1
		c-0.164,0.158-0.325,0.319-0.483,0.484c-0.011,0.011-0.022,0.021-0.032,0.033C230.81-120.744,235.286-124.284,240.574-124.284z
		 M163.611-110.564c-2.551-0.85-6.144-4.345-6.221-5.398c0.147-0.061,0.612-0.186,1.788-0.033c6.744,0.88,60.8,5.636,66.673,6.152
		c-0.449,1.462-0.682,2.992-0.682,4.531c0,0.952,0.091,1.883,0.257,2.788C207.922-104.589,166.464-109.612,163.611-110.564z
		 M240.574-91.945c-7.37,0-13.365-5.996-13.365-13.365c0-2.217,0.554-4.413,1.603-6.351c2.341-4.327,6.848-7.015,11.762-7.015
		c0.461,0,0.918,0.024,1.37,0.07c0.301,0.031,0.601,0.072,0.897,0.123c0.445,0.076,0.883,0.175,1.315,0.295
		c0.288,0.08,0.572,0.169,0.852,0.268c0.14,0.049,0.28,0.101,0.418,0.155c2.905,1.131,5.374,3.265,6.91,6.104
		c1.049,1.938,1.603,4.133,1.603,6.351C253.939-97.941,247.943-91.945,240.574-91.945z M321.834-113.272
		c-1.367,1.249-3.034,2.337-4.147,2.708c-2.862,0.954-44.556,6.004-61.969,8.059c0.168-0.911,0.261-1.847,0.261-2.806
		c0-1.534-0.232-3.06-0.678-4.519c5.043-0.443,60.016-5.278,66.82-6.165c1.167-0.152,1.634-0.03,1.784,0.031
		C323.857-115.619,323.341-114.648,321.834-113.272z"/>
	<path fill="#0088FF" d="M201.715-102.686c-3.391,0-6.149,2.759-6.149,6.149c0,3.391,2.759,6.149,6.149,6.149
		c3.391,0,6.149-2.759,6.149-6.149C207.864-99.927,205.106-102.686,201.715-102.686z M201.715-92.428
		c-2.266,0-4.109-1.843-4.109-4.109c0-2.266,1.843-4.109,4.109-4.109c2.266,0,4.109,1.843,4.109,4.109
		C205.824-94.271,203.981-92.428,201.715-92.428z"/>
	<path fill="#0088FF" d="M278.601-102.686c-3.391,0-6.149,2.759-6.149,6.149c0,3.391,2.759,6.149,6.149,6.149
		c3.391,0,6.149-2.759,6.149-6.149C284.751-99.927,281.992-102.686,278.601-102.686z M278.601-92.428
		c-2.266,0-4.109-1.843-4.109-4.109c0-2.266,1.843-4.109,4.109-4.109c2.266,0,4.109,1.843,4.109,4.109
		C282.71-94.271,280.867-92.428,278.601-92.428z"/>
	<path fill="#0088FF" d="M443.56-56.358c-2.175,0-3.206-1.046-4.51-2.369c-1.53-1.553-3.264-3.313-6.988-3.313
		c-3.555,0-5.33,1.642-6.897,3.091c-1.504,1.391-2.803,2.592-5.658,2.592c-0.607,0-1.122-0.084-1.582-0.23
		c0.266-0.099,0.491-0.304,0.599-0.59c5.969-15.688,10.807-23.46,12.873-26.779l0.168-0.27c1.784-2.87,3.698-3.628,3.708-3.632
		l1.473-0.53l-1.08-1.133c-2.47-2.594-5.866-2.912-10.166-3.314c-0.822-0.077-1.687-0.158-2.594-0.259v-30.928h-4.626v-4.577
		l4.767-6.128h-26.242v-16.821c0-0.563-0.457-1.02-1.02-1.02c-0.564,0-1.02,0.457-1.02,1.02v16.821h-5.823v-9.024
		c0-0.563-0.457-1.02-1.02-1.02c-0.564,0-1.02,0.457-1.02,1.02v9.024h-19.035l5.158,6.656v4.049h-4.758v30.928
		c-0.907,0.101-1.772,0.182-2.594,0.259c-4.3,0.402-7.696,0.72-10.166,3.314l-1.089,1.13l1.473,0.53
		c0.019,0.007,1.933,0.765,3.717,3.635l0.168,0.27c2.066,3.319,6.904,11.09,12.872,26.778c0.114,0.301,0.356,0.515,0.64,0.607
		c-0.549,0.136-1.169,0.212-1.887,0.212c-2.175,0-3.205-1.046-4.51-2.369c-1.53-1.553-3.264-3.313-6.988-3.313
		c-3.555,0-5.33,1.642-6.897,3.091c-1.504,1.391-2.803,2.592-5.658,2.592c-0.564,0-1.02,0.457-1.02,1.02s0.457,1.02,1.02,1.02
		c3.654,0,5.455-1.665,7.044-3.135c1.479-1.367,2.755-2.548,5.511-2.548c2.87,0,4.104,1.253,5.535,2.705
		c1.375,1.396,2.934,2.978,5.963,2.978c3.654,0,5.455-1.665,7.044-3.135c1.479-1.367,2.755-2.548,5.511-2.548
		c2.87,0,4.104,1.253,5.534,2.705c1.375,1.396,2.934,2.978,5.963,2.978c3.654,0,5.455-1.665,7.044-3.135
		c1.479-1.367,2.755-2.548,5.511-2.548c2.87,0,4.104,1.253,5.534,2.705c1.375,1.396,2.934,2.978,5.963,2.978
		c3.654,0,5.455-1.665,7.043-3.135c1.478-1.367,2.755-2.548,5.511-2.548c2.87,0,4.104,1.253,5.535,2.705
		c1.375,1.396,2.934,2.978,5.963,2.978c0.564,0,1.02-0.457,1.02-1.02S444.123-56.358,443.56-56.358z M372.03-132.686h46.845
		l-2.116,2.72c-0.009,0-0.018-0.003-0.027-0.003h-41.894c-0.21,0-0.406,0.064-0.568,0.173L372.03-132.686z M375.065-127.929h41.175
		v3.907h-41.175V-127.929z M370.307-121.982h50.558v28.629c-0.826-0.118-1.681-0.257-2.57-0.431
		c-7.019-1.373-19.041-6.25-21.756-7.372c-0.145-0.387-0.515-0.664-0.953-0.664c-0.438,0-0.808,0.277-0.953,0.664
		c-2.715,1.122-14.736,5.999-21.756,7.372c-0.889,0.174-1.744,0.313-2.57,0.431V-121.982z M390.945-58.727
		c-1.53-1.553-3.264-3.313-6.988-3.313c-3.555,0-5.33,1.642-6.897,3.091c-0.831,0.768-1.6,1.477-2.602,1.959
		c0.168-0.263,0.217-0.598,0.098-0.912c-6.038-15.873-10.95-23.762-13.047-27.131l-0.167-0.269
		c-1.167-1.878-2.411-3.015-3.333-3.672c1.894-1.27,4.483-1.512,7.856-1.828c2.166-0.203,4.62-0.432,7.406-0.977
		c6.71-1.313,17.444-5.564,21.297-7.14v42.495C392.972-56.674,392.057-57.598,390.945-58.727z M414.997-58.727
		c-1.53-1.553-3.264-3.313-6.988-3.313c-3.555,0-5.33,1.642-6.897,3.091c-1.285,1.188-2.423,2.235-4.506,2.516v-42.487
		c3.853,1.575,14.587,5.827,21.297,7.14c2.786,0.545,5.241,0.775,7.406,0.977c3.373,0.316,5.962,0.558,7.855,1.828
		c-0.922,0.658-2.166,1.795-3.333,3.672l-0.167,0.269c-2.097,3.369-7.009,11.258-13.047,27.131c-0.08,0.21-0.083,0.428-0.029,0.629
		C416.038-57.673,415.541-58.175,414.997-58.727z"/>
	<path fill="#0088FF" d="M418.076-118.268h-45.197v12.753h45.197V-118.268z M396.345-116.227h11.427v8.672h-11.427V-116.227z
		 M394.304-107.555h-11.222v-8.672h11.222V-107.555z M374.92-116.227h6.121v8.672h-6.121V-116.227z M416.036-107.555h-6.223v-8.672
		h6.223V-107.555z"/>
</g>
<rect x="31.667" y="8" fill="none" stroke="#0088FF" stroke-width="2" stroke-miterlimit="10" width="410.333" height="83.333"/>
<g>
	<path fill="#0088FF" d="M57.074,71.127l2.617-9.772c0.44-1.644,1.613-2.5,3.42-2.5h3.544c1.781,0,2.979,0.856,3.42,2.5l2.618,9.772
		c0.149,0.556-0.18,1.125-0.735,1.271c-0.555,0.152-1.125-0.18-1.273-0.735l-2.469-8.818H67.48l3.754,13.411h-3.254v9.935
		c0,0.718-0.58,1.299-1.296,1.299c-0.718,0-1.299-0.58-1.299-1.299v-9.935h-1.002v9.935c0,0.718-0.583,1.299-1.299,1.299
		s-1.296-0.58-1.296-1.299v-9.935h-3.257l3.756-13.411h-0.735l-2.469,8.818c-0.149,0.556-0.721,0.887-1.277,0.735
		C57.253,72.252,56.925,71.683,57.074,71.127"/>
	<path fill="#0088FF" d="M64.884,58.19c-1.714,0-3.104-1.388-3.104-3.1c0-1.714,1.389-3.103,3.104-3.103
		c1.711,0,3.097,1.388,3.097,3.103C67.982,56.801,66.595,58.19,64.884,58.19"/>
</g>
<g>
	<path fill="#0088FF" d="M46.615,58.31c1.712,0,3.099-1.387,3.099-3.1c0-1.715-1.387-3.102-3.099-3.102
		c-1.715,0-3.102,1.387-3.102,3.102C43.513,56.923,44.901,58.31,46.615,58.31"/>
	<path fill="#0088FF" d="M53.856,63.118c-0.01-2.305-1.881-4.168-4.188-4.168h-6.109c-2.304,0-4.174,1.864-4.188,4.168v8.214
		c0,0.738,0.599,1.337,1.338,1.337c0.738,0,1.337-0.599,1.337-1.337V63.73h0.639v21.653c0,0.99,0.804,1.794,1.794,1.794
		c0.99,0,1.795-0.804,1.795-1.794V72.656h0.678v12.727c0,0.99,0.805,1.794,1.795,1.794c0.993,0,1.798-0.804,1.798-1.794V63.73h0.639
		v7.602c0,0.738,0.596,1.337,1.337,1.337c0.738,0,1.337-0.599,1.337-1.337v-8.205L53.856,63.118"/>
</g>
<g>
	<path fill="#0088FF" d="M92.954,71.127l2.617-9.772c0.44-1.644,1.613-2.5,3.42-2.5h3.544c1.781,0,2.979,0.856,3.42,2.5l2.618,9.772
		c0.149,0.556-0.18,1.125-0.735,1.271c-0.555,0.152-1.125-0.18-1.273-0.735l-2.469-8.818h-0.735l3.754,13.411h-3.254v9.935
		c0,0.718-0.58,1.299-1.296,1.299c-0.718,0-1.299-0.58-1.299-1.299v-9.935h-1.002v9.935c0,0.718-0.583,1.299-1.299,1.299
		s-1.296-0.58-1.296-1.299v-9.935H94.41l3.756-13.411h-0.735l-2.469,8.818c-0.149,0.556-0.721,0.887-1.277,0.735
		C93.134,72.252,92.806,71.683,92.954,71.127"/>
	<path fill="#0088FF" d="M100.765,58.19c-1.714,0-3.104-1.388-3.104-3.1c0-1.714,1.389-3.103,3.104-3.103
		c1.711,0,3.097,1.388,3.097,3.103C103.862,56.801,102.476,58.19,100.765,58.19"/>
</g>
<g>
	<path fill="#0088FF" d="M82.496,58.31c1.712,0,3.099-1.387,3.099-3.1c0-1.715-1.387-3.102-3.099-3.102
		c-1.715,0-3.102,1.387-3.102,3.102C79.394,56.923,80.781,58.31,82.496,58.31"/>
	<path fill="#0088FF" d="M89.737,63.118c-0.01-2.305-1.881-4.168-4.188-4.168H79.44c-2.304,0-4.174,1.864-4.188,4.168v8.214
		c0,0.738,0.599,1.337,1.338,1.337c0.738,0,1.337-0.599,1.337-1.337V63.73h0.639v21.653c0,0.99,0.804,1.794,1.794,1.794
		c0.99,0,1.795-0.804,1.795-1.794V72.656h0.678v12.727c0,0.99,0.805,1.794,1.795,1.794c0.993,0,1.798-0.804,1.798-1.794V63.73h0.639
		v7.602c0,0.738,0.596,1.337,1.337,1.337c0.738,0,1.337-0.599,1.337-1.337v-8.205L89.737,63.118"/>
</g>
<g>
	<path fill="#0088FF" d="M128.835,71.127l2.617-9.772c0.44-1.644,1.613-2.5,3.42-2.5h3.544c1.781,0,2.979,0.856,3.42,2.5
		l2.618,9.772c0.149,0.556-0.18,1.125-0.735,1.271c-0.555,0.152-1.125-0.18-1.273-0.735l-2.469-8.818h-0.735l3.754,13.411h-3.254
		v9.935c0,0.718-0.58,1.299-1.296,1.299c-0.718,0-1.299-0.58-1.299-1.299v-9.935h-1.002v9.935c0,0.718-0.583,1.299-1.299,1.299
		s-1.296-0.58-1.296-1.299v-9.935h-3.257l3.756-13.411h-0.735l-2.469,8.818c-0.149,0.556-0.721,0.887-1.277,0.735
		C129.015,72.252,128.686,71.683,128.835,71.127"/>
	<path fill="#0088FF" d="M136.646,58.19c-1.714,0-3.104-1.388-3.104-3.1c0-1.714,1.389-3.103,3.104-3.103
		c1.711,0,3.097,1.388,3.097,3.103C139.743,56.801,138.357,58.19,136.646,58.19"/>
</g>
<g>
	<path fill="#0088FF" d="M118.377,58.31c1.712,0,3.099-1.387,3.099-3.1c0-1.715-1.387-3.102-3.099-3.102
		c-1.715,0-3.102,1.387-3.102,3.102C115.275,56.923,116.662,58.31,118.377,58.31"/>
	<path fill="#0088FF" d="M125.618,63.118c-0.01-2.305-1.881-4.168-4.188-4.168h-6.109c-2.304,0-4.174,1.864-4.188,4.168v8.214
		c0,0.738,0.599,1.337,1.338,1.337c0.738,0,1.337-0.599,1.337-1.337V63.73h0.639v21.653c0,0.99,0.804,1.794,1.794,1.794
		c0.99,0,1.795-0.804,1.795-1.794V72.656h0.678v12.727c0,0.99,0.805,1.794,1.795,1.794c0.993,0,1.798-0.804,1.798-1.794V63.73h0.639
		v7.602c0,0.738,0.596,1.337,1.337,1.337c0.738,0,1.337-0.599,1.337-1.337v-8.205L125.618,63.118"/>
</g>
<g>
	<path fill="#0088FF" d="M164.716,71.127l2.617-9.772c0.44-1.644,1.613-2.5,3.42-2.5h3.544c1.781,0,2.979,0.856,3.42,2.5
		l2.618,9.772c0.149,0.556-0.18,1.125-0.735,1.271c-0.555,0.152-1.125-0.18-1.273-0.735l-2.469-8.818h-0.735l3.754,13.411h-3.254
		v9.935c0,0.718-0.58,1.299-1.296,1.299c-0.718,0-1.299-0.58-1.299-1.299v-9.935h-1.002v9.935c0,0.718-0.583,1.299-1.299,1.299
		s-1.296-0.58-1.296-1.299v-9.935h-3.257l3.756-13.411h-0.735l-2.469,8.818c-0.149,0.556-0.721,0.887-1.277,0.735
		C164.895,72.252,164.567,71.683,164.716,71.127"/>
	<path fill="#0088FF" d="M172.527,58.19c-1.714,0-3.104-1.388-3.104-3.1c0-1.714,1.389-3.103,3.104-3.103
		c1.711,0,3.097,1.388,3.097,3.103C175.624,56.801,174.238,58.19,172.527,58.19"/>
</g>
<g>
	<path fill="#0088FF" d="M154.257,58.31c1.712,0,3.099-1.387,3.099-3.1c0-1.715-1.387-3.102-3.099-3.102
		c-1.715,0-3.102,1.387-3.102,3.102C151.155,56.923,152.543,58.31,154.257,58.31"/>
	<path fill="#0088FF" d="M161.498,63.118c-0.01-2.305-1.881-4.168-4.188-4.168h-6.109c-2.304,0-4.174,1.864-4.188,4.168v8.214
		c0,0.738,0.599,1.337,1.338,1.337s1.337-0.599,1.337-1.337V63.73h0.639v21.653c0,0.99,0.804,1.794,1.794,1.794
		s1.795-0.804,1.795-1.794V72.656h0.678v12.727c0,0.99,0.805,1.794,1.795,1.794c0.993,0,1.798-0.804,1.798-1.794V63.73h0.639v7.602
		c0,0.738,0.596,1.337,1.337,1.337c0.738,0,1.337-0.599,1.337-1.337v-8.205L161.498,63.118"/>
</g>
<g>
	<path fill="#0088FF" d="M200.597,71.127l2.617-9.772c0.44-1.644,1.613-2.5,3.42-2.5h3.544c1.781,0,2.979,0.856,3.42,2.5
		l2.618,9.772c0.149,0.556-0.18,1.125-0.735,1.271c-0.555,0.152-1.125-0.18-1.273-0.735l-2.469-8.818h-0.735l3.754,13.411h-3.254
		v9.935c0,0.718-0.58,1.299-1.296,1.299c-0.718,0-1.299-0.58-1.299-1.299v-9.935h-1.002v9.935c0,0.718-0.583,1.299-1.299,1.299
		s-1.296-0.58-1.296-1.299v-9.935h-3.257l3.756-13.411h-0.735l-2.469,8.818c-0.149,0.556-0.721,0.887-1.277,0.735
		C200.776,72.252,200.448,71.683,200.597,71.127"/>
	<path fill="#0088FF" d="M208.407,58.19c-1.714,0-3.104-1.388-3.104-3.1c0-1.714,1.389-3.103,3.104-3.103
		c1.711,0,3.097,1.388,3.097,3.103C211.505,56.801,210.118,58.19,208.407,58.19"/>
</g>
<g>
	<path fill="#0088FF" d="M190.138,58.31c1.712,0,3.099-1.387,3.099-3.1c0-1.715-1.387-3.102-3.099-3.102
		c-1.715,0-3.102,1.387-3.102,3.102C187.036,56.923,188.424,58.31,190.138,58.31"/>
	<path fill="#0088FF" d="M197.379,63.118c-0.01-2.305-1.881-4.168-4.188-4.168h-6.109c-2.304,0-4.174,1.864-4.188,4.168v8.214
		c0,0.738,0.599,1.337,1.338,1.337s1.337-0.599,1.337-1.337V63.73h0.639v21.653c0,0.99,0.804,1.794,1.794,1.794
		s1.795-0.804,1.795-1.794V72.656h0.678v12.727c0,0.99,0.805,1.794,1.795,1.794c0.993,0,1.798-0.804,1.798-1.794V63.73h0.639v7.602
		c0,0.738,0.596,1.337,1.337,1.337c0.738,0,1.337-0.599,1.337-1.337v-8.205L197.379,63.118"/>
</g>
<g>
	<path fill="#0088FF" d="M236.477,71.127l2.617-9.772c0.44-1.644,1.613-2.5,3.42-2.5h3.544c1.781,0,2.979,0.856,3.42,2.5
		l2.618,9.772c0.149,0.556-0.18,1.125-0.735,1.271c-0.555,0.152-1.125-0.18-1.273-0.735l-2.469-8.818h-0.735l3.754,13.411h-3.254
		v9.935c0,0.718-0.58,1.299-1.296,1.299c-0.718,0-1.299-0.58-1.299-1.299v-9.935h-1.002v9.935c0,0.718-0.583,1.299-1.299,1.299
		s-1.296-0.58-1.296-1.299v-9.935h-3.257l3.756-13.411h-0.735l-2.469,8.818c-0.149,0.556-0.721,0.887-1.277,0.735
		C236.657,72.252,236.329,71.683,236.477,71.127"/>
	<path fill="#0088FF" d="M244.288,58.19c-1.714,0-3.104-1.388-3.104-3.1c0-1.714,1.389-3.103,3.104-3.103
		c1.711,0,3.097,1.388,3.097,3.103C247.385,56.801,245.999,58.19,244.288,58.19"/>
</g>
<g>
	<path fill="#0088FF" d="M226.019,58.31c1.712,0,3.099-1.387,3.099-3.1c0-1.715-1.387-3.102-3.099-3.102
		c-1.715,0-3.102,1.387-3.102,3.102C222.917,56.923,224.304,58.31,226.019,58.31"/>
	<path fill="#0088FF" d="M233.26,63.118c-0.01-2.305-1.881-4.168-4.188-4.168h-6.109c-2.304,0-4.174,1.864-4.188,4.168v8.214
		c0,0.738,0.599,1.337,1.338,1.337s1.337-0.599,1.337-1.337V63.73h0.639v21.653c0,0.99,0.804,1.794,1.794,1.794
		s1.795-0.804,1.795-1.794V72.656h0.678v12.727c0,0.99,0.805,1.794,1.795,1.794c0.993,0,1.798-0.804,1.798-1.794V63.73h0.639v7.602
		c0,0.738,0.596,1.337,1.337,1.337c0.738,0,1.337-0.599,1.337-1.337v-8.205L233.26,63.118"/>
</g>
<g>
	<path fill="#0088FF" d="M272.358,71.127l2.617-9.772c0.44-1.644,1.613-2.5,3.42-2.5h3.544c1.781,0,2.979,0.856,3.42,2.5
		l2.618,9.772c0.149,0.556-0.18,1.125-0.736,1.271c-0.555,0.152-1.125-0.18-1.273-0.735l-2.469-8.818h-0.735l3.754,13.411h-3.254
		v9.935c0,0.718-0.58,1.299-1.296,1.299c-0.718,0-1.299-0.58-1.299-1.299v-9.935h-1.002v9.935c0,0.718-0.583,1.299-1.299,1.299
		c-0.715,0-1.296-0.58-1.296-1.299v-9.935h-3.257l3.756-13.411h-0.735l-2.469,8.818c-0.149,0.556-0.721,0.887-1.277,0.735
		C272.538,72.252,272.209,71.683,272.358,71.127"/>
	<path fill="#0088FF" d="M280.169,58.19c-1.714,0-3.104-1.388-3.104-3.1c0-1.714,1.389-3.103,3.104-3.103
		c1.711,0,3.097,1.388,3.097,3.103C283.266,56.801,281.88,58.19,280.169,58.19"/>
</g>
<g>
	<path fill="#0088FF" d="M261.9,58.31c1.712,0,3.099-1.387,3.099-3.1c0-1.715-1.387-3.102-3.099-3.102
		c-1.715,0-3.102,1.387-3.102,3.102C258.798,56.923,260.185,58.31,261.9,58.31"/>
	<path fill="#0088FF" d="M269.141,63.118c-0.01-2.305-1.881-4.168-4.188-4.168h-6.109c-2.304,0-4.174,1.864-4.188,4.168v8.214
		c0,0.738,0.599,1.337,1.338,1.337c0.738,0,1.337-0.599,1.337-1.337V63.73h0.639v21.653c0,0.99,0.804,1.794,1.794,1.794
		c0.99,0,1.795-0.804,1.795-1.794V72.656h0.678v12.727c0,0.99,0.805,1.794,1.795,1.794c0.993,0,1.798-0.804,1.798-1.794V63.73h0.639
		v7.602c0,0.738,0.596,1.337,1.337,1.337c0.738,0,1.337-0.599,1.337-1.337v-8.205L269.141,63.118"/>
</g>
<g>
	<path fill="#0088FF" d="M289.92,71.127l2.617-9.772c0.44-1.644,1.613-2.5,3.42-2.5h3.544c1.781,0,2.979,0.856,3.42,2.5l2.618,9.772
		c0.149,0.556-0.18,1.125-0.735,1.271c-0.555,0.152-1.125-0.18-1.273-0.735l-2.469-8.818h-0.735l3.754,13.411h-3.254v9.935
		c0,0.718-0.58,1.299-1.296,1.299c-0.718,0-1.299-0.58-1.299-1.299v-9.935h-1.002v9.935c0,0.718-0.583,1.299-1.299,1.299
		c-0.715,0-1.296-0.58-1.296-1.299v-9.935h-3.257l3.756-13.411h-0.735l-2.469,8.818c-0.149,0.556-0.721,0.887-1.277,0.735
		C290.099,72.252,289.771,71.683,289.92,71.127"/>
	<path fill="#0088FF" d="M297.731,58.19c-1.714,0-3.104-1.388-3.104-3.1c0-1.714,1.389-3.103,3.104-3.103
		c1.711,0,3.097,1.388,3.097,3.103C300.828,56.801,299.441,58.19,297.731,58.19"/>
</g>
<g>
	<path fill="#0088FF" d="M325.8,71.127l2.617-9.772c0.44-1.644,1.613-2.5,3.42-2.5h3.544c1.781,0,2.979,0.856,3.42,2.5l2.618,9.772
		c0.149,0.556-0.18,1.125-0.735,1.271c-0.555,0.152-1.125-0.18-1.273-0.735l-2.469-8.818h-0.735l3.754,13.411h-3.254v9.935
		c0,0.718-0.58,1.299-1.296,1.299c-0.718,0-1.299-0.58-1.299-1.299v-9.935h-1.002v9.935c0,0.718-0.583,1.299-1.299,1.299
		c-0.715,0-1.296-0.58-1.296-1.299v-9.935h-3.257l3.756-13.411h-0.735l-2.469,8.818c-0.149,0.556-0.721,0.887-1.277,0.735
		C325.98,72.252,325.652,71.683,325.8,71.127"/>
	<path fill="#0088FF" d="M333.611,58.19c-1.714,0-3.104-1.388-3.104-3.1c0-1.714,1.389-3.103,3.104-3.103
		c1.711,0,3.097,1.388,3.097,3.103C336.708,56.801,335.322,58.19,333.611,58.19"/>
</g>
<g>
	<path fill="#0088FF" d="M315.342,58.31c1.712,0,3.099-1.387,3.099-3.1c0-1.715-1.387-3.102-3.099-3.102
		c-1.715,0-3.102,1.387-3.102,3.102C312.24,56.923,313.627,58.31,315.342,58.31"/>
	<path fill="#0088FF" d="M322.583,63.118c-0.01-2.305-1.881-4.168-4.188-4.168h-6.109c-2.304,0-4.174,1.864-4.188,4.168v8.214
		c0,0.738,0.599,1.337,1.337,1.337c0.738,0,1.337-0.599,1.337-1.337V63.73h0.639v21.653c0,0.99,0.804,1.794,1.794,1.794
		c0.99,0,1.795-0.804,1.795-1.794V72.656h0.678v12.727c0,0.99,0.805,1.794,1.795,1.794c0.993,0,1.798-0.804,1.798-1.794V63.73h0.639
		v7.602c0,0.738,0.596,1.337,1.337,1.337c0.738,0,1.337-0.599,1.337-1.337v-8.205L322.583,63.118"/>
</g>
<g>
	<path fill="#0088FF" d="M361.681,71.127l2.617-9.772c0.44-1.644,1.613-2.5,3.42-2.5h3.544c1.781,0,2.979,0.856,3.42,2.5
		l2.618,9.772c0.149,0.556-0.18,1.125-0.735,1.271c-0.555,0.152-1.125-0.18-1.273-0.735l-2.469-8.818h-0.735l3.754,13.411h-3.254
		v9.935c0,0.718-0.58,1.299-1.296,1.299c-0.718,0-1.299-0.58-1.299-1.299v-9.935h-1.002v9.935c0,0.718-0.583,1.299-1.299,1.299
		c-0.715,0-1.296-0.58-1.296-1.299v-9.935h-3.257l3.756-13.411h-0.735l-2.469,8.818c-0.149,0.556-0.721,0.887-1.277,0.735
		C361.861,72.252,361.533,71.683,361.681,71.127"/>
	<path fill="#0088FF" d="M369.492,58.19c-1.714,0-3.104-1.388-3.104-3.1c0-1.714,1.389-3.103,3.104-3.103
		c1.711,0,3.097,1.388,3.097,3.103C372.589,56.801,371.203,58.19,369.492,58.19"/>
</g>
<g>
	<path fill="#0088FF" d="M351.223,58.31c1.712,0,3.099-1.387,3.099-3.1c0-1.715-1.387-3.102-3.099-3.102
		c-1.715,0-3.102,1.387-3.102,3.102C348.121,56.923,349.508,58.31,351.223,58.31"/>
	<path fill="#0088FF" d="M358.464,63.118c-0.01-2.305-1.881-4.168-4.188-4.168h-6.109c-2.304,0-4.174,1.864-4.188,4.168v8.214
		c0,0.738,0.599,1.337,1.337,1.337c0.738,0,1.337-0.599,1.337-1.337V63.73h0.639v21.653c0,0.99,0.804,1.794,1.794,1.794
		c0.99,0,1.795-0.804,1.795-1.794V72.656h0.678v12.727c0,0.99,0.805,1.794,1.795,1.794c0.993,0,1.798-0.804,1.798-1.794V63.73h0.639
		v7.602c0,0.738,0.596,1.337,1.337,1.337c0.738,0,1.337-0.599,1.337-1.337v-8.205L358.464,63.118"/>
</g>
<g>
	<path fill="#0088FF" d="M57.074,32.511l2.617-9.772c0.44-1.644,1.613-2.5,3.42-2.5h3.544c1.781,0,2.979,0.856,3.42,2.5l2.618,9.772
		c0.149,0.556-0.18,1.125-0.735,1.271c-0.555,0.152-1.125-0.18-1.273-0.735l-2.469-8.818H67.48l3.754,13.411h-3.254v9.935
		c0,0.718-0.58,1.299-1.296,1.299c-0.718,0-1.299-0.58-1.299-1.299V37.64h-1.002v9.935c0,0.718-0.583,1.299-1.299,1.299
		s-1.296-0.58-1.296-1.299V37.64h-3.257l3.756-13.411h-0.735l-2.469,8.818c-0.149,0.556-0.721,0.887-1.277,0.735
		C57.253,33.636,56.925,33.067,57.074,32.511"/>
	<path fill="#0088FF" d="M64.884,19.574c-1.714,0-3.104-1.388-3.104-3.1c0-1.714,1.389-3.103,3.104-3.103
		c1.711,0,3.097,1.388,3.097,3.103C67.982,18.185,66.595,19.574,64.884,19.574"/>
</g>
<g>
	<path fill="#0088FF" d="M46.615,19.694c1.712,0,3.099-1.387,3.099-3.1c0-1.715-1.387-3.102-3.099-3.102
		c-1.715,0-3.102,1.387-3.102,3.102C43.513,18.307,44.901,19.694,46.615,19.694"/>
	<path fill="#0088FF" d="M53.856,24.502c-0.01-2.305-1.881-4.168-4.188-4.168h-6.109c-2.304,0-4.174,1.864-4.188,4.168v8.214
		c0,0.738,0.599,1.337,1.338,1.337c0.738,0,1.337-0.599,1.337-1.337v-7.602h0.639v21.653c0,0.99,0.804,1.794,1.794,1.794
		c0.99,0,1.795-0.804,1.795-1.794V34.039h0.678v12.727c0,0.99,0.805,1.794,1.795,1.794c0.993,0,1.798-0.804,1.798-1.794V25.113
		h0.639v7.602c0,0.738,0.596,1.337,1.337,1.337c0.738,0,1.337-0.599,1.337-1.337v-8.205L53.856,24.502"/>
</g>
<g>
	<path fill="#0088FF" d="M92.954,32.511l2.617-9.772c0.44-1.644,1.613-2.5,3.42-2.5h3.544c1.781,0,2.979,0.856,3.42,2.5l2.618,9.772
		c0.149,0.556-0.18,1.125-0.735,1.271c-0.555,0.152-1.125-0.18-1.273-0.735l-2.469-8.818h-0.735l3.754,13.411h-3.254v9.935
		c0,0.718-0.58,1.299-1.296,1.299c-0.718,0-1.299-0.58-1.299-1.299V37.64h-1.002v9.935c0,0.718-0.583,1.299-1.299,1.299
		s-1.296-0.58-1.296-1.299V37.64H94.41l3.756-13.411h-0.735l-2.469,8.818c-0.149,0.556-0.721,0.887-1.277,0.735
		C93.134,33.636,92.806,33.067,92.954,32.511"/>
	<path fill="#0088FF" d="M100.765,19.574c-1.714,0-3.104-1.388-3.104-3.1c0-1.714,1.389-3.103,3.104-3.103
		c1.711,0,3.097,1.388,3.097,3.103C103.862,18.185,102.476,19.574,100.765,19.574"/>
</g>
<g>
	<path fill="#0088FF" d="M82.496,19.694c1.712,0,3.099-1.387,3.099-3.1c0-1.715-1.387-3.102-3.099-3.102
		c-1.715,0-3.102,1.387-3.102,3.102C79.394,18.307,80.781,19.694,82.496,19.694"/>
	<path fill="#0088FF" d="M89.737,24.502c-0.01-2.305-1.881-4.168-4.188-4.168H79.44c-2.304,0-4.174,1.864-4.188,4.168v8.214
		c0,0.738,0.599,1.337,1.338,1.337c0.738,0,1.337-0.599,1.337-1.337v-7.602h0.639v21.653c0,0.99,0.804,1.794,1.794,1.794
		c0.99,0,1.795-0.804,1.795-1.794V34.039h0.678v12.727c0,0.99,0.805,1.794,1.795,1.794c0.993,0,1.798-0.804,1.798-1.794V25.113
		h0.639v7.602c0,0.738,0.596,1.337,1.337,1.337c0.738,0,1.337-0.599,1.337-1.337v-8.205L89.737,24.502"/>
</g>
<g>
	<path fill="#0088FF" d="M128.835,32.511l2.617-9.772c0.44-1.644,1.613-2.5,3.42-2.5h3.544c1.781,0,2.979,0.856,3.42,2.5
		l2.618,9.772c0.149,0.556-0.18,1.125-0.735,1.271c-0.555,0.152-1.125-0.18-1.273-0.735l-2.469-8.818h-0.735l3.754,13.411h-3.254
		v9.935c0,0.718-0.58,1.299-1.296,1.299c-0.718,0-1.299-0.58-1.299-1.299V37.64h-1.002v9.935c0,0.718-0.583,1.299-1.299,1.299
		s-1.296-0.58-1.296-1.299V37.64h-3.257l3.756-13.411h-0.735l-2.469,8.818c-0.149,0.556-0.721,0.887-1.277,0.735
		C129.015,33.636,128.686,33.067,128.835,32.511"/>
	<path fill="#0088FF" d="M136.646,19.574c-1.714,0-3.104-1.388-3.104-3.1c0-1.714,1.389-3.103,3.104-3.103
		c1.711,0,3.097,1.388,3.097,3.103C139.743,18.185,138.357,19.574,136.646,19.574"/>
</g>
<g>
	<path fill="#0088FF" d="M118.377,19.694c1.712,0,3.099-1.387,3.099-3.1c0-1.715-1.387-3.102-3.099-3.102
		c-1.715,0-3.102,1.387-3.102,3.102C115.275,18.307,116.662,19.694,118.377,19.694"/>
	<path fill="#0088FF" d="M125.618,24.502c-0.01-2.305-1.881-4.168-4.188-4.168h-6.109c-2.304,0-4.174,1.864-4.188,4.168v8.214
		c0,0.738,0.599,1.337,1.338,1.337c0.738,0,1.337-0.599,1.337-1.337v-7.602h0.639v21.653c0,0.99,0.804,1.794,1.794,1.794
		c0.99,0,1.795-0.804,1.795-1.794V34.039h0.678v12.727c0,0.99,0.805,1.794,1.795,1.794c0.993,0,1.798-0.804,1.798-1.794V25.113
		h0.639v7.602c0,0.738,0.596,1.337,1.337,1.337c0.738,0,1.337-0.599,1.337-1.337v-8.205L125.618,24.502"/>
</g>
<g>
	<path fill="#0088FF" d="M164.716,32.511l2.617-9.772c0.44-1.644,1.613-2.5,3.42-2.5h3.544c1.781,0,2.979,0.856,3.42,2.5
		l2.618,9.772c0.149,0.556-0.18,1.125-0.735,1.271c-0.555,0.152-1.125-0.18-1.273-0.735l-2.469-8.818h-0.735l3.754,13.411h-3.254
		v9.935c0,0.718-0.58,1.299-1.296,1.299c-0.718,0-1.299-0.58-1.299-1.299V37.64h-1.002v9.935c0,0.718-0.583,1.299-1.299,1.299
		s-1.296-0.58-1.296-1.299V37.64h-3.257l3.756-13.411h-0.735l-2.469,8.818c-0.149,0.556-0.721,0.887-1.277,0.735
		C164.895,33.636,164.567,33.067,164.716,32.511"/>
	<path fill="#0088FF" d="M172.527,19.574c-1.714,0-3.104-1.388-3.104-3.1c0-1.714,1.389-3.103,3.104-3.103
		c1.711,0,3.097,1.388,3.097,3.103C175.624,18.185,174.238,19.574,172.527,19.574"/>
</g>
<g>
	<path fill="#0088FF" d="M154.257,19.694c1.712,0,3.099-1.387,3.099-3.1c0-1.715-1.387-3.102-3.099-3.102
		c-1.715,0-3.102,1.387-3.102,3.102C151.155,18.307,152.543,19.694,154.257,19.694"/>
	<path fill="#0088FF" d="M161.498,24.502c-0.01-2.305-1.881-4.168-4.188-4.168h-6.109c-2.304,0-4.174,1.864-4.188,4.168v8.214
		c0,0.738,0.599,1.337,1.338,1.337s1.337-0.599,1.337-1.337v-7.602h0.639v21.653c0,0.99,0.804,1.794,1.794,1.794
		s1.795-0.804,1.795-1.794V34.039h0.678v12.727c0,0.99,0.805,1.794,1.795,1.794c0.993,0,1.798-0.804,1.798-1.794V25.113h0.639v7.602
		c0,0.738,0.596,1.337,1.337,1.337c0.738,0,1.337-0.599,1.337-1.337v-8.205L161.498,24.502"/>
</g>
<g>
	<path fill="#0088FF" d="M200.597,32.511l2.617-9.772c0.44-1.644,1.613-2.5,3.42-2.5h3.544c1.781,0,2.979,0.856,3.42,2.5
		l2.618,9.772c0.149,0.556-0.18,1.125-0.735,1.271c-0.555,0.152-1.125-0.18-1.273-0.735l-2.469-8.818h-0.735l3.754,13.411h-3.254
		v9.935c0,0.718-0.58,1.299-1.296,1.299c-0.718,0-1.299-0.58-1.299-1.299V37.64h-1.002v9.935c0,0.718-0.583,1.299-1.299,1.299
		s-1.296-0.58-1.296-1.299V37.64h-3.257l3.756-13.411h-0.735l-2.469,8.818c-0.149,0.556-0.721,0.887-1.277,0.735
		C200.776,33.636,200.448,33.067,200.597,32.511"/>
	<path fill="#0088FF" d="M208.407,19.574c-1.714,0-3.104-1.388-3.104-3.1c0-1.714,1.389-3.103,3.104-3.103
		c1.711,0,3.097,1.388,3.097,3.103C211.505,18.185,210.118,19.574,208.407,19.574"/>
</g>
<g>
	<path fill="#0088FF" d="M190.138,19.694c1.712,0,3.099-1.387,3.099-3.1c0-1.715-1.387-3.102-3.099-3.102
		c-1.715,0-3.102,1.387-3.102,3.102C187.036,18.307,188.424,19.694,190.138,19.694"/>
	<path fill="#0088FF" d="M197.379,24.502c-0.01-2.305-1.881-4.168-4.188-4.168h-6.109c-2.304,0-4.174,1.864-4.188,4.168v8.214
		c0,0.738,0.599,1.337,1.338,1.337s1.337-0.599,1.337-1.337v-7.602h0.639v21.653c0,0.99,0.804,1.794,1.794,1.794
		s1.795-0.804,1.795-1.794V34.039h0.678v12.727c0,0.99,0.805,1.794,1.795,1.794c0.993,0,1.798-0.804,1.798-1.794V25.113h0.639v7.602
		c0,0.738,0.596,1.337,1.337,1.337c0.738,0,1.337-0.599,1.337-1.337v-8.205L197.379,24.502"/>
</g>
<g>
	<path fill="#0088FF" d="M236.477,32.511l2.617-9.772c0.44-1.644,1.613-2.5,3.42-2.5h3.544c1.781,0,2.979,0.856,3.42,2.5
		l2.618,9.772c0.149,0.556-0.18,1.125-0.735,1.271c-0.555,0.152-1.125-0.18-1.273-0.735l-2.469-8.818h-0.735l3.754,13.411h-3.254
		v9.935c0,0.718-0.58,1.299-1.296,1.299c-0.718,0-1.299-0.58-1.299-1.299V37.64h-1.002v9.935c0,0.718-0.583,1.299-1.299,1.299
		s-1.296-0.58-1.296-1.299V37.64h-3.257l3.756-13.411h-0.735l-2.469,8.818c-0.149,0.556-0.721,0.887-1.277,0.735
		C236.657,33.636,236.329,33.067,236.477,32.511"/>
	<path fill="#0088FF" d="M244.288,19.574c-1.714,0-3.104-1.388-3.104-3.1c0-1.714,1.389-3.103,3.104-3.103
		c1.711,0,3.097,1.388,3.097,3.103C247.385,18.185,245.999,19.574,244.288,19.574"/>
</g>
<g>
	<path fill="#0088FF" d="M226.019,19.694c1.712,0,3.099-1.387,3.099-3.1c0-1.715-1.387-3.102-3.099-3.102
		c-1.715,0-3.102,1.387-3.102,3.102C222.917,18.307,224.304,19.694,226.019,19.694"/>
	<path fill="#0088FF" d="M233.26,24.502c-0.01-2.305-1.881-4.168-4.188-4.168h-6.109c-2.304,0-4.174,1.864-4.188,4.168v8.214
		c0,0.738,0.599,1.337,1.338,1.337s1.337-0.599,1.337-1.337v-7.602h0.639v21.653c0,0.99,0.804,1.794,1.794,1.794
		s1.795-0.804,1.795-1.794V34.039h0.678v12.727c0,0.99,0.805,1.794,1.795,1.794c0.993,0,1.798-0.804,1.798-1.794V25.113h0.639v7.602
		c0,0.738,0.596,1.337,1.337,1.337c0.738,0,1.337-0.599,1.337-1.337v-8.205L233.26,24.502"/>
</g>
<g>
	<path fill="#0088FF" d="M272.358,32.511l2.617-9.772c0.44-1.644,1.613-2.5,3.42-2.5h3.544c1.781,0,2.979,0.856,3.42,2.5
		l2.618,9.772c0.149,0.556-0.18,1.125-0.736,1.271c-0.555,0.152-1.125-0.18-1.273-0.735l-2.469-8.818h-0.735l3.754,13.411h-3.254
		v9.935c0,0.718-0.58,1.299-1.296,1.299c-0.718,0-1.299-0.58-1.299-1.299V37.64h-1.002v9.935c0,0.718-0.583,1.299-1.299,1.299
		c-0.715,0-1.296-0.58-1.296-1.299V37.64h-3.257l3.756-13.411h-0.735l-2.469,8.818c-0.149,0.556-0.721,0.887-1.277,0.735
		C272.538,33.636,272.209,33.067,272.358,32.511"/>
	<path fill="#0088FF" d="M280.169,19.574c-1.714,0-3.104-1.388-3.104-3.1c0-1.714,1.389-3.103,3.104-3.103
		c1.711,0,3.097,1.388,3.097,3.103C283.266,18.185,281.88,19.574,280.169,19.574"/>
</g>
<g>
	<path fill="#0088FF" d="M261.9,19.694c1.712,0,3.099-1.387,3.099-3.1c0-1.715-1.387-3.102-3.099-3.102
		c-1.715,0-3.102,1.387-3.102,3.102C258.798,18.307,260.185,19.694,261.9,19.694"/>
	<path fill="#0088FF" d="M269.141,24.502c-0.01-2.305-1.881-4.168-4.188-4.168h-6.109c-2.304,0-4.174,1.864-4.188,4.168v8.214
		c0,0.738,0.599,1.337,1.338,1.337c0.738,0,1.337-0.599,1.337-1.337v-7.602h0.639v21.653c0,0.99,0.804,1.794,1.794,1.794
		c0.99,0,1.795-0.804,1.795-1.794V34.039h0.678v12.727c0,0.99,0.805,1.794,1.795,1.794c0.993,0,1.798-0.804,1.798-1.794V25.113
		h0.639v7.602c0,0.738,0.596,1.337,1.337,1.337c0.738,0,1.337-0.599,1.337-1.337v-8.205L269.141,24.502"/>
</g>
<g>
	<path fill="#0088FF" d="M289.92,32.511l2.617-9.772c0.44-1.644,1.613-2.5,3.42-2.5h3.544c1.781,0,2.979,0.856,3.42,2.5l2.618,9.772
		c0.149,0.556-0.18,1.125-0.735,1.271c-0.555,0.152-1.125-0.18-1.273-0.735l-2.469-8.818h-0.735l3.754,13.411h-3.254v9.935
		c0,0.718-0.58,1.299-1.296,1.299c-0.718,0-1.299-0.58-1.299-1.299V37.64h-1.002v9.935c0,0.718-0.583,1.299-1.299,1.299
		c-0.715,0-1.296-0.58-1.296-1.299V37.64h-3.257l3.756-13.411h-0.735l-2.469,8.818c-0.149,0.556-0.721,0.887-1.277,0.735
		C290.099,33.636,289.771,33.067,289.92,32.511"/>
	<path fill="#0088FF" d="M297.731,19.574c-1.714,0-3.104-1.388-3.104-3.1c0-1.714,1.389-3.103,3.104-3.103
		c1.711,0,3.097,1.388,3.097,3.103C300.828,18.185,299.441,19.574,297.731,19.574"/>
</g>
<g>
	<path fill="#0088FF" d="M325.8,32.511l2.617-9.772c0.44-1.644,1.613-2.5,3.42-2.5h3.544c1.781,0,2.979,0.856,3.42,2.5l2.618,9.772
		c0.149,0.556-0.18,1.125-0.735,1.271c-0.555,0.152-1.125-0.18-1.273-0.735l-2.469-8.818h-0.735l3.754,13.411h-3.254v9.935
		c0,0.718-0.58,1.299-1.296,1.299c-0.718,0-1.299-0.58-1.299-1.299V37.64h-1.002v9.935c0,0.718-0.583,1.299-1.299,1.299
		c-0.715,0-1.296-0.58-1.296-1.299V37.64h-3.257l3.756-13.411h-0.735l-2.469,8.818c-0.149,0.556-0.721,0.887-1.277,0.735
		C325.98,33.636,325.652,33.067,325.8,32.511"/>
	<path fill="#0088FF" d="M333.611,19.574c-1.714,0-3.104-1.388-3.104-3.1c0-1.714,1.389-3.103,3.104-3.103
		c1.711,0,3.097,1.388,3.097,3.103C336.708,18.185,335.322,19.574,333.611,19.574"/>
</g>
<g>
	<path fill="#0088FF" d="M315.342,19.694c1.712,0,3.099-1.387,3.099-3.1c0-1.715-1.387-3.102-3.099-3.102
		c-1.715,0-3.102,1.387-3.102,3.102C312.24,18.307,313.627,19.694,315.342,19.694"/>
	<path fill="#0088FF" d="M322.583,24.502c-0.01-2.305-1.881-4.168-4.188-4.168h-6.109c-2.304,0-4.174,1.864-4.188,4.168v8.214
		c0,0.738,0.599,1.337,1.337,1.337c0.738,0,1.337-0.599,1.337-1.337v-7.602h0.639v21.653c0,0.99,0.804,1.794,1.794,1.794
		c0.99,0,1.795-0.804,1.795-1.794V34.039h0.678v12.727c0,0.99,0.805,1.794,1.795,1.794c0.993,0,1.798-0.804,1.798-1.794V25.113
		h0.639v7.602c0,0.738,0.596,1.337,1.337,1.337c0.738,0,1.337-0.599,1.337-1.337v-8.205L322.583,24.502"/>
</g>
<g>
	<path fill="#0088FF" d="M361.681,32.511l2.617-9.772c0.44-1.644,1.613-2.5,3.42-2.5h3.544c1.781,0,2.979,0.856,3.42,2.5
		l2.618,9.772c0.149,0.556-0.18,1.125-0.735,1.271c-0.555,0.152-1.125-0.18-1.273-0.735l-2.469-8.818h-0.735l3.754,13.411h-3.254
		v9.935c0,0.718-0.58,1.299-1.296,1.299c-0.718,0-1.299-0.58-1.299-1.299V37.64h-1.002v9.935c0,0.718-0.583,1.299-1.299,1.299
		c-0.715,0-1.296-0.58-1.296-1.299V37.64h-3.257l3.756-13.411h-0.735l-2.469,8.818c-0.149,0.556-0.721,0.887-1.277,0.735
		C361.861,33.636,361.533,33.067,361.681,32.511"/>
	<path fill="#0088FF" d="M369.492,19.574c-1.714,0-3.104-1.388-3.104-3.1c0-1.714,1.389-3.103,3.104-3.103
		c1.711,0,3.097,1.388,3.097,3.103C372.589,18.185,371.203,19.574,369.492,19.574"/>
</g>
<g>
	<path fill="#0088FF" d="M351.223,19.694c1.712,0,3.099-1.387,3.099-3.1c0-1.715-1.387-3.102-3.099-3.102
		c-1.715,0-3.102,1.387-3.102,3.102C348.121,18.307,349.508,19.694,351.223,19.694"/>
	<path fill="#0088FF" d="M358.464,24.502c-0.01-2.305-1.881-4.168-4.188-4.168h-6.109c-2.304,0-4.174,1.864-4.188,4.168v8.214
		c0,0.738,0.599,1.337,1.337,1.337c0.738,0,1.337-0.599,1.337-1.337v-7.602h0.639v21.653c0,0.99,0.804,1.794,1.794,1.794
		c0.99,0,1.795-0.804,1.795-1.794V34.039h0.678v12.727c0,0.99,0.805,1.794,1.795,1.794c0.993,0,1.798-0.804,1.798-1.794V25.113
		h0.639v7.602c0,0.738,0.596,1.337,1.337,1.337c0.738,0,1.337-0.599,1.337-1.337v-8.205L358.464,24.502"/>
</g>
<g>
	<path fill="#FFFFFF" d="M397.681,71.127l2.617-9.772c0.44-1.644,1.613-2.5,3.42-2.5h3.544c1.781,0,2.979,0.856,3.42,2.5
		l2.618,9.772c0.149,0.556-0.18,1.125-0.735,1.271c-0.555,0.152-1.125-0.18-1.273-0.735l-2.469-8.818h-0.735l3.754,13.411h-3.254
		v9.935c0,0.718-0.58,1.299-1.296,1.299c-0.718,0-1.299-0.58-1.299-1.299v-9.935h-1.002v9.935c0,0.718-0.583,1.299-1.299,1.299
		c-0.715,0-1.296-0.58-1.296-1.299v-9.935h-3.257l3.756-13.411h-0.735l-2.469,8.818c-0.149,0.556-0.721,0.887-1.277,0.735
		C397.861,72.252,397.533,71.683,397.681,71.127"/>
	<path fill="#FFFFFF" d="M405.492,58.19c-1.714,0-3.104-1.388-3.104-3.1c0-1.714,1.389-3.103,3.104-3.103
		c1.711,0,3.097,1.388,3.097,3.103C408.589,56.801,407.203,58.19,405.492,58.19"/>
</g>
<g>
	<path fill="#0088FF" d="M387.223,58.31c1.712,0,3.099-1.387,3.099-3.1c0-1.715-1.387-3.102-3.099-3.102
		c-1.715,0-3.102,1.387-3.102,3.102C384.121,56.923,385.508,58.31,387.223,58.31"/>
	<path fill="#0088FF" d="M394.464,63.118c-0.01-2.305-1.881-4.168-4.188-4.168h-6.109c-2.304,0-4.174,1.864-4.188,4.168v8.214
		c0,0.738,0.599,1.337,1.337,1.337c0.738,0,1.337-0.599,1.337-1.337V63.73h0.639v21.653c0,0.99,0.804,1.794,1.794,1.794
		c0.99,0,1.795-0.804,1.795-1.794V72.656h0.678v12.727c0,0.99,0.805,1.794,1.795,1.794c0.993,0,1.798-0.804,1.798-1.794V63.73h0.639
		v7.602c0,0.738,0.596,1.337,1.337,1.337c0.738,0,1.337-0.599,1.337-1.337v-8.205L394.464,63.118"/>
</g>
<g>
	<path fill="#FFFFFF" d="M397.681,32.511l2.617-9.772c0.44-1.644,1.613-2.5,3.42-2.5h3.544c1.781,0,2.979,0.856,3.42,2.5
		l2.618,9.772c0.149,0.556-0.18,1.125-0.735,1.271c-0.555,0.152-1.125-0.18-1.273-0.735l-2.469-8.818h-0.735l3.754,13.411h-3.254
		v9.935c0,0.718-0.58,1.299-1.296,1.299c-0.718,0-1.299-0.58-1.299-1.299V37.64h-1.002v9.935c0,0.718-0.583,1.299-1.299,1.299
		c-0.715,0-1.296-0.58-1.296-1.299V37.64h-3.257l3.756-13.411h-0.735l-2.469,8.818c-0.149,0.556-0.721,0.887-1.277,0.735
		C397.861,33.636,397.533,33.067,397.681,32.511"/>
	<path fill="#FFFFFF" d="M405.492,19.574c-1.714,0-3.104-1.388-3.104-3.1c0-1.714,1.389-3.103,3.104-3.103
		c1.711,0,3.097,1.388,3.097,3.103C408.589,18.185,407.203,19.574,405.492,19.574"/>
</g>
<g>
	<path fill="#FFFFFF" d="M416.015,71.127l2.617-9.772c0.44-1.644,1.613-2.5,3.42-2.5h3.544c1.781,0,2.979,0.856,3.42,2.5
		l2.618,9.772c0.149,0.556-0.18,1.125-0.735,1.271c-0.555,0.152-1.125-0.18-1.273-0.735l-2.469-8.818h-0.735l3.754,13.411h-3.254
		v9.935c0,0.718-0.58,1.299-1.296,1.299c-0.718,0-1.299-0.58-1.299-1.299v-9.935h-1.002v9.935c0,0.718-0.583,1.299-1.299,1.299
		c-0.715,0-1.296-0.58-1.296-1.299v-9.935h-3.257l3.756-13.411h-0.735l-2.469,8.818c-0.149,0.556-0.721,0.887-1.277,0.735
		C416.194,72.252,415.866,71.683,416.015,71.127"/>
	<path fill="#FFFFFF" d="M423.825,58.19c-1.714,0-3.104-1.388-3.104-3.1c0-1.714,1.389-3.103,3.104-3.103
		c1.711,0,3.097,1.388,3.097,3.103C426.923,56.801,425.536,58.19,423.825,58.19"/>
</g>
<g>
	<path fill="#FFFFFF" d="M416.015,32.511l2.617-9.772c0.44-1.644,1.613-2.5,3.42-2.5h3.544c1.781,0,2.979,0.856,3.42,2.5
		l2.618,9.772c0.149,0.556-0.18,1.125-0.735,1.271c-0.555,0.152-1.125-0.18-1.273-0.735l-2.469-8.818h-0.735l3.754,13.411h-3.254
		v9.935c0,0.718-0.58,1.299-1.296,1.299c-0.718,0-1.299-0.58-1.299-1.299V37.64h-1.002v9.935c0,0.718-0.583,1.299-1.299,1.299
		c-0.715,0-1.296-0.58-1.296-1.299V37.64h-3.257l3.756-13.411h-0.735l-2.469,8.818c-0.149,0.556-0.721,0.887-1.277,0.735
		C416.194,33.636,415.866,33.067,416.015,32.511"/>
	<path fill="#FFFFFF" d="M423.825,19.574c-1.714,0-3.104-1.388-3.104-3.1c0-1.714,1.389-3.103,3.104-3.103
		c1.711,0,3.097,1.388,3.097,3.103C426.923,18.185,425.536,19.574,423.825,19.574"/>
</g>
<g>
	<path fill="#0088FF" d="M387.223,19.694c1.712,0,3.099-1.387,3.099-3.1c0-1.715-1.387-3.102-3.099-3.102
		c-1.715,0-3.102,1.387-3.102,3.102C384.121,18.307,385.508,19.694,387.223,19.694"/>
	<path fill="#0088FF" d="M394.464,24.502c-0.01-2.305-1.881-4.168-4.188-4.168h-6.109c-2.304,0-4.174,1.864-4.188,4.168v8.214
		c0,0.738,0.599,1.337,1.337,1.337c0.738,0,1.337-0.599,1.337-1.337v-7.602h0.639v21.653c0,0.99,0.804,1.794,1.794,1.794
		c0.99,0,1.795-0.804,1.795-1.794V34.039h0.678v12.727c0,0.99,0.805,1.794,1.795,1.794c0.993,0,1.798-0.804,1.798-1.794V25.113
		h0.639v7.602c0,0.738,0.596,1.337,1.337,1.337c0.738,0,1.337-0.599,1.337-1.337v-8.205L394.464,24.502"/>
</g>
<text transform="matrix(1 0 0 1 671.9999 -90.7288)" fill="#0088FF" font-family="'Tungsten-Medium'" font-size="38.9662">90%</text>
</svg>
