<?xml version="1.0" encoding="utf-8"?>
<!-- Generator: Adobe Illustrator 17.1.0, SVG Export Plug-In . SVG Version: 6.00 Build 0)  -->
<!DOCTYPE svg PUBLIC "-//W3C//DTD SVG 1.1//EN" "http://www.w3.org/Graphics/SVG/1.1/DTD/svg11.dtd">
<svg version="1.1" id="Layer_1" xmlns="http://www.w3.org/2000/svg" xmlns:xlink="http://www.w3.org/1999/xlink" x="0px" y="0px"
	 viewBox="190.333 17.667 98.333 113" enable-background="new 190.333 17.667 98.333 113" xml:space="preserve">
<g id="New_Symbol_101">
	<rect x="260.09" y="59.564" fill="none" width="4.852" height="4.852"/>
	<path fill="none" d="M273.762,45.065l-10.701-2.675l5.379-9.626c-1.275-0.588-2.689-0.925-4.182-0.925
		c-5.533,0-10.034,4.501-10.034,10.034s4.501,10.034,10.034,10.034C268.673,51.907,272.424,49.036,273.762,45.065z"/>
	<path fill="none" d="M265.454,41.356l8.689,2.173c0.09-0.54,0.148-1.09,0.148-1.655c0-3.474-1.776-6.539-4.465-8.341
		L265.454,41.356z"/>
	<rect x="247.887" y="59.564" fill="none" width="4.851" height="4.852"/>
	<path fill="none" d="M276.785,25.007h-73.903c-2.697,0-4.883,2.186-4.883,4.883v36.871c0,2.697,2.186,4.883,4.883,4.883h33.734
		h12.872h27.297c2.697,0,4.883-2.186,4.883-4.883V29.891C281.668,27.194,279.482,25.007,276.785,25.007z M205.639,28.935h12.674
		c0.437,0,0.792,0.354,0.792,0.792s-0.355,0.792-0.792,0.792h-12.674c-0.437,0-0.792-0.354-0.792-0.792
		S205.202,28.935,205.639,28.935z M204.583,33.16c0-0.438,0.355-0.792,0.792-0.792h8.186c0.437,0,0.792,0.354,0.792,0.792
		c0,0.438-0.355,0.792-0.792,0.792h-8.186C204.938,33.952,204.583,33.598,204.583,33.16z M245.182,33.473l-9.542,22.17
		l-7.003-10.083l-7.526,16.922l-8.131-11.54l-5.28,13.92c-0.12,0.316-0.421,0.511-0.741,0.511c-0.094,0-0.188-0.016-0.281-0.052
		c-0.409-0.155-0.615-0.612-0.46-1.021l6.338-16.71l8.24,11.696l7.535-16.942l6.98,10.05l8.414-19.549
		c0.173-0.401,0.638-0.586,1.041-0.415C245.169,32.605,245.355,33.071,245.182,33.473z M254.323,66h-8.02v-8.02h8.02V66z
		 M252.639,41.873c0-6.407,5.212-11.618,11.618-11.618c6.407,0,11.618,5.212,11.618,11.618c0,0.86-0.101,1.696-0.279,2.504
		c0.019,0.106,0.019,0.217-0.01,0.328c-0.028,0.112-0.084,0.206-0.15,0.291c-1.369,4.892-5.856,8.495-11.18,8.495
		C257.851,53.492,252.639,48.28,252.639,41.873z M266.526,66h-8.02v-8.02h8.02V66z M278.73,66h-8.02v-8.02h8.02V66z"/>
	<rect x="272.294" y="59.564" fill="none" width="4.852" height="4.852"/>
	<path fill="#0088FF" d="M283.221,18.243h-86.775c-2.697,0-4.883,2.186-4.883,4.883v50.071c0,2.697,2.186,4.883,4.883,4.883h41.172
		l2.954,18.964l-18.243,20.702c-0.289,0.328-0.258,0.828,0.071,1.118c0.15,0.133,0.337,0.198,0.523,0.198
		c0.22,0,0.438-0.091,0.595-0.268l18.77-21.299c0.025-0.028,0.034-0.064,0.055-0.095v32.4c0,0.438,0.355,0.792,0.792,0.792
		s0.792-0.354,0.792-0.792v-32.4c0.02,0.031,0.029,0.066,0.054,0.094l18.77,21.299c0.156,0.178,0.375,0.268,0.594,0.268
		c0.186,0,0.373-0.065,0.524-0.198c0.328-0.289,0.36-0.79,0.07-1.118l-18.559-21.06l3.052-18.606h34.789
		c2.697,0,4.883-2.186,4.883-4.883V23.126C288.104,20.429,285.918,18.243,283.221,18.243z M281.668,66.761
		c0,2.697-2.186,4.883-4.883,4.883h-27.297h-12.872h-33.734c-2.697,0-4.883-2.186-4.883-4.883V29.891
		c0-2.697,2.186-4.883,4.883-4.883h73.903c2.697,0,4.883,2.186,4.883,4.883V66.761z"/>
	<path fill="#0088FF" d="M247.887,66h8.02v-8.02h-8.02V66z M249.471,59.564h4.851v4.852h-4.851V59.564z"/>
	<path fill="#0088FF" d="M258.506,66h8.02v-8.02h-8.02V66z M260.09,59.564h4.852v4.852h-4.852V59.564z"/>
	<path fill="#FFFFFF" d="M269.126,66h8.02v-8.02h-8.02V66z M270.71,59.564h4.852v4.852h-4.852V59.564z"/>
	<path fill="#0088FF" d="M244.767,32.432c-0.403-0.172-0.868,0.013-1.041,0.415l-8.414,19.549l-6.98-10.05l-7.535,16.942
		l-8.24-11.696l-6.338,16.71c-0.155,0.409,0.051,0.866,0.46,1.021c0.092,0.036,0.187,0.052,0.281,0.052
		c0.319,0,0.62-0.195,0.741-0.511l5.28-13.92l8.131,11.54l7.526-16.922l7.003,10.083l9.542-22.17
		C245.355,33.071,245.169,32.605,244.767,32.432z"/>
	<path fill="#0088FF" d="M275.437,44.997c0.067-0.085,0.122-0.18,0.15-0.291c0.028-0.111,0.028-0.222,0.01-0.328
		c0.178-0.807,0.279-1.644,0.279-2.504c0-6.407-5.212-11.618-11.618-11.618c-6.407,0-11.618,5.212-11.618,11.618
		s5.212,11.618,11.618,11.618C269.581,53.492,274.068,49.889,275.437,44.997z M274.292,41.873c0,0.565-0.058,1.115-0.148,1.655
		l-8.689-2.173l4.372-7.823C272.516,35.334,274.292,38.4,274.292,41.873z M254.224,41.873c0-5.533,4.501-10.034,10.034-10.034
		c1.494,0,2.907,0.337,4.182,0.925l-5.379,9.626l10.701,2.675c-1.338,3.971-5.089,6.842-9.504,6.842
		C258.725,51.907,254.224,47.406,254.224,41.873z"/>
	<path fill="#FFFFFF" d="M205.639,30.52h12.674c0.437,0,0.792-0.354,0.792-0.792s-0.355-0.792-0.792-0.792h-12.674
		c-0.437,0-0.792,0.354-0.792,0.792S205.202,30.52,205.639,30.52z"/>
	<path fill="#FFFFFF" d="M214.353,33.16c0-0.438-0.355-0.792-0.792-0.792h-8.186c-0.437,0-0.792,0.354-0.792,0.792
		c0,0.438,0.355,0.792,0.792,0.792h8.186C213.998,33.952,214.353,33.598,214.353,33.16z"/>
</g>
</svg>
