<?xml version="1.0" encoding="utf-8"?>
<!-- Generator: Adobe Illustrator 17.1.0, SVG Export Plug-In . SVG Version: 6.00 Build 0)  -->
<!DOCTYPE svg PUBLIC "-//W3C//DTD SVG 1.1//EN" "http://www.w3.org/Graphics/SVG/1.1/DTD/svg11.dtd">
<svg version="1.1" id="Layer_1" xmlns="http://www.w3.org/2000/svg" xmlns:xlink="http://www.w3.org/1999/xlink" x="0px" y="0px"
	 viewBox="150 6 180.25 87.75" enable-background="new 150 6 180.25 87.75" xml:space="preserve">
<path fill="#0088FF" d="M213.729,9.313c4.255-0.002,75.384-0.001,79.638-0.001c4.139,0-5.936-0.016-1.797,0.01
	c1.236,0.008,2.281-0.28,3.071-1.02c1.075-1.005,2.4-1.333,4.03-1.311c4.33,0.055,22.879,0.016,27.211,0.02
	c1.567,0.001,2.832,0.786,3.153,1.936c0.165,0.593-0.088,0.87-0.852,0.923c-0.229,0.016-0.459,0.015-0.689,0.015
	c-3.756,0.001-21.73-0.001-25.486,0.004c-0.323,0.001-0.678-0.003-0.957,0.101c-0.21,0.078-0.431,0.322-0.44,0.499
	c-0.008,0.15,0.247,0.394,0.446,0.445c0.374,0.096,0.792,0.107,1.191,0.108c3.737,0.007,21.69,0.004,25.429,0.005
	c0.249,0,0.502-0.003,0.745,0.031c0.426,0.06,0.672,0.253,0.665,0.631c-0.014,0.69-0.014,1.382,0,2.072
	c0.008,0.373-0.214,0.58-0.647,0.643c-0.262,0.038-0.533,0.048-0.798,0.049c-3.814,0.003-21.844,0-25.658,0.006
	c-0.322,0.001-0.671,0.005-0.956,0.104c-0.196,0.068-0.419,0.302-0.418,0.462c0.001,0.162,0.226,0.409,0.419,0.463
	c0.35,0.098,0.751,0.106,1.13,0.106c3.737,0.006,21.69,0.001,25.429,0.008c0.505,0.001,1.206-0.106,1.372,0.344
	c0.136,0.368-0.027,0.89-0.272,1.248c-0.569,0.831-1.485,1.278-2.725,1.275c-4.561-0.012-23.339-0.018-27.9,0.004
	c-1.187,0.006-2.175-0.277-2.995-0.954c-0.187-0.154-0.379-0.304-0.569-0.455c-0.74-0.591-1.608-0.882-2.677-0.881
	c-8.395,0.013-69.692,0.008-78.086,0.007"/>
<path fill="#FFFFFF" d="M213.729,33.658c5.405,0.003,62.87,0.001,68.275,0.001c0.229,0,0.456,0,0.716,0
	c0.072,0.222,0.123,0.43,0.207,0.628c0.422,0.989,1.59,1.675,2.945,1.67c5.48-0.019,25.767-0.015,31.244-0.11
	c1.865-0.033,3.731-0.289,5.582-0.518c2.474-0.306,4.15-1.461,5.139-3.288c0.877-1.618,1.194-3.32,1.238-5.067
	c0.001-0.057-0.019-0.115-0.036-0.215c-0.225,0-0.431,0-0.636,0c-30.637,0-113.65-0.016-114.676-0.018"/>
<path fill="#0088FF" d="M213.729,46.528c4.255-0.002,75.384-0.001,79.638-0.001c4.139,0-5.936-0.016-1.797,0.01
	c1.236,0.008,2.281-0.28,3.071-1.02c1.075-1.005,2.4-1.333,4.03-1.311c4.33,0.055,22.879,0.016,27.211,0.02
	c1.567,0.001,2.832,0.786,3.153,1.936c0.165,0.593-0.088,0.87-0.852,0.923c-0.229,0.016-0.459,0.015-0.689,0.015
	c-3.756,0.001-21.73-0.001-25.486,0.004c-0.323,0.001-0.678-0.003-0.957,0.101c-0.21,0.078-0.431,0.322-0.44,0.499
	c-0.008,0.15,0.247,0.394,0.446,0.445c0.374,0.096,0.792,0.107,1.191,0.108c3.737,0.007,21.69,0.004,25.429,0.005
	c0.249,0,0.502-0.003,0.745,0.031c0.426,0.06,0.672,0.253,0.665,0.631c-0.014,0.69-0.014,1.382,0,2.072
	c0.008,0.373-0.214,0.58-0.647,0.643c-0.262,0.038-0.533,0.048-0.798,0.049c-3.814,0.003-21.844,0-25.658,0.006
	c-0.322,0.001-0.671,0.005-0.956,0.104c-0.196,0.068-0.419,0.302-0.418,0.462c0.001,0.162,0.226,0.408,0.419,0.463
	c0.35,0.098,0.751,0.106,1.13,0.106c3.737,0.006,21.69,0.001,25.429,0.008c0.505,0.001,1.206-0.106,1.372,0.344
	c0.136,0.368-0.027,0.89-0.272,1.248c-0.569,0.831-1.485,1.278-2.725,1.275c-4.561-0.012-23.339-0.018-27.9,0.004
	c-1.187,0.006-2.175-0.277-2.995-0.954c-0.187-0.154-0.379-0.304-0.569-0.455c-0.74-0.591-1.608-0.882-2.677-0.881
	c-8.395,0.013-69.692,0.008-78.086,0.007"/>
<path fill="#0088FF" d="M152.986,83.744c4.255-0.002,136.127-0.001,140.382-0.001c4.139,0-5.936-0.016-1.797,0.01
	c1.236,0.008,2.281-0.28,3.071-1.02c1.075-1.005,2.4-1.333,4.03-1.311c4.33,0.055,22.879,0.016,27.211,0.02
	c1.567,0.001,2.832,0.786,3.153,1.936c0.165,0.593-0.088,0.87-0.852,0.923c-0.229,0.016-0.459,0.015-0.689,0.015
	c-3.756,0.001-21.73-0.001-25.486,0.004c-0.323,0.001-0.678-0.003-0.957,0.101c-0.21,0.078-0.431,0.322-0.44,0.499
	c-0.008,0.15,0.247,0.394,0.446,0.445c0.374,0.096,0.792,0.107,1.191,0.108c3.737,0.007,21.69,0.004,25.429,0.005
	c0.249,0,0.502-0.003,0.745,0.031c0.426,0.06,0.672,0.253,0.665,0.631c-0.014,0.69-0.014,1.382,0,2.072
	c0.008,0.373-0.214,0.58-0.647,0.643c-0.262,0.038-0.533,0.048-0.798,0.049c-3.814,0.003-21.844,0-25.658,0.006
	c-0.322,0.001-0.671,0.005-0.956,0.104c-0.196,0.068-0.419,0.302-0.418,0.462c0.001,0.162,0.226,0.408,0.419,0.463
	c0.35,0.098,0.751,0.106,1.13,0.106c3.737,0.006,21.69,0.001,25.429,0.008c0.505,0.001,1.206-0.106,1.372,0.344
	c0.136,0.368-0.027,0.89-0.272,1.248c-0.569,0.831-1.485,1.278-2.725,1.275c-4.561-0.012-23.339-0.018-27.9,0.004
	c-1.187,0.006-2.175-0.277-2.995-0.954c-0.187-0.154-0.379-0.304-0.569-0.455c-0.74-0.591-1.608-0.882-2.677-0.881
	c-8.395,0.013-130.435,0.008-138.829,0.007"/>
<path fill="#FFFFFF" d="M152.986,70.874c5.405,0.003,123.613,0.001,129.019,0.001c0.229,0,0.456,0,0.716,0
	c0.072,0.222,0.123,0.43,0.207,0.628c0.422,0.989,1.59,1.675,2.945,1.67c5.48-0.019,25.767-0.015,31.244-0.11
	c1.865-0.033,3.731-0.289,5.582-0.518c2.474-0.306,4.15-1.461,5.139-3.288c0.877-1.618,1.194-3.32,1.238-5.067
	c0.001-0.057-0.019-0.115-0.036-0.215c-0.225,0-0.431,0-0.636,0c-30.637,0-174.393-0.016-175.419-0.018"/>
<rect x="154.193" y="9.862" fill="#0088FF" width="51.807" height="43.888"/>
</svg>
