<?xml version="1.0" encoding="utf-8"?>
<!-- Generator: Adobe Illustrator 17.1.0, SVG Export Plug-In . SVG Version: 6.00 Build 0)  -->
<!DOCTYPE svg PUBLIC "-//W3C//DTD SVG 1.1//EN" "http://www.w3.org/Graphics/SVG/1.1/DTD/svg11.dtd">
<svg version="1.1" id="Layer_1" xmlns="http://www.w3.org/2000/svg" xmlns:xlink="http://www.w3.org/1999/xlink" x="0px" y="0px"
	 viewBox="165.333 0 149.333 100" enable-background="new 165.333 0 149.333 100" xml:space="preserve">
<line fill="none" stroke="#FFFFFF" stroke-width="2" stroke-linecap="round" stroke-miterlimit="10" x1="213.957" y1="96.659" x2="213.957" y2="5.631"/>
<line fill="none" stroke="#FFFFFF" stroke-width="2" stroke-linecap="round" stroke-miterlimit="10" x1="256.483" y1="96.659" x2="256.483" y2="14.17"/>
<g>
	<path fill="#0088FF" d="M166.92,57.842l6.329-23.628c1.065-3.976,3.901-6.045,8.27-6.045h8.569c7.473,0,25.663,0,29.249,0
		c3.587,0,3.842,6.752-0.256,6.752s-24.764,0-24.764,0l-2.235,2.896l9.076,32.428h-7.869v24.023c0,1.737-1.403,3.14-3.133,3.14
		c-1.737,0-3.142-1.403-3.142-3.14V70.244h-2.423v24.023c0,1.737-1.41,3.14-3.14,3.14s-3.134-1.403-3.134-3.14V70.244h-7.877
		l9.083-32.428h-1.776l-5.969,21.322c-0.36,1.344-1.743,2.144-3.088,1.778C167.354,60.564,166.561,59.186,166.92,57.842"/>
	<path fill="#0088FF" d="M185.807,26.561c-4.723,0-8.426-4.359-7.301-9.266c0.621-2.709,2.821-4.909,5.531-5.53
		c4.907-1.124,9.259,2.575,9.259,7.299C193.296,23.203,189.944,26.561,185.807,26.561"/>
</g>
<g>
	<path fill="#0088FF" d="M294.913,27.791c4.139,0,7.492-3.355,7.492-7.494c0-4.146-3.353-7.501-7.492-7.501
		c-4.146,0-7.501,3.355-7.501,7.501C287.412,24.436,290.767,27.791,294.913,27.791"/>
	<path fill="#0088FF" d="M312.42,39.415c-0.025-5.572-4.547-10.079-10.126-10.079h-14.772c-8.496,0-27.965,0-32.576,0
		c-5.892,0-5.892,8.402-0.512,8.402c5.38,0,26.642,0,26.642,0l4.837,3.157h-0.504v52.357c0,2.393,1.945,4.339,4.339,4.339
		c2.393,0,4.341-1.945,4.341-4.339V62.477h1.639v30.774c0,2.393,1.947,4.339,4.341,4.339c2.4,0,4.347-1.945,4.347-4.339V40.895
		h1.545v18.381c0,1.785,1.44,3.234,3.234,3.234c1.785,0,3.234-1.449,3.234-3.234V39.438L312.42,39.415"/>
</g>
<path fill="none" stroke="#FFFFFF" stroke-width="2" stroke-linecap="round" stroke-miterlimit="10" d="M206.443,5.118v10.759
	c0,4.15,3.364,7.514,7.514,7.514s7.514-3.364,7.514-7.514V5.289"/>
<path fill="#FFFFFF" d="M248.285,23.392h15.883c0,0-0.768-20.75-7.942-20.75C249.052,2.642,248.285,23.392,248.285,23.392z"/>
</svg>
