<?xml version="1.0" encoding="utf-8"?>
<!-- Generator: Adobe Illustrator 17.1.0, SVG Export Plug-In . SVG Version: 6.00 Build 0)  -->
<!DOCTYPE svg PUBLIC "-//W3C//DTD SVG 1.1//EN" "http://www.w3.org/Graphics/SVG/1.1/DTD/svg11.dtd">
<svg version="1.1" id="Layer_1" xmlns="http://www.w3.org/2000/svg" xmlns:xlink="http://www.w3.org/1999/xlink" x="0px" y="0px"
	 viewBox="182 -8.667 118.667 118.333" enable-background="new 182 -8.667 118.667 118.333" xml:space="preserve">
<g>
	<path fill="#FFFFFF" d="M241.609,105.703c-14.921,0-28.949-5.81-39.5-16.362c-10.55-10.55-16.36-24.578-16.36-39.499
		s5.81-28.949,16.362-39.5c10.55-10.551,24.578-16.362,39.499-16.362c14.921,0,28.949,5.81,39.5,16.362
		c10.55,10.55,16.362,24.578,16.362,39.5c0,14.921-5.81,28.949-16.362,39.5C270.559,99.893,256.531,105.703,241.609,105.703z
		 M241.609-3.579c-14.27,0-27.685,5.557-37.775,15.647c-10.089,10.09-15.647,23.505-15.647,37.775s5.557,27.684,15.647,37.775
		c10.09,10.09,23.505,15.647,37.775,15.647c14.27,0,27.685-5.557,37.775-15.647c10.09-10.09,15.647-23.505,15.647-37.775
		s-5.557-27.685-15.647-37.776C269.294,1.977,255.879-3.579,241.609-3.579z"/>
</g>
<g>
	<path fill="#FFFFFF" d="M241.609,105.703c-14.921,0-28.949-5.81-39.5-16.362c-10.55-10.55-16.36-24.578-16.36-39.499
		s5.81-28.949,16.362-39.5c10.55-10.551,24.578-16.362,39.499-16.362c14.921,0,28.949,5.81,39.5,16.362
		c10.55,10.55,16.362,24.578,16.362,39.5c0,14.921-5.81,28.949-16.362,39.5C270.559,99.893,256.531,105.703,241.609,105.703z
		 M241.609-3.579c-14.27,0-27.685,5.557-37.775,15.647c-10.089,10.09-15.647,23.505-15.647,37.775s5.557,27.684,15.647,37.775
		c10.09,10.09,23.505,15.647,37.775,15.647c14.27,0,27.685-5.557,37.775-15.647c10.09-10.09,15.647-23.505,15.647-37.775
		s-5.557-27.685-15.647-37.776C269.294,1.977,255.879-3.579,241.609-3.579z"/>
</g>
<g id="B5gzWi_1_">
	<g>
		<path fill="#0088FF" d="M214.831,50.307c-1.213-0.089-2.357-0.172-3.502-0.256c-1.361-0.101-1.881-0.648-1.52-1.968
			c0.319-1.162,0.802-2.327,1.449-3.339c1.786-2.797,3.712-5.505,5.541-8.275c0.298-0.452,0.48-1.032,0.546-1.575
			c0.209-1.696,0.497-3.329,1.577-4.752c3.052-4.021,6.022-8.106,9.108-12.101c1.29-1.67,3.13-2.61,5.15-3.218
			c2.065-0.621,4.068-1.513,6.169-1.929c1.84-0.365,3.791-0.423,5.669-0.286c4.385,0.32,8.512,1.508,12.048,4.294
			c2.554,2.012,4.396,4.581,5.737,7.497c1.413,3.076,2.893,6.144,3.985,9.338c1.274,3.728,0.895,7.624,0.404,11.478
			c-0.072,0.569,0.057,1.192,0.217,1.754c0.541,1.902,1.307,3.756,1.677,5.688c0.554,2.9-0.452,5.259-3.08,6.797
			c-0.529,0.31-1.049,0.643-1.604,0.897c-3.273,1.498-3.991,4.419-4.227,7.592c-0.018,0.241,0.225,0.578,0.443,0.751
			c1.133,0.903,1.316,1.424,0.818,2.804c-0.395,1.093-0.501,2.178-0.026,3.267c0.331,0.759,0.78,0.975,1.62,0.566
			c1.515-0.737,3.051-1.505,4.662-1.957c2.528-0.71,3.627,0.126,3.755,2.759c0.088,1.792-0.055,3.597-0.142,5.394
			c-0.021,0.418-0.11,0.968-0.385,1.21c-0.719,0.632-0.68,1.363-0.639,2.192c0.063,1.261-0.239,1.509-1.615,1.423
			c-0.106,0.95-0.188,1.912-0.34,2.864c-0.038,0.237-0.304,0.438-0.466,0.656c-0.094-0.048-0.188-0.096-0.282-0.144
			c-0.022,0.062-0.048,0.121-0.066,0.184c-0.142,0.478-0.283,0.957-0.423,1.434c-0.304-0.439-0.707-0.842-0.891-1.328
			c-0.262-0.692-0.365-1.445-0.637-2.166c-0.061,1.088-0.056,2.186-0.195,3.265c-0.272,2.124-0.966,2.557-3.254,2.092
			c0-1.108,0-2.24,0-3.537c-1.381,0.35-2.642,0.591-3.851,0.991c-2.836,0.942-5.634,1.999-8.474,2.93
			c-1.189,0.389-2.435,0.761-3.671,0.823c-7.443,0.375-14.765-0.484-21.963-2.403c-0.521-0.138-1.028-0.336-1.527-0.542
			c-1.794-0.739-2.179-1.4-1.35-3.172c0.565-1.21,1.476-2.285,2.362-3.31c0.774-0.895,1.743-1.619,2.599-2.446
			c0.737-0.712,0.752-1.501,0.611-2.547c-0.394-2.917-0.556-5.869-0.706-8.812c-0.037-0.728-0.086-1.076-0.895-1.243
			c-2.558-0.529-4.761-1.808-6.829-3.374c-0.57-0.431-1.309-0.66-1.999-0.903c-0.676-0.237-1.414-0.304-2.078-0.565
			c-1.766-0.695-2.375-2.018-1.37-3.609c0.846-1.34,0.951-2.662,1.007-4.152c0.073-1.935,0.47-3.859,0.723-5.788
			C214.753,51.164,214.783,50.774,214.831,50.307z"/>
	</g>
</g>
<path fill="none" stroke="#0088FF" stroke-width="2" stroke-linecap="round" stroke-miterlimit="10" d="M269.794,9.033
	c11.195,7.745,19.046,19.979,20.956,34.099"/>
<path fill="none" stroke="#0088FF" stroke-width="2" stroke-linecap="round" stroke-miterlimit="10" d="M253.423,1.666
	c3.504,0.856,6.862,2.085,10.03,3.641"/>
<path fill="none" stroke="#0088FF" stroke-width="2" stroke-linecap="round" stroke-miterlimit="10" d="M216.803,6.892
	c7.297-4.224,15.77-6.641,24.807-6.641c1.513,0,3.01,0.068,4.487,0.2"/>
<path fill="none" stroke="#0088FF" stroke-width="2" stroke-linecap="round" stroke-miterlimit="10" d="M192.791,41.076
	c2.13-11.944,8.536-22.407,17.579-29.751"/>
<line fill="none" stroke="#0088FF" stroke-width="2" stroke-linecap="round" stroke-miterlimit="10" x1="202.66" y1="76.164" x2="219.064" y2="76.164"/>
</svg>
