<?xml version="1.0" encoding="utf-8"?>
<!-- Generator: Adobe Illustrator 17.1.0, SVG Export Plug-In . SVG Version: 6.00 Build 0)  -->
<!DOCTYPE svg PUBLIC "-//W3C//DTD SVG 1.1//EN" "http://www.w3.org/Graphics/SVG/1.1/DTD/svg11.dtd">
<svg version="1.1" id="Layer_1" xmlns="http://www.w3.org/2000/svg" xmlns:xlink="http://www.w3.org/1999/xlink" x="0px" y="0px"
	 viewBox="135 0 210 100" enable-background="new 135 0 210 100" xml:space="preserve">
<g id="ReIXLD_1_">
	<g>
		<path fill="#FFFFFF" d="M241.357,59.239c4.101,0,4.543,0,9.189,0c-7.08,7.873-9.735,11.413-17.242,20.238
			c-0.057-0.035-0.112-0.068-0.169-0.103c3.031-7.616,3.473-8.943,6.571-16.837c-5.31,0-4.425,0-10.265,0
			c6.502-5.722,12.867-11.475,19.233-17.078c0.069,0.053,0.137,0.107,0.206,0.16C246.392,50.007,243.904,54.747,241.357,59.239z"/>
	</g>
</g>
<g id="ReIXLD_2_">
	<g>
		<path fill="#FFFFFF" d="M315.314,58.815c1.694,0,1.876,0,3.795,0c-2.924,3.251-4.02,4.713-7.12,8.358
			c-0.023-0.014-0.047-0.028-0.07-0.042c1.251-3.145,1.435-3.694,2.713-6.953c-2.193,0-1.827,0-4.239,0
			c2.685-2.363,5.313-4.739,7.942-7.053c0.028,0.022,0.057,0.044,0.085,0.066C317.392,55.003,316.365,56.96,315.314,58.815z"/>
	</g>
</g>
<g id="ReIXLD_3_">
	<g>
		<path fill="#FFFFFF" d="M158.263,60.275c1.338,0,1.482,0,2.998,0c-2.31,2.569-3.176,3.724-5.626,6.603
			c-0.019-0.012-0.037-0.022-0.055-0.034c0.988-2.485,1.133-2.918,2.143-5.493c-1.732,0-1.443,0-3.349,0
			c2.121-1.867,4.198-3.744,6.274-5.572c0.022,0.018,0.045,0.035,0.067,0.052C159.906,57.263,159.094,58.81,158.263,60.275z"/>
	</g>
</g>
<path fill="none" stroke="#0088FF" stroke-width="2" stroke-linecap="round" stroke-miterlimit="10" d="M200.767,44.469
	c-5.274,0.609-15.929-1.77-15.929-12.832s11.726-15.044,17.92-11.947c2.434-9.513,9.071-13.496,14.159-14.602
	s13.053-1.77,21.903,8.407"/>
<path fill="none" stroke="#0088FF" stroke-width="2" stroke-linecap="round" stroke-miterlimit="10" d="M221.685,57.969
	c-5.012,0.579-15.137-1.682-15.137-12.194s11.142-14.297,17.03-11.354c2.312-9.041,8.62-12.825,13.456-13.876
	c4.835-1.051,19.044-2.404,23.69,15.959c0,0,10.841,1.549,10.841,11.504s-11.947,9.735-11.947,9.735"/>
<path fill="#0088FF" d="M171.917,53.312c0,0,7.611,0.141,7.611-6.201s-6.906-7.328-6.906-7.328
	c-2.959-11.697-12.011-10.836-15.091-10.166c-3.081,0.67-7.098,3.081-8.572,8.84c-3.75-1.875-10.849,0.535-10.849,7.233
	s6.45,8.136,9.643,7.768L171.917,53.312z"/>
<path fill="#0088FF" d="M331.249,49.115c0,0,10.204,0.189,10.204-8.315s-9.259-9.827-9.259-9.827
	c-3.968-15.685-16.105-14.529-20.235-13.632c-4.13,0.898-9.518,4.13-11.493,11.852c-5.028-2.514-14.546,0.719-14.546,9.697
	s8.649,10.91,12.93,10.416L331.249,49.115z"/>
<path fill="none" stroke="#0088FF" stroke-width="2" stroke-linecap="round" stroke-miterlimit="10" d="M188.599,74.115
	c0,9.54,0,15.487,0,15.487"/>
<path fill="none" stroke="#0088FF" stroke-width="2" stroke-linecap="round" stroke-miterlimit="10" d="M188.599,52.212
	c0,0,0,6.923,0,15.044"/>
<path fill="none" stroke="#0088FF" stroke-width="2" stroke-linecap="round" stroke-miterlimit="10" d="M195.9,86.505
	c0,3.702,0,6.194,0,6.194"/>
<path fill="none" stroke="#0088FF" stroke-width="2" stroke-linecap="round" stroke-miterlimit="10" d="M195.9,69.027
	c0,3.626,0,7.51,0,11.063"/>
<path fill="none" stroke="#0088FF" stroke-width="2" stroke-linecap="round" stroke-miterlimit="10" d="M195.9,55.088
	c0,0,0,3.309,0,7.965"/>
<path fill="none" stroke="#0088FF" stroke-width="2" stroke-linecap="round" stroke-miterlimit="10" d="M203.2,80.752
	c0,4.102,0,7.796,0,9.957"/>
<path fill="none" stroke="#0088FF" stroke-width="2" stroke-linecap="round" stroke-miterlimit="10" d="M203.2,59.735
	c0,0,0,4.737,0,10.619"/>
<path fill="none" stroke="#0088FF" stroke-width="2" stroke-linecap="round" stroke-miterlimit="10" d="M210.501,85.62
	c0,4.026,0,7.079,0,7.079"/>
<path fill="none" stroke="#0088FF" stroke-width="2" stroke-linecap="round" stroke-miterlimit="10" d="M210.501,71.902
	c0,2.396,0,5.31,0,8.187"/>
<path fill="none" stroke="#0088FF" stroke-width="2" stroke-linecap="round" stroke-miterlimit="10" d="M217.802,89.603
	c0,1.893,0,3.096,0,3.096"/>
<path fill="none" stroke="#0088FF" stroke-width="2" stroke-linecap="round" stroke-miterlimit="10" d="M217.802,79.204
	c0,2.459,0,3.163,0,5.31"/>
<path fill="none" stroke="#0088FF" stroke-width="2" stroke-linecap="round" stroke-miterlimit="10" d="M217.802,66.372
	c0,0,0,2.507,0,5.973"/>
<line fill="none" stroke="#0088FF" stroke-width="2" stroke-linecap="round" stroke-miterlimit="10" x1="225.103" y1="73.009" x2="225.103" y2="92.699"/>
<path fill="none" stroke="#0088FF" stroke-width="2" stroke-linecap="round" stroke-miterlimit="10" d="M232.404,85.842
	c0,2.951,0,6.858,0,6.858"/>
<path fill="none" stroke="#0088FF" stroke-width="2" stroke-linecap="round" stroke-miterlimit="10" d="M232.404,67.699
	c0,0,0,0.313,0,2.434"/>
<line fill="none" stroke="#0088FF" stroke-width="2" stroke-linecap="round" stroke-miterlimit="10" x1="239.705" y1="82.301" x2="239.705" y2="92.699"/>
<line fill="none" stroke="#0088FF" stroke-width="2" stroke-linecap="round" stroke-miterlimit="10" x1="247.006" y1="75.221" x2="247.006" y2="92.699"/>
<path fill="none" stroke="#0088FF" stroke-width="2" stroke-linecap="round" stroke-miterlimit="10" d="M254.307,90.048
	c0,1.625,0,2.651,0,2.651"/>
<path fill="none" stroke="#0088FF" stroke-width="2" stroke-linecap="round" stroke-miterlimit="10" d="M254.307,69.248
	c0,0,0,7.958,0,14.602"/>
<path fill="none" stroke="#0088FF" stroke-width="2" stroke-linecap="round" stroke-miterlimit="10" d="M261.608,80.531
	c0,3.214,0,6.348,0,8.631"/>
<path fill="none" stroke="#0088FF" stroke-width="2" stroke-linecap="round" stroke-miterlimit="10" d="M261.608,66.372
	c0,0,0,1.204,0,3.096"/>
<path fill="none" stroke="#0088FF" stroke-width="2" stroke-linecap="round" stroke-miterlimit="10" d="M268.908,84.956
	c0,4.35,0,7.743,0,7.743"/>
<path fill="none" stroke="#0088FF" stroke-width="2" stroke-linecap="round" stroke-miterlimit="10" d="M268.908,66.372
	c0,0,0,4.728,0,10.177"/>
</svg>
