<?xml version="1.0" encoding="utf-8"?>
<!-- Generator: Adobe Illustrator 17.1.0, SVG Export Plug-In . SVG Version: 6.00 Build 0)  -->
<!DOCTYPE svg PUBLIC "-//W3C//DTD SVG 1.1//EN" "http://www.w3.org/Graphics/SVG/1.1/DTD/svg11.dtd">
<svg version="1.1" id="Layer_1" xmlns="http://www.w3.org/2000/svg" xmlns:xlink="http://www.w3.org/1999/xlink" x="0px" y="0px"
	 viewBox="0 0 480 100" enable-background="new 0 0 480 100" xml:space="preserve">
<g>
	<path fill="#0088FF" d="M428.218,94.504c-11.703,0-22.705-4.557-30.98-12.833c-8.275-8.275-12.832-19.277-12.832-30.98
		s4.557-22.705,12.832-30.98s19.277-12.832,30.98-12.832s22.705,4.557,30.98,12.832c8.275,8.275,12.832,19.277,12.832,30.98
		s-4.557,22.705-12.832,30.98S439.921,94.504,428.218,94.504z M428.218,8.792c-11.192,0-21.714,4.358-29.627,12.272
		S386.319,39.5,386.319,50.691s4.358,21.713,12.272,29.627s18.436,12.272,29.627,12.272c11.192,0,21.714-4.358,29.627-12.272
		c7.914-7.914,12.272-18.436,12.272-29.627s-4.358-21.714-12.272-29.627S439.41,8.792,428.218,8.792z"/>
</g>
<g>
	<path fill="#0088FF" d="M428.218,94.504c-8.369,0-16.213-4.602-22.089-12.959c-5.803-8.254-8.999-19.212-8.999-30.854
		s3.196-22.6,8.999-30.854c5.875-8.356,13.72-12.959,22.089-12.959s16.213,4.602,22.089,12.959
		c5.803,8.254,8.999,19.212,8.999,30.854s-3.196,22.6-8.999,30.854C444.431,89.901,436.587,94.504,428.218,94.504z M428.218,8.792
		c-16.087,0-29.175,18.796-29.175,41.899s13.088,41.899,29.175,41.899s29.175-18.796,29.175-41.899
		C457.393,27.588,444.305,8.792,428.218,8.792z"/>
</g>
<g>
	<path fill="#0088FF" d="M428.218,94.504c-4.244,0-8.137-4.691-10.963-13.208c-2.717-8.189-4.214-19.058-4.214-30.605
		s1.497-22.416,4.214-30.605c2.826-8.517,6.72-13.208,10.963-13.208c4.244,0,8.137,4.691,10.963,13.208
		c2.717,8.189,4.214,19.058,4.214,30.605s-1.497,22.416-4.214,30.605C436.355,89.813,432.461,94.504,428.218,94.504z M428.218,8.792
		c-6.406,0-13.264,16.836-13.264,41.899s6.858,41.899,13.264,41.899s13.264-16.836,13.264-41.899S434.623,8.792,428.218,8.792z"/>
</g>
<g>
	<rect x="384.979" y="48.586" fill="#0088FF" width="86.094" height="1.913"/>
</g>
<g>
	<rect x="427.07" y="7.829" fill="#0088FF" width="1.913" height="84.761"/>
</g>
<g>
	<rect x="391.484" y="27.541" fill="#0088FF" width="73.085" height="1.913"/>
</g>
<g>
	<rect x="390.533" y="70.78" fill="#0088FF" width="74.418" height="1.913"/>
</g>
<g>
	<path fill="#0088FF" d="M334.218,94.504c-11.703,0-22.705-4.557-30.98-12.833c-8.275-8.275-12.832-19.277-12.832-30.98
		s4.557-22.705,12.832-30.98s19.277-12.832,30.98-12.832s22.705,4.557,30.98,12.832c8.275,8.275,12.832,19.277,12.832,30.98
		s-4.557,22.705-12.832,30.98S345.921,94.504,334.218,94.504z M334.218,8.792c-11.192,0-21.714,4.358-29.627,12.272
		S292.319,39.5,292.319,50.691s4.358,21.713,12.272,29.627s18.436,12.272,29.627,12.272c11.192,0,21.714-4.358,29.627-12.272
		c7.914-7.914,12.272-18.436,12.272-29.627s-4.358-21.714-12.272-29.627S345.41,8.792,334.218,8.792z"/>
</g>
<g>
	<path fill="#0088FF" d="M334.218,94.504c-8.369,0-16.213-4.602-22.089-12.959c-5.803-8.254-8.999-19.212-8.999-30.854
		s3.196-22.6,8.999-30.854c5.875-8.356,13.72-12.959,22.089-12.959s16.213,4.602,22.089,12.959
		c5.803,8.254,8.999,19.212,8.999,30.854s-3.196,22.6-8.999,30.854C350.431,89.901,342.587,94.504,334.218,94.504z M334.218,8.792
		c-16.087,0-29.175,18.796-29.175,41.899s13.088,41.899,29.175,41.899s29.175-18.796,29.175-41.899
		C363.393,27.588,350.305,8.792,334.218,8.792z"/>
</g>
<g>
	<path fill="#0088FF" d="M334.218,94.504c-4.244,0-8.137-4.691-10.963-13.208c-2.717-8.189-4.214-19.058-4.214-30.605
		s1.497-22.416,4.214-30.605c2.826-8.517,6.72-13.208,10.963-13.208c4.244,0,8.137,4.691,10.963,13.208
		c2.717,8.189,4.214,19.058,4.214,30.605s-1.497,22.416-4.214,30.605C342.355,89.813,338.461,94.504,334.218,94.504z M334.218,8.792
		c-6.406,0-13.264,16.836-13.264,41.899s6.858,41.899,13.264,41.899s13.264-16.836,13.264-41.899S340.623,8.792,334.218,8.792z"/>
</g>
<g>
	<rect x="290.979" y="48.586" fill="#0088FF" width="86.094" height="1.913"/>
</g>
<g>
	<rect x="333.07" y="7.829" fill="#0088FF" width="1.913" height="84.761"/>
</g>
<g>
	<rect x="297.484" y="27.541" fill="#0088FF" width="73.085" height="1.913"/>
</g>
<g>
	<rect x="296.533" y="70.78" fill="#0088FF" width="74.418" height="1.913"/>
</g>
<g>
	<path fill="#0088FF" d="M240.218,94.504c-11.703,0-22.705-4.557-30.98-12.833c-8.275-8.275-12.832-19.277-12.832-30.98
		s4.557-22.705,12.832-30.98s19.277-12.832,30.98-12.832c11.703,0,22.705,4.557,30.98,12.832s12.832,19.277,12.832,30.98
		s-4.557,22.705-12.832,30.98S251.921,94.504,240.218,94.504z M240.218,8.792c-11.192,0-21.714,4.358-29.627,12.272
		c-7.914,7.914-12.272,18.436-12.272,29.627s4.358,21.713,12.272,29.627s18.436,12.272,29.627,12.272
		c11.192,0,21.714-4.358,29.627-12.272c7.914-7.914,12.272-18.436,12.272-29.627s-4.358-21.714-12.272-29.627
		S251.41,8.792,240.218,8.792z"/>
</g>
<g>
	<path fill="#0088FF" d="M240.218,94.504c-8.369,0-16.213-4.602-22.089-12.959c-5.803-8.254-8.999-19.212-8.999-30.854
		s3.196-22.6,8.999-30.854c5.875-8.356,13.72-12.959,22.089-12.959s16.213,4.602,22.089,12.959
		c5.803,8.254,8.999,19.212,8.999,30.854s-3.196,22.6-8.999,30.854C256.431,89.901,248.587,94.504,240.218,94.504z M240.218,8.792
		c-16.087,0-29.175,18.796-29.175,41.899s13.088,41.899,29.175,41.899s29.175-18.796,29.175-41.899S256.305,8.792,240.218,8.792z"/>
</g>
<g>
	<path fill="#0088FF" d="M240.218,94.504c-4.244,0-8.137-4.691-10.963-13.208c-2.717-8.189-4.214-19.058-4.214-30.605
		s1.497-22.416,4.214-30.605c2.826-8.517,6.72-13.208,10.963-13.208c4.244,0,8.137,4.691,10.963,13.208
		c2.717,8.189,4.214,19.058,4.214,30.605s-1.497,22.416-4.214,30.605C248.355,89.813,244.461,94.504,240.218,94.504z M240.218,8.792
		c-6.406,0-13.264,16.836-13.264,41.899s6.858,41.899,13.264,41.899s13.264-16.836,13.264-41.899
		C253.482,25.628,246.623,8.792,240.218,8.792z"/>
</g>
<g>
	<rect x="196.979" y="48.586" fill="#0088FF" width="86.094" height="1.913"/>
</g>
<g>
	<rect x="239.07" y="7.829" fill="#0088FF" width="1.913" height="84.761"/>
</g>
<g>
	<rect x="203.484" y="27.541" fill="#0088FF" width="73.085" height="1.913"/>
</g>
<g>
	<rect x="202.533" y="70.78" fill="#0088FF" width="74.418" height="1.913"/>
</g>
<path fill="#0088FF" d="M76.03,53.19l-4.713-22.345c-0.975-3.64-3.572-5.536-7.573-5.536h-7.847c-3.944,0-6.597,1.896-7.571,5.536
	L42.53,52.48c-0.329,1.231,0.398,2.492,1.628,2.815c1.229,0.336,2.49-0.398,2.82-1.628l5.467-19.524h1.627l-8.311,29.694h7.206
	v21.997c0,1.59,1.285,2.875,2.869,2.875c1.59,0,2.877-1.285,2.877-2.875V63.837h2.218v21.997c0,1.59,1.291,2.875,2.875,2.875
	s2.871-1.285,2.871-2.875V63.837h7.212l-8.317-29.694h1.627l5.466,19.524c0.329,1.231,1.597,1.964,2.828,1.628
	c1.223-0.323,1.103-1.461,0.774-2.692"/>
<path fill="#0088FF" d="M59.818,23.836c4.325,0,7.715-3.991,6.686-8.484c-0.568-2.481-2.584-4.495-5.064-5.063
	c-4.493-1.03-8.479,2.358-8.479,6.684C52.96,20.762,56.03,23.836,59.818,23.836"/>
<path fill="#0088FF" d="M46.929,52.48l-5.795-21.636c-0.975-3.64-3.572-5.536-7.573-5.536h-7.847c-3.944,0-6.597,1.896-7.571,5.536
	L12.347,52.48c-0.329,1.231,0.398,2.492,1.628,2.815c1.229,0.336,2.49-0.398,2.82-1.628l5.467-19.524l0.049,29.694v21.997
	c0,1.59,1.466,2.875,3.05,2.875c1.59,0,3.168-1.285,3.168-2.875V57.53h2.218v28.304c0,1.59,1.709,2.875,3.292,2.875
	s3.05-1.285,3.05-2.875V63.837l-0.075-29.694l5.466,19.524c0.329,1.231,1.597,1.964,2.828,1.628
	C46.532,54.972,47.259,53.711,46.929,52.48"/>
<path fill="#0088FF" d="M29.635,23.836c3.796,0,6.872-3.074,6.872-6.864c0-3.796-3.076-6.87-6.872-6.87
	c-3.788,0-6.857,3.074-6.857,6.87C22.778,20.762,25.847,23.836,29.635,23.836"/>
<path fill="#0088FF" d="M104.523,59.642l-4.694-16.89c-0.975-3.64-3.572-5.536-7.573-5.536h-7.847c-3.944,0-5.916,1.665-7.571,5.536
	l-4.204,9.729c-0.329,1.231,0.398,2.492,1.628,2.815c1.229,0.336,1.885-0.111,2.12-0.698l4.574-8.548v24.018v16.367
	c0,1.59,1.466,2.875,3.05,2.875c1.59,0,3.168-1.285,3.168-2.875l0.116-18.686h2.218l-0.116,18.686c0,1.59,1.709,2.875,3.292,2.875
	c1.584,0,3.05-1.285,3.05-2.875V70.067L95.71,46.05l4.365,14.778c0.329,1.231,1.597,1.964,2.828,1.628
	C104.125,62.134,104.852,60.873,104.523,59.642"/>
<path fill="#0088FF" d="M88.329,35.743c3.796,0,6.872-3.074,6.872-6.864c0-3.796-3.076-6.87-6.872-6.87
	c-3.788,0-6.857,3.074-6.857,6.87C81.472,32.669,84.541,35.743,88.329,35.743"/>
<text transform="matrix(1 0 0 1 135.4387 80.9034)" fill="#FFFFFF" font-family="'Tungsten-Medium'" font-size="82.4756">=</text>
</svg>
