<?xml version="1.0" encoding="utf-8"?>
<!-- Generator: Adobe Illustrator 17.1.0, SVG Export Plug-In . SVG Version: 6.00 Build 0)  -->
<!DOCTYPE svg PUBLIC "-//W3C//DTD SVG 1.1//EN" "http://www.w3.org/Graphics/SVG/1.1/DTD/svg11.dtd">
<svg version="1.1" id="Layer_1" xmlns="http://www.w3.org/2000/svg" xmlns:xlink="http://www.w3.org/1999/xlink" x="0px" y="0px"
	 viewBox="0 0 125.75 39.125" enable-background="new 0 0 125.75 39.125" xml:space="preserve">
<path fill="none" stroke="#467FC1" stroke-linecap="round" stroke-miterlimit="10" d="M17,4.083
	c-4.625,9.75-11.625,33.125-11.625,33.125"/>
<path fill="none" stroke="#467FC1" stroke-linecap="round" stroke-miterlimit="10" d="M29.375,1.583c-2.25,3-5,8.625-6.625,15.25
	s-4.625,20.5-4.625,20.5"/>
<path fill="none" stroke="#467FC1" stroke-linecap="round" stroke-miterlimit="10" d="M3.375,26.958c1.5-1.75,5.75-3.125,9-3.25
	s4-0.625,4-0.625"/>
<path fill="none" stroke="#467FC1" stroke-linecap="round" stroke-miterlimit="10" d="M30,18.958
	c-2.375,2.125-4.875,7.75-4.875,10.875s2.5,4,4.875,1.125s8.625-10.75,8.25-11.375s-2.75,4.375-2.25,7.5s1.25,4,3.875,1.625
	s7.75-9,8.25-8.75s-1.375,9-0.375,9.125s4.875-6.5,5.875-6.375s0.125,7.5,2.5,8.125s15.75-21.5,18-24.875
	c-3.25,6-9.125,17.25-6.875,23.5s3.625,2.25,6-1.25s4.75-8.5,5.625-7.375s2.875,6.375,5,7.5s18.125,0.75,21.75-0.125
	s12.75-2,14.5-2.375s2.5-0.25,2.5-0.25"/>
<path fill="none" stroke="#467FC1" stroke-linecap="round" stroke-miterlimit="10" d="M54.875,17.333
	c2.625-1.75,9.75-4.5,22.25-5.25s27.125-1.625,27.125-1.625"/>
</svg>
