<?xml version="1.0" encoding="utf-8"?>
<!-- Generator: Adobe Illustrator 17.1.0, SVG Export Plug-In . SVG Version: 6.00 Build 0)  -->
<!DOCTYPE svg PUBLIC "-//W3C//DTD SVG 1.1//EN" "http://www.w3.org/Graphics/SVG/1.1/DTD/svg11.dtd">
<svg version="1.1" id="Layer_1" xmlns="http://www.w3.org/2000/svg" xmlns:xlink="http://www.w3.org/1999/xlink" x="0px" y="0px"
	 viewBox="0 0 125.75 39.125" enable-background="new 0 0 125.75 39.125" xml:space="preserve">
<g>
	<path fill="none" stroke="#467FC1" stroke-miterlimit="10" d="M9.458,26.632c1.66-5.735,6.037-15.393,9.96-20.222
		s6.187-5.131,6.338,1.811s-4.377,20.826-7.093,22.75"/>
</g>
<g>
	<path fill="none" stroke="#467FC1" stroke-miterlimit="10" d="M18.551,16.144c-0.679,1.019-1.019,4.301-1.132,8.036
		c-0.113,3.735-0.34,11.884,0.792,13.695"/>
</g>
<g>
	<path fill="none" stroke="#467FC1" stroke-miterlimit="10" d="M17.532,30.858c1.132-0.113,2.49,1.358,3.056,2.377
		s1.698,2.037,2.83,0.34c1.132-1.698,2.085-4.816,2.085-4.816c0.161-0.526,0.364-0.512,0.451,0.031c0,0,0.86,5.351,2.105,5.238
		s1.698-1.924,0.905-1.358c-0.792,0.566-1.358,3.735,0.113,3.961c1.471,0.226,2.943,0.226,5.772-3.961
		c2.83-4.188,3.961-6.791,3.509-9.96c-0.453-3.169-1.924-4.754-2.943-5.093s-1.585,2.377-1.132,4.641
		c0.453,2.264,3.162,13.516,3.162,13.516c0.129,0.535,0.16,0.528,0.07-0.014c0,0-0.515-3.088,0.164-5.578s1.698-2.264,2.037,0.566
		c0.34,2.83,0.679,4.301,1.698,4.301s1.358-1.358,1.358-3.169c0-1.811,0.007-1.361,0.015-0.811c0,0,0.098,6.697,1.344,3.754
		c1.245-2.943,1.811-5.32,2.264-5.207c0.453,0.113,0.453,4.754,1.132,4.98c0.679,0.226,4.291-2.459,4.291-2.459
		c0.441-0.328,0.701-0.158,0.578,0.378c0,0-0.794,3.44,1.244,1.629c2.037-1.811,2.037-1.811,2.037-1.811
		c0.498-0.062,0.742,0.306,0.543,0.819c0,0-1.222,3.143,0.136,3.256s4.075-6.225,4.527-10.866c0.453-4.641-0.34-9.734-4.867-8.942
		c-4.527,0.792-1.585,8.376,0.113,10.753s4.98,6.338,8.602,7.923"/>
</g>
<g>
	<path fill="none" stroke="#467FC1" stroke-miterlimit="10" d="M70.503,12.748c1.471,1.924,5.093,4.188,9.621,1.245
		s5.32-5.207,5.32-6.338s-3.509-4.867-5.659-5.999c-2.151-1.132-3.848-0.792-4.188,1.924c-0.34,2.716,1.585,11.432,3.848,18.676
		c2.264,7.244,4.075,13.469,3.735,13.582c-0.34,0.113-9.673-8.382-9.673-8.382c-0.407-0.37-0.38-0.403,0.06-0.073
		c0,0,1.916,1.437,5.425,0.758c3.509-0.679,6.338-1.358,6.791-2.037c0.453-0.679-0.905,1.585-0.34,3.056
		c0.566,1.471,2.83,3.961,5.546,1.358c2.716-2.603,3.961-3.848,3.169-3.622c-0.792,0.226-4.075,3.169-2.943,5.659
		c1.132,2.49,2.83-0.566,3.282-2.037c0.453-1.471,1.698-3.961,3.056-3.735c1.358,0.226,1.364,0.237,1.364,0.237
		c0.246,0.492,0.151,1.234-0.21,1.648c0,0-1.84,2.11-0.708,3.581c1.132,1.471,2.384,2.23,4.761,0.079
		c2.377-2.151,3.056-4.867,3.056-10.526s-1.698-7.244-2.49-6.565s-0.34,7.583,0.226,10.526c0.566,2.943,1.019,7.244,1.358,7.697
		c0.34,0.453,1.471-5.659,3.282-7.81s2.943-2.603,3.848,1.811s0,9.394,0,9.394"/>
</g>
</svg>
