<?xml version="1.0" encoding="utf-8"?>
<!-- Generator: Adobe Illustrator 17.1.0, SVG Export Plug-In . SVG Version: 6.00 Build 0)  -->
<!DOCTYPE svg PUBLIC "-//W3C//DTD SVG 1.1//EN" "http://www.w3.org/Graphics/SVG/1.1/DTD/svg11.dtd">
<svg version="1.1" id="Livello_1" xmlns="http://www.w3.org/2000/svg" xmlns:xlink="http://www.w3.org/1999/xlink" x="0px" y="0px"
	 viewBox="197.5 0 85 100" enable-background="new 197.5 0 85 100" xml:space="preserve">
<path fill="#FFFFFF" d="M245.9,25c0.4-0.9,0.8-1.7,1.4-2.6c0.3-0.4,0.5-0.7,0.8-1.1c-0.1,0-0.3,0.1-0.4,0.1
	c-0.3,0.2-0.4,0.5-0.6,0.7c-0.5,0.4-0.5,0.7-0.7,0.9c-0.2,0.2-0.3,0.3-0.5,0.5c-0.1,0.2-0.2,0.3-0.3,0.6c0,0.1-0.1,0-0.3,0.3
	c-0.3,0.3-0.4,0.7-0.5,1.1c0,0.1-0.3,0.2-0.4,0.5c-0.2,0.4-0.3,0.7-0.4,1.3c0,0.1-0.2,0.2-0.4,0.6c-0.1,0.3-0.2,0.3-0.3,0.8
	c-0.1,0.3-0.2,0.3-0.3,0.8c-0.1,0.3-0.1,0.6-0.2,1c0,0.1-0.1,0.2-0.3,0.5c-0.2,0.4-0.2,0.7-0.3,1.1c0,0.1-0.2,0.3-0.4,1
	c-0.1,0.6,0,0.9-0.1,1.2c-0.1,0.7-0.2,1.3-0.2,2c0,0.3,0.1,0.7,0.1,1c-0.1,1-0.1,1.9-0.1,3.1c0,0.6,0.1,1.5,0.1,2.2
	c0.1,0.8,0.3,1.4,0.3,1.4h2.6c0,0-0.1-1.5,0-3.1c0.1-1,0.3-2,0.5-2.7c0.3-0.9,0.4-1.4,0.9-2.6c0,0,0-0.1-0.1,0
	c-0.3,0.2-0.5,0.4-0.7,0.8c-0.3,0.5-0.5,0.9-0.8,1.4c-0.3,0.6-0.5,1.1-0.8,1.8c0-0.5,0.1-1,0.2-1.5c0.1-0.5,0.2-0.9,0.3-1.3
	c0.3-0.7,0.5-1.4,1-2.1c0.3-0.4,0.6-0.8,0.9-1.1c0.4-0.4,0.8-0.7,1.2-1c-0.4-0.2-1,0.2-1.1,0.3c-0.6,0.1-0.9,0.7-1,0.8
	c-0.3,0.1-0.4,0.3-0.6,0.5c-0.1,0.2-0.2,0.4-0.3,0.5c-0.3,0.2-0.4,0.4-0.6,0.7c-0.1,0.1-0.3,0.8-0.5,0.7c0.4-2.2,1.1-4.2,2.3-6
	c0.8-1.1,1.6-2.1,2.9-3c0.2-0.1,0.2-0.2,0-0.2c-1.2,0.1-1.2,0.7-1.4,0.7c-0.2,0-0.4,0.3-0.6,0.4c-0.3,0.3-0.3,0.5-0.4,0.5
	c-0.2,0.1-0.4,0.3-0.5,0.6c-0.1,0.1-0.2,0.4-0.3,0.5c-0.3,0.2-0.6,0.4-0.7,0.7c-0.1,0.2-0.1,0.4-0.3,0.6c-0.1,0.2-0.4,0.4-0.5,0.5
	c0.1-0.9,0.6-2,0.9-3C244.8,27.3,245.3,26.2,245.9,25z"/>
<path fill="#FFFFFF" d="M248.5,32.5c1-2.2,2-3.9,3.4-5.9c0.2-0.3,0.3-0.5,0.5-0.7c0.1-0.1,0.4-0.6,0.5-0.7c0.5-0.7,0.6-0.9,1.1-1.6
	c0.1-0.2,0.2-0.3,0.3-0.5c0.1-0.4-0.2-0.6-0.3-1c-0.1-0.4,0-0.8,0.1-1.1c0.1-0.2,0.2-0.3,0.3-0.5c0.2-0.5,0.1-1.6,0.4-1.7
	c-0.1,0.5-0.1,1.1,0,1.6c0.1,0.6,0.5,0.9,0.6,1.6c0.4-0.1,0.8-0.1,1.2,0c0.3,0,0.8-0.1,1.1-0.2c0.5-0.2,0.8-0.4,1.3-0.6
	c-0.4,0.4-1,0.5-1.4,0.8c-0.2,0.1-0.3,0.3-0.5,0.4c-0.2,0.3-0.3,0.6-0.6,0.7c-0.5,0.2-1,0.1-1.6,0.2c-0.9,0.9-1.7,2.2-2.5,3.5
	c-2,3.3-3.6,6.8-4.6,10.4c0.3-0.6,0.6-1.2,1-1.8c0.4-0.7,0.8-1.3,1.3-1.9c1.1-1.5,2.3-2.8,3.5-4.2c1-1.1,2.1-2,3.4-2.8
	c1.6-1,3.7-1.8,5.5-1.4c0.2,0,0.5,0.1,0.6,0.2c-2.2-0.3-4.2,0.5-5.7,1.7c-1.2,0.9-2.2,1.9-3.2,3.1c-0.5,0.6-1,1.3-1.5,1.9
	c-0.5,0.7-0.9,1.4-1.3,2.1c-1.4,2.4-2.5,4.9-3.4,7.5c0,0.1,0,0.2-0.1,0.2c0-0.1,0.1-0.1,0.1-0.2c1.1-1.8,2.4-3.5,4-4.6
	c0.1-0.1,0.3-0.3,0.3-0.4c0.2-0.7-0.4-1,0.4-2c0.2-0.2,0.4-0.3,0.6-0.5c0.3-0.5,0.5-1.3,0.8-1.5c-0.1,0.5-0.4,1.1-0.5,1.7
	c-0.1,0.6,0.1,1.1,0.1,1.8c0.4,0.1,0.8,0.2,1.1,0.4c0.5,0.2,0.9,0.1,1.4,0.1c0.2,0,0.6-0.1,0.9-0.1c-0.5,0.3-1.2,0.2-1.7,0.5
	c-0.4,0.2-0.5,0.5-1,0.6c-0.4,0.1-0.8,0-1.1-0.1c-0.2-0.1-0.4-0.2-0.6-0.1c-0.5,0.3-0.9,0.6-1.4,1.1c-1,1-1.8,2.2-2.6,3.7
	c-0.2,0.4-0.4,0.8-0.6,1.2c-0.1,0.2-0.3,0.7-0.3,0.7h-2.6c0,0,0-0.8,0-1c0.1-0.6,0.1-1,0.2-1.5c0.2-0.8,0.3-1.5,0.5-2.3
	c0.2-0.8,0.4-1.5,0.7-2.2C247.3,35.3,247.9,33.9,248.5,32.5z"/>
<path fill="#FFFFFF" d="M222.9,53.1c1-0.8,1.7-1.2,2.6-1.8c0.4-0.2,1-0.5,1.4-0.7c1.7-0.8,3.9-1.3,6-1.4c0,0,0,0,0,0h15.5
	c0,0-0.1,0,0.1,0c0.5,0,1,0.2,1.3,0.5c0.3,0.3,0.4,0.7,0.5,1.2c0.1,0.4,0,0.7-0.1,1.1c-0.1,0.3-0.1,0.5-0.3,0.8
	c-0.1,0.2-0.2,0.3-0.4,0.4c-0.2,0.2-0.5,0.2-0.8,0.2c0,0-0.1,0-0.1,0c0,0-18.2,0-18.2,0s-0.1,0-0.2,0c-1.2,0-2.4,0.1-3.6,0.2
	c-0.9,0.1-1.8,0.3-2.7,0.5c-1.1,0.3-2.2,0.7-3.2,1.1C221.5,54.4,222.2,53.7,222.9,53.1z"/>
<path fill="#FFFFFF" d="M228.3,46.9c1-0.7,2.1-1.3,3.1-1.7c0.5-0.2,1.2-0.4,1.8-0.6c0.7-0.2,1.4-0.3,2.1-0.3c0.2,0,0,0,0,0l13.3,0
	c0,0,0.3,0,0.4,0c0.3,0.1,0.5,0.2,0.5,0.2c0.2,0.1,0.5,0.4,0.6,0.6c0.3,0.6,0.4,1.2,0.3,1.8c-0.1,0.7-0.7,1.6-1.4,1.6
	c-0.1,0-0.4,0-0.4,0h-14.4c0,0-0.8,0-1.2,0c-0.7,0-1.5,0.1-2.1,0.2c-0.5,0.1-1,0.2-1.6,0.3c-1.8,0.5-3.3,1.4-4.9,2.1
	C225.4,49.4,226.9,47.9,228.3,46.9z"/>
<path fill="#FFFFFF" d="M220.9,55.9c2.3-1.4,5.1-1.9,7.7-2c0.1,0,0.2,0,0.2,0l19.9,0c0,0,0,0,0.2,0c1.2,0,1.6,1.2,1.6,2.2
	c0,0.3-0.1,0.6-0.1,0.9c-0.1,0.3-0.2,0.5-0.4,0.7c-0.1,0.1-0.3,0.3-0.5,0.3c-0.3,0.1-0.6,0.1-0.6,0.1c0,0-14.8,0-14.8,0
	c0,0-0.8,0-1.4-0.1c-0.4,0-0.7-0.1-1.1-0.2c-1-0.2-1.9-0.5-2.7-0.8c-0.6-0.2-1.2-0.3-1.9-0.4c-1.2-0.2-2.5-0.3-3.7-0.2
	c-1.5,0.1-2.9,0.4-4.3,0.9C219.2,56.9,220.2,56.4,220.9,55.9z"/>
<path fill="#FFFFFF" d="M231.6,62.2c-0.7-0.2-1.3-0.5-1.9-0.9c-0.8-0.5-1.2-0.9-2.2-1.4c-0.9-0.4-1.5-0.8-2.7-1.2
	c-0.6-0.2-1.5-0.5-2.3-0.6c-1.1-0.2-2.3-0.3-2.3-0.3s0.2-0.1,0.4-0.2c1.2-0.4,2.2-0.5,3.4-0.6c1.1-0.1,2,0,3.1,0.2
	c0.4,0.1,1,0.2,1.5,0.3c1.6,0.5,3.4,1.2,5,1.2c0.1,0,0.1,0,0.1,0h14.8c0,0-0.1,0,0,0c0.4,0,1.3,0.1,1.6,0.7c0.4,0.7,0.5,1.5,0.2,2.3
	c-0.1,0.2-0.3,0.6-0.5,0.8c-0.2,0.2-0.5,0.3-0.7,0.3c-0.1,0-0.2,0-0.2,0h-13c0,0,0.1,0-0.1,0C234.5,62.8,232.9,62.6,231.6,62.2z"/>
<path fill="#FFFFFF" d="M237.5,66.8c-0.4-0.4-0.9-1-1.3-1.5c-0.9-1-1.3-2-1.3-2h8.6c0,0,0,1-0.2,2.2c-0.2,1.1-0.6,2.2-1,3
	c0,0.8,0.3,1.6,0.4,2.5c-0.7,0.4-1.5,0.9-2.1,1.5c0,0-0.1,0-0.1-0.1c-0.3-1.3-0.5-2.4-0.8-3.7C238.9,68,238.2,67.5,237.5,66.8z"/>
<path fill="#FFFFFF" d="M246.4,66.1c-0.2-0.5-0.4-1-0.7-1.4c-0.1,0.3,0,0.5,0,0.8c0,0.3-0.2,0.1-0.3,0c-0.1-0.3-0.3-0.8-0.4-1.1
	c-0.2-0.6-0.2-1.1-0.2-1.1l1.4,0c0,0,0.1,0,0.1,0.2c0.1,0.4,0.1,0.7,0.2,1.1c0.1,0.5,0.3,1,0.5,1.5c0.2,0.4,0.4,0.9,0.6,1.3
	c0,0.1,0,0.2,0,0.2c-0.1,0.1-0.1,0.1-0.2,0C246.9,67.2,246.7,66.7,246.4,66.1z"/>
<path fill="#FFFFFF" d="M248.6,67.1c-0.2-0.5-0.6-1.1-0.6-1.7c0.2,0.2,0.2,0.4,0.4,0.5c0.1,0,0.3,0,0.3-0.2c-0.1-0.3-0.2-0.6-0.4-1
	c-0.2-0.7-0.4-1.4-0.4-1.4h-1.5c0,0,0.1,0.6,0.4,1.5c0.3,0.8,0.7,1.7,1.2,2.6c0.4,0.7,0.8,1.3,1.2,1.9c0.2,0.2,0.5,0,0.4-0.2
	C249.3,68.4,248.9,67.8,248.6,67.1z"/>
<path fill="#FFFFFF" d="M258.2,17.5c-0.3,0.1-0.6,0.3-0.8,0.6c-0.1,0.2-0.2,0.6,0,0.7c0.4,0.3,0.9,0,1-0.3c0.2-0.4,0.2-1.3,0.2-1.3
	S258.4,17.4,258.2,17.5z"/>
<path fill="#FFFFFF" d="M258.5,19.6c0.1-0.3,0.4-0.5,0.8-0.7c0.4-0.2,0.8-0.5,1-0.6c0.3-0.2,0.3-0.3,0.3-0.3s-0.2,0.1-0.3,0.2
	c-0.7,0.4-1.4,0.9-1.7,1c-0.4,0.2-0.9,0.2-1.3,0.3c-0.1-0.6-0.2-0.8-0.2-1.3c0-0.2,0.1-0.6,0.1-0.8c0.1-0.7,0.2-1.1,0.2-1.1
	s-0.1,0.1-0.2,0.4c0,0.3-0.1,0.4-0.1,0.8c-0.1,0.4-0.2,0.7-0.4,1c-0.3,0.4-0.7,1-0.4,1.5c0.2,0.3,0.4,0.2,0.5,0.3
	c0.1,0.1,0.1,0.3,0.4,0.3C257.6,20.6,258.2,20.1,258.5,19.6z"/>
<path fill="#FFFFFF" d="M257.8,21.1c0.2-0.3,0.4-0.5,0.7-0.7c0.5-0.3,0.8-0.5,1.1-0.6c0.1-0.1,0.2-0.1,0.3-0.3
	c-0.1,0-0.6,0.3-1.1,0.6c-0.4,0.2-1,0.5-1.4,0.5c-0.2,0-0.3,0-0.4,0c-0.3,0-0.6,0.1-0.6,0.1s-0.1-0.4-0.2-0.7
	c-0.1-0.1-0.2-0.3-0.2-0.5c0-0.2,0-0.4,0-0.6c0-0.5,0.2-0.9,0.1-1.4c-0.3,0.6-0.2,1.4-0.5,1.9c-0.1,0.2-0.3,0.4-0.4,0.6
	c-0.2,0.4-0.2,0.9,0.1,1.3c0.1,0.2,0.5,0.2,0.5,0.3c0.1,0.1,0.2,0.3,0.5,0.4C256.8,21.9,257.5,21.6,257.8,21.1z"/>
<path fill="#FFFFFF" d="M258,33.3c0.1-0.3,0.2-0.6,0.4-0.8c-0.4,0.1-0.4,0.1-1,0.2c-0.1,0-0.4,0.1-0.4,0.2c-0.2,0.2-0.4,0.4-0.3,0.8
	c0,0.1,0.2,0.2,0.2,0.3C257.3,34,257.7,33.8,258,33.3z"/>
<path fill="#FFFFFF" d="M258.4,34c0.5-0.1,1.1-0.4,1.3-0.3c-0.5,0.3-1.1,0.3-1.6,0.5c-0.4,0.1-0.7,0.4-1.1,0.7
	c-0.3,0.3-0.8,0.4-1.2,0.2c-0.1-0.1-0.3-0.3-0.3-0.4c0-0.1-0.2-0.2-0.3-0.3c-0.1-0.1-0.1-0.3-0.1-0.4c0-0.7,0.5-1,1-1.4
	c0.4-0.3,0.9-1.6,1.2-1.9c-0.1,0.4-0.6,1.2-0.9,1.9c-0.2,0.5-0.1,0.9-0.3,1.4c0.4,0,0.8,0.1,1.2,0.1C257.8,34.2,258.1,34.1,258.4,34
	z"/>
<path fill="#FFFFFF" d="M257.9,35.1c-0.3,0.1-0.6,0.1-0.9,0.2c-0.8,0.2-1.2-0.2-1.9-0.2c0.1-0.8-0.2-1.1,0-1.6
	c0.2-0.4,0.4-0.9,0.5-1.3c0.1-0.3,0.2-0.6,0.2-0.6s-0.2,0.3-0.8,1.4c-0.2,0.4-0.6,0.5-0.9,0.8c-0.4,0.4-0.6,1.3,0.1,1.7
	c0.1,0.1,0.1,0.3,0.2,0.4c0.5,0.4,1.4,0.4,1.9-0.1c0.5-0.4,1-0.5,1.5-0.6c0.3-0.1,0.5-0.2,0.5-0.2S258.3,35.1,257.9,35.1z"/>
<path fill="#FFFFFF" d="M242,29.4c0.2-0.9,0.5-1.8,0.6-2.7c0.1-1.4-0.2-2.8-1.1-3.9c0.1,0.5,0.2,0.8,0.3,1.3c0.1,0.6,0,1.2-0.2,1.8
	c-0.1,0.4-0.3,0.9-0.5,1.3c-0.2,0.5-0.6,1-0.9,1.4c-1,1.2-2.5,3.6-2.5,3.6s-0.1,0-0.2,0c0-0.3,0.7-1.3,1-1.9c0.8-1.2,1.4-1.9,2-3
	c0.4-0.7,0.7-1.5,0.8-2.2c0.2-1.5-0.6-3.3-1.8-3.9c0.3,1.1,0.2,2.7-0.4,3.4c-1.1,1.3-1.8,2.2-2.6,3.8c0,0-0.2-0.2-0.4-0.3
	c-0.2-0.1-0.1-0.5-0.1-0.7c-0.1-0.2-0.2-0.4-0.2-0.4c-0.2-0.3-0.5-0.3-0.5-0.4c-0.1-0.1,0-0.3-0.2-0.6c-0.1-0.1-0.4-0.2-0.5-0.4
	c-0.1-0.1-0.2-0.6-0.5-0.8c-0.2-0.1-0.2-0.4-0.4-0.5c-0.5-0.4-0.9-0.3-1-0.4c-0.1,0-0.3-0.3-0.8-0.4c-0.4-0.1-0.6,0.2-0.8,0.1
	c-0.5-0.2-1-0.3-1.6,0.4c-0.2,0.2-0.5,0-0.8,0.3c-0.3,0.2-0.3,0.5-0.5,0.5c-0.3,0.1-0.5,0.3-0.6,0.6c-0.1,0.1-0.1,0.4-0.1,0.6
	c0,0.3-0.2,0.5-0.2,0.7c0,0.3,0.1,0.4,0.1,0.5c0,0.2-0.2,0.3-0.2,0.5c0,0.1,0,0.3,0,0.4c0.1,0.2-0.1,0.3-0.1,0.5
	c-0.1,0.2-0.1,0.4-0.1,0.6c0,0.3,0.2,0.4,0.1,0.6c-0.2,0.3-0.4,0.9,0,1.5c0.1,0.1-0.2,0.4-0.2,0.7c0,0.4,0.2,0.7,0.3,0.8
	c0,0.1-0.1,0.1-0.1,0.1c-1-1.1-1.9-2.1-3.1-3c-0.7-0.6-1.4-1.1-2.2-1.5c-2.1-1.1-4.6-1.9-6.9-1.6c0.8,0.7,1.9,1.2,2.8,1.9
	c0.8,0.7,1.6,1.4,2.3,2.1c1.2,1.2,2.1,2.5,3.1,3.9c0.3,0.4,0.5,0.7,0.8,1.2c0.3,0.4,0.6,0.9,0.8,1.4c1.3,2.2,2.3,4.3,3.4,6.5
	c0.3,0.6,0.5,1.3,0.8,1.9c0.1,0.2,0.2,0,0.3,0c0.4-0.2,0.8-0.4,1.2-0.6c0.3-0.1,0.6-0.2,0.9-0.4c0.7-0.3,1.4-0.4,2.1-0.6
	c1.3-0.3,3.5-0.2,3.5-0.2l4.3,0c0,0,0.1,0,0.1,0c0-1.2-0.3-2.4-0.4-3.6c-0.1-1,0-2,0-2.9C241,34.7,241.4,31.8,242,29.4z M237,31.5
	c0.1,0.2,0.2,0.4,0.1,0.6c-0.1,0.3-0.4,0.3-0.7,0.4c-0.2,0.1-0.7,0.2-0.9,0c-0.2-0.2-0.3-0.7,0-1C235.9,31.3,236.8,31,237,31.5z
	 M234,36.4c-0.3,0.3-0.8,0.3-1.2,0.5c-0.2,0-0.4-0.1-0.5-0.3c-0.2-0.3-0.3-0.7,0-1c0.3-0.2,0.6-0.2,1-0.3c0.1,0,0.3-0.1,0.5,0
	C234.1,35.5,234.2,36.1,234,36.4z M234.5,37.5c0.1,0.4,0,0.7-0.3,0.8c-0.4,0.1-1,0.4-1.3,0.1c-0.4-0.3-0.6-1-0.1-1.3
	C233.3,36.9,234.3,36.7,234.5,37.5z M229.1,27.6c0.1-0.3,0.5-0.3,0.8-0.3c0.4,0.1,0.5,0.5,0.3,0.7c-0.2,0.3-0.6,0.2-1,0.2
	C229,28.2,229,27.9,229.1,27.6z M229,26.5c0-0.1,0.1-0.1,0.1-0.2c0.3-0.1,0.6-0.2,0.8,0c0.2,0.1,0.2,0.4,0,0.5
	c-0.2,0.2-0.6,0.2-0.8,0.1C229,26.9,229,26.7,229,26.5z M231.5,27.1c-0.3,0.2-0.8,0.3-1,0.1c-0.3-0.1-0.2-0.5-0.1-0.7
	c0.2-0.3,0.7-0.4,1.1-0.3C231.8,26.3,231.9,26.9,231.5,27.1z M231.9,27.6c0.3,0.2,0.3,0.6,0.2,0.8c-0.2,0.3-1,0.5-1.4,0.2
	c-0.2-0.2-0.4-0.9,0.1-1C231.2,27.5,231.6,27.4,231.9,27.6z M229.3,28.7c0.4-0.1,1-0.3,1.2,0.2c0.2,0.7-0.7,0.8-1.1,0.7
	C229,29.6,228.9,28.9,229.3,28.7z M229.2,30.3c0.3-0.4,0.8-0.4,1.2-0.3c0.3,0.1,0.4,0.4,0.4,0.7c0,0.2-0.1,0.3-0.2,0.4
	c-0.3,0.1-0.6,0.2-1,0.2C229.2,31.2,229,30.6,229.2,30.3z M229.4,31.7c0.3-0.3,0.8-0.3,1.2-0.3c0.2,0,0.4,0.3,0.4,0.6
	c0.1,0.7-0.9,0.9-1.4,0.7C229.3,32.6,229.2,32,229.4,31.7z M230.9,29.9c-0.2-0.8,0.7-1,1.3-0.9c0.4,0.1,0.5,0.8,0.2,1.1
	C231.9,30.3,231.1,30.4,230.9,29.9z M234.7,30.7c-0.2,0.4-0.9,0.4-1.3,0.4c-0.2,0-0.4-0.4-0.4-0.7c0-0.2,0.1-0.3,0.2-0.3
	c0.4-0.2,0.7-0.3,1.1-0.3C234.7,29.9,234.9,30.4,234.7,30.7z M234.9,31.5c0.1,0.2,0.2,0.5,0,0.8c-0.2,0.3-0.9,0.4-1.2,0.3
	c-0.2,0-0.3-0.3-0.3-0.4c0-0.2-0.1-0.4,0.1-0.6c0.3-0.2,0.6-0.2,1-0.2C234.7,31.3,234.9,31.4,234.9,31.5z M234.4,29.2
	c-0.2,0.4-1.3,0.6-1.5,0.2c-0.2-0.3-0.3-0.7,0-0.9c0.3-0.2,0.7-0.3,1.1-0.2C234.4,28.3,234.5,28.9,234.4,29.2z M233.7,27.9
	c-0.2,0.2-0.4,0.2-0.6,0.3c-0.3,0.1-0.7-0.1-0.7-0.5c-0.1-0.5,0.5-0.6,0.9-0.7c0.3-0.1,0.5,0.2,0.5,0.4
	C233.8,27.6,233.8,27.8,233.7,27.9z M231.3,30.7c0.4-0.2,1.3-0.6,1.5,0.1c0.1,0.3,0.1,0.6-0.2,0.7c-0.3,0.2-0.9,0.4-1.3,0.1
	C231.1,31.5,231,30.9,231.3,30.7z M231.7,32.3c0.4-0.3,1.3-0.5,1.5,0.2c0.1,0.2,0.1,0.4,0,0.5c-0.2,0.4-0.9,0.5-1.3,0.4
	C231.5,33.3,231.3,32.6,231.7,32.3z M232,33.9c0.4-0.2,0.9-0.4,1.3-0.2c0.2,0.1,0.4,0.6,0.2,0.8c-0.3,0.4-1,0.6-1.4,0.4
	C231.7,34.8,231.6,34.1,232,33.9z M233.8,33.8c-0.1-0.2-0.2-0.6,0-0.7c0.4-0.3,1.2-0.5,1.5-0.1c0.2,0.3,0.1,0.8-0.2,0.9
	C234.7,34.1,234,34.4,233.8,33.8z M236.2,29.7c0.2,0,0.3,0.2,0.4,0.4c0.1,0.3,0,0.6-0.1,0.6c-0.2,0.1-0.9,0.5-1.3,0.3
	c-0.2-0.1-0.3-0.4-0.3-0.6C234.9,29.9,235.8,29.7,236.2,29.7z M236.1,28.7c0.1,0.2,0.1,0.5,0,0.6c-0.2,0.3-0.9,0.5-1.1,0.4
	c-0.2-0.1-0.4-0.5-0.2-0.8c0.2-0.3,0.7-0.4,1.1-0.4C235.9,28.5,236,28.6,236.1,28.7z M235.3,27.1c0.4,0,0.4,0.6,0.4,0.8
	c-0.1,0.2-0.3,0.3-0.4,0.3c-0.3,0.1-0.6,0.2-0.8,0.1c-0.2-0.1-0.3-0.5-0.2-0.7C234.4,27.2,235,27.1,235.3,27.1z M234.9,26.4
	c0.1,0.3-0.1,0.4-0.3,0.5c-0.2,0.1-0.5,0.2-0.7,0.1c-0.2-0.2-0.3-0.5-0.1-0.7C234.1,26,234.7,25.8,234.9,26.4z M233.9,25.2
	c0.2,0,0.2,0.1,0.3,0.3c0,0.2,0,0.3-0.2,0.4c-0.2,0.1-0.4,0.2-0.6,0.2c-0.2,0-0.4-0.3-0.3-0.6C233.3,25.3,233.7,25.2,233.9,25.2z
	 M233.4,24.4c0.1,0,0.2,0.2,0.2,0.4c0,0.1-0.2,0.2-0.3,0.2c-0.2,0.1-0.4,0.1-0.5-0.1C232.6,24.6,233.1,24.3,233.4,24.4z M233,26
	c0.2,0.1,0.3,0.4,0.1,0.6c-0.2,0.2-0.4,0.3-0.7,0.3c-0.2,0-0.4-0.1-0.5-0.3c0-0.1-0.1-0.4,0.1-0.5C232.4,25.8,232.7,25.7,233,26z
	 M232.6,25c0.1,0.2-0.1,0.5-0.2,0.5c-0.2,0.1-0.6,0.2-0.7,0c-0.1-0.2,0-0.5,0.2-0.6C232.2,24.9,232.4,24.7,232.6,25z M231.3,24.2
	c0.1-0.3,0.4-0.4,0.8-0.3c0.1,0,0.2,0.1,0.2,0.2c0,0.2,0,0.4-0.2,0.5c-0.2,0.1-0.4,0.2-0.6,0.1C231.3,24.6,231.2,24.4,231.3,24.2z
	 M231.4,25.4c-0.1,0.2-0.2,0.3-0.4,0.4c-0.2,0.1-0.6,0.1-0.7-0.1c-0.1-0.1-0.2-0.3-0.1-0.5c0.2-0.3,0.6-0.4,0.9-0.3
	C231.3,25,231.5,25.2,231.4,25.4z M230,24.3c0.1-0.3,0.4-0.5,0.8-0.4c0.3,0.1,0.3,0.5,0.2,0.6c-0.1,0.1-0.2,0.2-0.4,0.2
	C230.2,24.8,229.9,24.6,230,24.3z M229.8,26c-0.3,0.1-0.7,0.1-0.8-0.2c-0.1-0.5,0.5-0.6,0.8-0.5C230.1,25.4,230.1,25.9,229.8,26z
	 M229,24.7c0-0.1,0.1-0.2,0.2-0.2c0.1,0,0.3-0.1,0.4,0c0.3,0.1,0.2,0.4-0.1,0.6c-0.1,0.1-0.3,0.1-0.4,0.1
	C229,25,228.9,24.9,229,24.7z M228.1,25.3c0.2-0.1,0.5-0.1,0.6,0.1c0.2,0.2,0,0.5-0.3,0.5c-0.1,0-0.3,0-0.3-0.1
	C227.9,25.7,228,25.3,228.1,25.3z M227.9,26.1c0.2-0.1,0.5-0.1,0.7,0c0.1,0,0.2,0.2,0.2,0.4c-0.1,0.2-0.3,0.3-0.5,0.3
	c-0.2,0-0.4,0-0.5-0.2C227.7,26.5,227.7,26.2,227.9,26.1z M228.7,27.3c0.1,0,0.2,0.1,0.2,0.2c0.1,0.3,0,0.5-0.3,0.6
	c-0.4,0.1-0.9,0.1-0.9-0.4C227.6,27.1,228.2,27.1,228.7,27.3z M227.6,28.5c0.3-0.1,0.9-0.2,1.2,0.2c0.1,0.2,0.1,0.7-0.1,0.7
	c-0.2,0.1-1,0.2-1.2-0.2C227.3,28.9,227.4,28.6,227.6,28.5z M227.4,29.9c0.3-0.3,0.7-0.2,1.1-0.1c0.1,0,0.2,0.1,0.2,0.1
	c0.3,0.3,0.3,0.7,0,0.9c-0.3,0.3-0.8,0.1-1.2,0.1c-0.1,0-0.2-0.1-0.3-0.2C227.2,30.5,227.2,30.1,227.4,29.9z M227.4,31.7
	c0.2-0.5,1-0.5,1.4-0.3c0.3,0.2,0.4,0.8,0,1.1c-0.3,0.2-0.8,0.1-1.1,0.1C227.3,32.5,227.2,32,227.4,31.7z M227.6,33.7
	c-0.2-0.2-0.1-0.5,0.1-0.6c0.3-0.2,0.9-0.2,1.2-0.1c0.2,0.1,0.3,0.4,0.3,0.7c0,0.1-0.1,0.3-0.1,0.4c-0.3,0.2-0.7,0.2-1,0.1
	C227.9,34.1,227.8,33.8,227.6,33.7z M229.3,35.6c-0.3-0.2-0.5-0.6-0.7-0.9c-0.1-0.1,0-0.1,0-0.1c0.6-0.2,1,0.1,0.9,0.8
	C229.5,35.5,229.4,35.7,229.3,35.6z M229.7,33.5c0-0.2,0.2-0.2,0.4-0.3c0.4-0.1,0.8-0.2,1.2,0c0.1,0.1,0.1,0.2,0.2,0.4
	c0,0.3,0,0.5-0.2,0.6c-0.4,0.2-0.8,0.2-1.2,0.2C229.6,34.3,229.6,33.8,229.7,33.5z M230.1,34.9c0.5-0.3,1.4-0.5,1.5,0.3
	c0,0.3,0,0.6-0.4,0.7c-0.4,0.1-0.8,0.2-1.1,0.1C229.9,35.8,229.8,35.1,230.1,34.9z M230,36.9c-0.1-0.1-0.1-0.2,0-0.3
	c0.4-0.3,0.9-0.3,1.3-0.3c0.5,0.1,0.7,0.6,0.6,1c-0.1,0.6-1,0.6-1.2,0.5C230.4,37.7,230.3,37.2,230,36.9z M231.1,38.6
	c-0.1-0.1-0.2-0.3-0.1-0.4c0.7-0.2,1.2-0.3,1.4,0.5c0.1,0.5-0.3,1-0.8,0.8C231.4,39.5,231.3,38.9,231.1,38.6z M232.5,41.2
	c-0.4-0.3-0.4-0.8-0.7-1.2c0.3-0.2,0.8-0.1,0.9,0.2c0.1,0.3,0.2,0.7-0.1,1C232.6,41.2,232.6,41.3,232.5,41.2z M233.1,42.6
	c-0.2-0.1-0.2-0.3-0.2-0.4c-0.1-0.1-0.2-0.3-0.2-0.5C233,41.9,233.2,42.2,233.1,42.6z M233.9,41.5c-0.1,0.2-0.1,0.5-0.2,0.7
	c0,0.1-0.1,0-0.1,0c-0.1-0.4-0.2-0.7-0.1-1c0.1-0.2,0.3-0.3,0.6-0.4C233.9,41,233.9,41.3,233.9,41.5z M234.5,39.3
	c-0.1,0.3-0.2,0.6-0.3,0.8c-0.1,0.3-0.6,0.4-0.9,0.3c-0.4-0.1-0.7-1-0.3-1.3c0.3-0.2,0.7-0.3,1.1-0.3c0.1,0,0.4,0,0.4,0
	C234.6,38.9,234.6,39,234.5,39.3z M235.1,37.3c-0.1,0.2-0.4-0.4-0.4-0.6c-0.1-0.7,0.5-0.9,1.1-0.9C235.7,36.2,235.4,36.9,235.1,37.3
	z M235.9,35.1c-0.2,0.4-0.6,0.5-1,0.5c-0.1,0-0.3,0-0.4-0.1c-0.2-0.2-0.3-0.4-0.3-0.7c0-0.2,0.2-0.4,0.3-0.4c0.3-0.1,0.7-0.3,1-0.1
	C235.9,34.5,236,34.8,235.9,35.1z M237.3,33c-0.3,0.4-0.4,0.8-0.7,1.1c-0.2,0.2-0.4,0.1-0.5-0.1c-0.1-0.2-0.4-0.5-0.2-0.7
	c0.3-0.4,0.9-0.6,1.4-0.5C237.2,32.7,237.4,32.9,237.3,33z M241.2,44C241.1,44,241.1,44,241.2,44L241.2,44z"/>
<path fill="#FFFFFF" d="M212.9,19.3c-0.8,0.8-1.1,1.1-1.6,2.1c-0.3,0.5-0.6,1.2-0.8,2.1c1.7-0.6,3.1-2,4.4-3.4
	c0.9-1.1,1.7-2.5,2.6-3.6C215.9,16.9,214.2,18,212.9,19.3z"/>
<path fill="#FFFFFF" d="M208,21.6c0.6-1.1,1.6-2.3,2.5-3.1c-0.4,1-1,2-1.2,3.2c-0.4,2.3-0.7,4-1.1,6.1c1.1-0.8,2.2-1.9,3.3-2.8
	c0.9-0.6,1.7-1.1,2.6-1.7c0.5-0.4,0.9-0.8,1.3-1.3c-0.5,2.2-2.5,4.5-3.9,5.5c-1.8,1.3-2.4,1.5-5.2,4.4
	C206.1,28.4,206.2,24.7,208,21.6z"/>
<path fill="#FFFFFF" d="M202.3,33.4c0.1-1.8,0.4-3.3,0.8-5.1c0.3-1.3,1-3.1,2-3.9c-0.1,0.5-0.2,1.1-0.2,1.6c-0.2,1.9,0.2,4.1,0.2,6
	c0,0.9,0,1.6-0.1,2.5c-0.1,0.9,0,2,0,2s0.5-0.6,1-1.3c1-1.6,1.3-2,2.1-2.9c1-1,2.1-2,3.3-2.9c-0.1,0.6-0.8,1.7-1,2.2
	c-0.3,0.6-0.5,1.2-1.3,2.5c-1.2,1.9-1.7,2.2-3,4.3c-0.3,0.4-1.4,2.2-1.7,2.7c-0.6-1.2-0.8-2.3-1.6-4.4
	C202.1,35.5,202.2,34.2,202.3,33.4z"/>
<path fill="#FFFFFF" d="M200.5,42.9c-0.7-1.8-1-3.5-1.3-5.4c-0.1-1.2-0.1-2.7,0.3-3.8c0.1,0.3,0.3,1,0.4,1.1c0.3,1,0.4,1.5,0.9,2.6
	c0.3,0.8,0.7,1.4,1.2,2.2c0.4,0.7,0.7,1.6,1,2.3c0.9,2.2,1,4.4,1.3,4.6c0.3-0.5,0.3-1.1,0.4-1.3c0.3-2.5,0.6-4.8,3.7-7.7
	c0.3,0.9,0.1,2.5,0,3.3c-0.4,1.9-0.7,2.8-1.5,4.6c-0.4,1-1,2.4-1.2,2.8c-0.4,1.2-0.6,1.9-0.8,2.6C203.4,48.3,201.6,45.7,200.5,42.9z
	"/>
<path fill="#FFFFFF" d="M202.9,54.3c-1.1-1.5-1.4-2.2-2.1-3.8c-0.6-1.3-0.7-1.8-1.1-3.3c-0.2-0.8-0.3-1.5-0.1-2
	c0.8,1.5,1.4,3.2,2.5,4.4c0.9,1,1.7,1.8,2.4,2.7c1,1.3,1.9,2.5,2.9,3.8c0.1-0.7,0.1-1.3,0-2.4c-0.2-1.5-0.1-2.7,0.2-4.2
	c0.3-1.8,0.6-2.7,1.2-4.6c0.8,1.5,0.8,3.3,1,4.9c0.4,3.1-0.6,6.9-0.8,8.5c-0.1,0.4,0,1.4,0,1.8c-1.5-1.2-2.8-2.3-4-3.6
	C204.2,55.9,203.4,55,202.9,54.3z"/>
<path fill="#FFFFFF" d="M208.5,65.8c-0.7-0.5-2.5-1.9-3.3-2.9c-1.2-1.6-1.5-2.2-2.3-4.1c-0.1-0.2-0.6-1.2-0.6-1.9
	c2.7,3.2,5.1,3.7,7.6,6.4c0.9,1,1.9,1.9,2.4,2.4c0.4,0.4,0.9,0.5,0.9,0.5s-0.1-0.7-0.3-1.2c-1.7-3.3-2-6.7-1.8-10.3
	c0.8,1,1,1.6,1.5,2.5c0.5,1,0.8,1.6,1.1,2.3c1.5,3.6,1.8,7.8,2.7,9.9C213.6,68.4,211.4,67.9,208.5,65.8z"/>
<path fill="#FFFFFF" d="M219.9,74.4c-0.8,0.1-2.2,0-3-0.1c-4-0.6-7.7-3.5-9.6-6.7c1.7,1,2.9,1.7,4.4,2.2c1.3,0.5,2.6,0.6,4.8,1.2
	c1.3,0.4,2.7,0.9,3.1,1.1c1.5,0.6,2.1,0.4,2.1,0.4s0-0.2-0.6-0.8c-1.1-1.2-1.5-1.5-2.4-2.4c-0.3-0.3-1-1.3-1.3-2
	c-1-1.9-1.1-3.5-2-5.6c3.3,1.9,4.8,4.6,6.6,7.9c0.5,1,1.2,2.2,1.9,2.8c0.4,0.4,1.1,1.1,1.1,1.1s-0.5,0.1-1.9,0.3
	C222.5,73.9,221.2,74.3,219.9,74.4z"/>
<path fill="#FFFFFF" d="M235.7,74.6c1.7,0.3,3.2,0.7,4.8,1.2c0.4,0.1,1.1,0.5,1.5,0.7c1.1,0.6,1.7,0.9,2.7,1.6
	c1.5,1.1,3.2,2.2,4.7,3.9c0,0,0.3,0.3,0.1,0.4c-0.3,0.2-1,0.6-1.3,0.3c-1.4-1.2-1.3-1.6-2.9-3.1c-0.4-0.4-1.1-0.9-1.8-1.4
	c-0.7-0.5-1.6-1.1-2.5-1.5c-0.8-0.4-1.9-0.5-2.6-0.5l0,0c-0.3,0-2,0-2.4,0c-3.4,0.2-3.2,0.5-5.2,1.1c-1.6,0.4-3.3,0.7-5,1
	c-1.7,0.2-3.3,0.3-4.9,0.1c-2.2-0.2-4.6-0.8-6.5-2c1.7,0,3.4,0.3,5,0.2c0.7-0.1,1.8-0.2,2.6-0.4c1.5-0.5,2.4-0.6,4-1.1
	c1.4-0.4,2.8-0.5,4.2-0.7C232.2,74.3,234.1,74.4,235.7,74.6z"/>
<path fill="#FFFFFF" d="M266.6,19.3c0.8,0.8,1.1,1.1,1.6,2.1c0.3,0.5,0.6,1.2,0.8,2.1c-1.7-0.6-3.1-2-4.4-3.4
	c-0.9-1.1-1.7-2.5-2.6-3.6C263.6,16.9,265.3,18,266.6,19.3z"/>
<path fill="#FFFFFF" d="M271.5,21.6c-0.6-1.1-1.6-2.3-2.5-3.1c0.4,1.1,1.1,2.4,1.2,3.2c0.2,2.4,0.7,4,1.1,6.1
	c-1.1-0.8-2.2-1.9-3.3-2.8c-0.9-0.6-1.7-1.1-2.6-1.7c-0.5-0.4-0.9-0.8-1.3-1.3c0.5,2.2,2.5,4.5,3.9,5.5c1.8,1.3,2.4,1.5,5.2,4.4
	C273.4,28.4,273.3,24.7,271.5,21.6z"/>
<path fill="#FFFFFF" d="M277.2,33.4c-0.1-1.8-0.4-3.3-0.8-5.1c-0.3-1.3-1-3.1-2-3.9c0.1,0.5,0.2,1.1,0.2,1.6c0.2,1.9-0.2,4.1-0.2,6
	c0,0.9,0,1.6,0.1,2.5c0.1,0.9,0,2,0,2s-0.5-0.6-1-1.3c-1-1.6-1.3-2-2.1-2.9c-1-1-2.1-2-3.3-2.9c0.1,0.6,0.8,1.7,1,2.2
	c0.4,0.6,0.5,1.2,1.3,2.5c1.2,1.9,1.7,2.2,3,4.3c0.3,0.4,1.4,2.2,1.7,2.7c0.6-1.2,0.8-2.3,1.6-4.4C277.3,35.5,277.3,34.2,277.2,33.4
	z"/>
<path fill="#FFFFFF" d="M279,42.9c0.7-1.8,1-3.5,1.3-5.4c0.1-1.2,0.1-2.7-0.3-3.8c-0.1,0.3-0.3,1-0.4,1.1c-0.3,1-0.4,1.5-0.9,2.6
	c-0.3,0.8-0.7,1.4-1.2,2.2c-0.4,0.7-0.7,1.6-1,2.3c-0.9,2.2-1,4.4-1.3,4.6c-0.3-0.5-0.3-1.1-0.4-1.3c-0.3-2.5-0.6-4.8-3.7-7.7
	c-0.3,0.9-0.1,2.5,0,3.3c0.4,1.9,0.7,2.8,1.5,4.6c0.4,1,1,2.4,1.2,2.8c0.4,1.2,0.6,1.9,0.8,2.6C276.1,48.3,277.9,45.7,279,42.9z"/>
<path fill="#FFFFFF" d="M276.6,54.3c1.1-1.5,1.4-2.2,2.1-3.8c0.6-1.3,0.7-1.8,1.1-3.3c0.2-0.8,0.3-1.5,0.1-2
	c-0.8,1.5-1.4,3.2-2.5,4.4c-0.9,1-1.7,1.8-2.4,2.7c-1,1.3-1.9,2.5-2.9,3.8c-0.1-0.7-0.1-1.3,0-2.4c0.2-1.5,0.1-2.7-0.2-4.2
	c-0.3-1.8-0.6-2.7-1.2-4.6c-0.8,1.5-0.8,3.3-1,4.9c-0.4,3.1,0.6,6.9,0.8,8.5c0.1,0.4,0,1.4,0,1.8c1.5-1.2,2.8-2.3,4-3.6
	C275.3,55.9,276.1,55,276.6,54.3z"/>
<path fill="#FFFFFF" d="M271,65.8c0.7-0.5,2.5-1.9,3.3-2.9c1.2-1.6,1.5-2.2,2.3-4.1c0.1-0.2,0.6-1.2,0.6-1.9
	c-2.7,3.2-5.1,3.7-7.6,6.4c-0.9,1-1.9,1.9-2.4,2.4c-0.4,0.4-0.9,0.5-0.9,0.5s0.1-0.7,0.3-1.2c1.7-3.3,2-6.7,1.8-10.3
	c-0.8,1-1,1.6-1.5,2.5c-0.5,1-0.8,1.6-1.1,2.3c-1.5,3.6-1.8,7.8-2.7,9.9C265.9,68.4,268.1,67.9,271,65.8z"/>
<path fill="#FFFFFF" d="M259.6,74.4c0.8,0.1,2.2,0,3-0.1c4-0.6,7.7-3.5,9.6-6.7c-1.7,1-2.9,1.7-4.4,2.2c-1.3,0.5-2.6,0.6-4.8,1.2
	c-1.3,0.4-2.7,0.9-3.1,1.1c-1.5,0.6-2.1,0.4-2.1,0.4s0-0.2,0.6-0.8c1.1-1.2,1.5-1.5,2.4-2.4c0.3-0.3,1-1.3,1.3-2
	c1-1.9,1.1-3.5,2-5.6c-3.3,1.9-4.8,4.6-6.6,7.9c-0.5,1-1.2,2.2-1.9,2.8c-0.4,0.4-1.1,1.1-1.1,1.1s0.5,0.1,1.9,0.3
	C257,73.9,258.3,74.3,259.6,74.4z"/>
<path fill="#FFFFFF" d="M243.8,74.6c-1.7,0.3-3.2,0.7-4.8,1.2c-0.4,0.1-1.1,0.5-1.5,0.7c-1.1,0.6-1.7,0.9-2.7,1.6
	c-1.5,1.1-3.2,2.2-4.7,3.9c0,0-0.3,0.3-0.1,0.4c0.3,0.2,1,0.6,1.2,0.3c1.4-1.2,1.3-1.6,2.9-3.1c0.4-0.4,1.1-0.9,1.8-1.4
	c0.7-0.5,1.6-1.1,2.5-1.5c0.8-0.4,1.9-0.5,2.6-0.5l0,0c0.3,0,2,0,2.4,0c3.4,0.2,3.2,0.5,5.2,1.1c1.6,0.4,3.3,0.7,5,1
	c1.7,0.2,3.3,0.3,4.9,0.1c2.2-0.2,4.6-0.8,6.5-2c-1.7,0-3.4,0.3-5,0.2c-0.7-0.1-1.8-0.2-2.6-0.4c-1.5-0.5-2.4-0.6-4-1.1
	c-1.4-0.4-2.8-0.5-4.2-0.7C247.3,74.3,245.4,74.4,243.8,74.6z"/>
<path fill="#FFFFFF" d="M237.6,0.5l-3,11.3h-3.2l-2-7.3l-2,7.3h-3.2l-3-11.3h3l1.7,7.7l2.1-7.7h2.9l2,7.7l1.8-7.7H237.6z"/>
<path fill="#FFFFFF" d="M247.6,2.6h-5.2v2.1h4.8v2.2h-4.8v4.8h-2.9V0.5h8.1V2.6z"/>
<path fill="#FFFFFF" d="M258.9,4c0,0.5-0.1,1-0.3,1.5c-0.2,0.5-0.4,0.9-0.8,1.2c-0.4,0.4-0.9,0.8-1.5,1c-0.6,0.2-1.2,0.3-2.1,0.3
	h-1.8v3.7h-2.9V0.5h4.8c0.7,0,1.3,0.1,1.8,0.2c0.5,0.1,0.9,0.3,1.3,0.6c0.5,0.3,0.8,0.7,1,1.1C258.8,2.8,258.9,3.4,258.9,4z
	 M255.9,4.1c0-0.3-0.1-0.6-0.3-0.8c-0.2-0.2-0.4-0.4-0.6-0.5c-0.3-0.1-0.6-0.2-0.9-0.2c-0.3,0-0.7,0-1.2,0h-0.5v3.4h0.8
	c0.5,0,0.9,0,1.2-0.1c0.3-0.1,0.6-0.2,0.8-0.4c0.2-0.2,0.3-0.4,0.4-0.6C255.9,4.7,255.9,4.4,255.9,4.1z"/>
<path fill="#FFFFFF" d="M216.5,90.3l-2,6.5h-2.2l-1.3-4.4l-1.3,4.4h-2.2l-2-6.5h2.2l1.1,4.5l1.4-4.5h1.9l1.3,4.5l1.1-4.5H216.5z"/>
<path fill="#FFFFFF" d="M221.7,89.3h-0.2c-0.1,0-0.2-0.1-0.4-0.1c-0.1,0-0.3-0.1-0.5-0.1c-0.4,0-0.7,0.1-0.8,0.2
	c-0.1,0.1-0.2,0.4-0.2,0.9v0.1h1.6v1.4h-1.5v5.1h-2.1v-5.1h-0.9v-1.4h0.9v-0.2c0-0.8,0.2-1.4,0.6-1.8c0.4-0.4,1.1-0.6,1.9-0.6
	c0.3,0,0.6,0,0.8,0c0.3,0,0.5,0.1,0.7,0.1V89.3z"/>
<path fill="#FFFFFF" d="M228.7,93.4c0,0.5-0.1,1-0.2,1.5c-0.2,0.4-0.4,0.8-0.6,1.1c-0.3,0.3-0.6,0.5-0.9,0.7
	c-0.4,0.2-0.7,0.2-1.1,0.2c-0.4,0-0.7,0-0.9-0.1c-0.3-0.1-0.5-0.2-0.8-0.3v2.7h-2.1v-8.9h2.1v0.7c0.3-0.3,0.6-0.5,1-0.6
	c0.3-0.2,0.7-0.2,1.2-0.2c0.8,0,1.4,0.3,1.9,0.9C228.5,91.6,228.7,92.4,228.7,93.4z M226.6,93.5c0-0.6-0.1-1.1-0.3-1.4
	c-0.2-0.3-0.6-0.4-1-0.4c-0.2,0-0.4,0-0.6,0.1c-0.2,0.1-0.4,0.1-0.6,0.3v3.3c0.1,0.1,0.3,0.1,0.4,0.1c0.2,0,0.3,0,0.5,0
	c0.6,0,1-0.2,1.2-0.5C226.4,94.6,226.6,94.1,226.6,93.5z"/>
<path fill="#FFFFFF" d="M253.3,96.8h-2.2v-2.3h2.2V96.8z"/>
<path fill="#FFFFFF" d="M261.4,93.5c0,1.1-0.3,1.9-0.9,2.5c-0.6,0.6-1.5,0.9-2.6,0.9c-1.1,0-2-0.3-2.6-0.9c-0.6-0.6-0.9-1.5-0.9-2.5
	c0-1.1,0.3-1.9,0.9-2.5c0.6-0.6,1.5-0.9,2.6-0.9c1.1,0,2,0.3,2.6,0.9C261.1,91.6,261.4,92.4,261.4,93.5z M258.8,95.1
	c0.1-0.2,0.2-0.4,0.3-0.6c0.1-0.2,0.1-0.6,0.1-1c0-0.4,0-0.7-0.1-1c-0.1-0.3-0.2-0.5-0.3-0.6c-0.1-0.2-0.3-0.3-0.4-0.3
	c-0.2-0.1-0.4-0.1-0.6-0.1c-0.2,0-0.4,0-0.5,0.1c-0.2,0.1-0.3,0.2-0.4,0.3c-0.1,0.1-0.2,0.4-0.3,0.6c-0.1,0.3-0.1,0.6-0.1,1
	c0,0.4,0,0.7,0.1,0.9c0.1,0.3,0.2,0.5,0.3,0.6c0.1,0.1,0.3,0.3,0.4,0.3c0.2,0.1,0.4,0.1,0.6,0.1c0.2,0,0.4,0,0.5-0.1
	C258.6,95.4,258.7,95.3,258.8,95.1z"/>
<path fill="#FFFFFF" d="M267,92.2h-0.2c-0.1,0-0.2-0.1-0.4-0.1c-0.2,0-0.4,0-0.5,0c-0.3,0-0.6,0-0.8,0.1c-0.2,0-0.5,0.1-0.7,0.2v4.4
	h-2.1v-6.5h2.1v1c0.5-0.4,0.9-0.7,1.2-0.8c0.3-0.1,0.7-0.2,0.9-0.2c0.1,0,0.2,0,0.2,0c0.1,0,0.2,0,0.2,0V92.2z"/>
<path fill="#FFFFFF" d="M274,96c0,0.6-0.1,1.1-0.3,1.5c-0.2,0.4-0.4,0.7-0.7,1c-0.3,0.2-0.7,0.4-1.1,0.5c-0.4,0.1-0.9,0.2-1.5,0.2
	c-0.5,0-0.9,0-1.3-0.1c-0.4-0.1-0.8-0.1-1.1-0.2v-1.6h0.3c0.3,0.1,0.6,0.2,0.9,0.3c0.4,0.1,0.7,0.1,1,0.1c0.4,0,0.7,0,0.9-0.1
	c0.2-0.1,0.4-0.2,0.6-0.3c0.1-0.1,0.2-0.3,0.3-0.5c0.1-0.2,0.1-0.4,0.1-0.7V96c-0.3,0.2-0.5,0.4-0.8,0.5c-0.3,0.1-0.6,0.2-1,0.2
	c-0.9,0-1.6-0.3-2.1-0.8c-0.5-0.6-0.7-1.4-0.7-2.5c0-0.5,0.1-1,0.2-1.4c0.1-0.4,0.4-0.7,0.6-1c0.3-0.3,0.6-0.5,0.9-0.6
	c0.4-0.1,0.8-0.2,1.1-0.2c0.4,0,0.7,0,1,0.1c0.3,0.1,0.6,0.2,0.8,0.3l0.1-0.3h2V96z M271.9,94.7v-3c-0.1-0.1-0.3-0.1-0.4-0.1
	c-0.2,0-0.3,0-0.5,0c-0.5,0-1,0.2-1.2,0.5c-0.3,0.3-0.4,0.8-0.4,1.3c0,0.6,0.1,1.1,0.4,1.3c0.2,0.2,0.6,0.4,1,0.4
	c0.2,0,0.4,0,0.6-0.1C271.5,94.9,271.7,94.8,271.9,94.7z"/>
<path fill="#FFFFFF" d="M236.1,96.8H234v-0.7c-0.4,0.3-0.7,0.5-1.1,0.7c-0.3,0.2-0.7,0.2-1.1,0.2c-0.7,0-1.3-0.2-1.7-0.6
	c-0.4-0.4-0.6-1-0.6-1.8v-4.2h2.1v3.2c0,0.3,0,0.6,0,0.8c0,0.2,0.1,0.4,0.1,0.5c0.1,0.1,0.2,0.2,0.3,0.3c0.1,0.1,0.4,0.1,0.6,0.1
	c0.2,0,0.4,0,0.6-0.1c0.2-0.1,0.4-0.2,0.6-0.3v-4.6h2.1V96.8z"/>
<path fill="#FFFFFF" d="M243.1,94.7c0,0.7-0.3,1.2-0.9,1.6c-0.6,0.4-1.4,0.6-2.5,0.6c-0.6,0-1.1-0.1-1.6-0.2
	c-0.5-0.1-0.8-0.2-1.1-0.4v-1.7h0.2c0.1,0.1,0.2,0.2,0.4,0.2c0.1,0.1,0.3,0.2,0.6,0.3c0.2,0.1,0.5,0.2,0.7,0.2
	c0.3,0.1,0.6,0.1,0.9,0.1c0.4,0,0.7,0,0.9-0.1c0.2-0.1,0.3-0.2,0.3-0.4c0-0.2-0.1-0.3-0.2-0.3c-0.1-0.1-0.3-0.1-0.7-0.2
	c-0.2,0-0.4-0.1-0.6-0.1c-0.3,0-0.5-0.1-0.7-0.1c-0.6-0.2-1-0.4-1.3-0.7c-0.3-0.3-0.4-0.7-0.4-1.2c0-0.6,0.3-1.1,0.9-1.6
	c0.6-0.4,1.4-0.6,2.4-0.6c0.5,0,1,0.1,1.4,0.1c0.4,0.1,0.8,0.2,1,0.3v1.6h-0.2c-0.3-0.2-0.7-0.4-1.1-0.5c-0.4-0.1-0.8-0.2-1.2-0.2
	c-0.3,0-0.6,0-0.8,0.1c-0.2,0.1-0.3,0.2-0.3,0.4c0,0.2,0.1,0.3,0.2,0.4c0.1,0.1,0.3,0.2,0.7,0.2c0.2,0,0.4,0.1,0.7,0.1
	c0.2,0,0.5,0.1,0.7,0.2c0.5,0.1,1,0.4,1.2,0.7C243,93.9,243.1,94.3,243.1,94.7z"/>
<path fill="#FFFFFF" d="M247.8,96.1c-0.1,0.1-0.2,0.2-0.4,0.3c-0.2,0.1-0.3,0.2-0.5,0.3c-0.2,0.1-0.4,0.2-0.6,0.2
	c-0.2,0-0.5,0.1-0.7,0.1c-0.6,0-1.1-0.2-1.6-0.6c-0.4-0.4-0.6-0.9-0.6-1.5c0-0.5,0.1-0.9,0.3-1.2c0.2-0.3,0.5-0.5,0.9-0.7
	c0.4-0.2,0.9-0.3,1.4-0.4c0.6-0.1,1.2-0.1,1.8-0.2v0c0-0.4-0.1-0.6-0.4-0.7c-0.3-0.1-0.7-0.2-1.3-0.2c-0.3,0-0.7,0.1-1.1,0.2
	c-0.4,0.1-0.7,0.2-0.8,0.3H244v-1.6c0.2-0.1,0.6-0.1,1.1-0.2c0.5-0.1,1-0.1,1.5-0.1c1.2,0,2,0.2,2.6,0.5c0.5,0.4,0.8,0.9,0.8,1.7
	v4.4h-2.1V96.1z M247.8,95.1v-1.4c-0.3,0-0.6,0.1-0.9,0.1c-0.3,0-0.6,0.1-0.7,0.1c-0.2,0.1-0.4,0.2-0.5,0.3
	c-0.1,0.1-0.2,0.3-0.2,0.5c0,0.1,0,0.2,0,0.3c0,0.1,0.1,0.2,0.2,0.2c0.1,0.1,0.2,0.1,0.3,0.2c0.1,0,0.3,0.1,0.6,0.1
	c0.2,0,0.4,0,0.6-0.1C247.5,95.3,247.7,95.2,247.8,95.1z"/>
</svg>
